SplineFontDB: 3.0
FontName: RoutedGothicWide-Half-Italic
FullName: Routed Gothic Wide Half Italic
FamilyName: Routed Gothic Wide
Weight: Regular

StartChar: exclam
Encoding: 33 33 0
Width: 360
VWidth: 32
Flags: HW
HStem: 48 48<152.382 207.618>
VStem: 150 60<49.9059 94.0941>
LayerCount: 2
Fore
SplineSet
42.7972452532 72.9439553278 m 0
 53.3742422665 119.81228513 97.3736759319 144 136 144 c 0
 160.843514777 144 201.209638281 125.41858315 201.209638281 82.9701252723 c 0
 201.209638281 79.2028118075 200.891689821 75.2475068221 200.216723768 71.1005153896 c 0
 189.288041959 23.0768462529 143.805132322 0 106 0 c 0
 78.6757390298 0 41.7958853112 21.3360076351 41.7958853112 61.2774611709 c 0
 41.7958853112 65.0049880122 42.1170908441 68.89455921 42.7972452532 72.9439553278 c 0
253.413574487 735.067872433 m 0
 275.985946779 730.553397975 291.975488308 710.078489371 291.975488308 687.74826791 c 0
 291.975488308 684.716750503 291.680795129 681.651038993 291.067872433 678.586425513 c 2
 211.067872433 278.586425513 l 2
 206.553397975 256.014053221 186.078489371 240.024511692 163.74826791 240.024511692 c 0
 160.716750503 240.024511692 157.651038993 240.319204871 154.586425513 240.932127567 c 0
 132.012513804 245.446909909 116.024544865 265.922854489 116.024544865 288.251977254 c 0
 116.024544865 291.283453494 116.319230055 294.349086928 116.932127567 297.413574487 c 2
 196.932127567 697.413574487 l 2
 201.446909909 719.987486196 221.922854489 735.975455135 244.251977254 735.975455135 c 0
 247.283453494 735.975455135 250.349086928 735.680769945 253.413574487 735.067872433 c 0
EndSplineSet
EndChar

StartChar: quotedbl
Encoding: 34 34 1
Width: 480
VWidth: 32
Flags: HW
LayerCount: 2
Fore
SplineSet
413.500559869 735.050391732 m 0
 436.035420508 730.500083334 451.975020957 710.04268532 451.975020957 687.746059846 c 0
 451.975020957 684.686370274 451.674860218 681.592045965 451.050391732 678.499440131 c 2
 409.050391732 470.499440131 l 2
 404.500083334 447.964579492 384.04268532 432.024979043 361.746059846 432.024979043 c 0
 358.686370274 432.024979043 355.592045965 432.325139782 352.499440131 432.949608268 c 0
 329.963044068 437.500226703 314.025012669 457.958653206 314.025012669 480.254185243 c 0
 314.025012669 483.313834348 314.32516536 486.408080709 314.949608268 489.500559869 c 2
 356.949608268 697.500559869 l 2
 361.500226703 720.036955932 381.958653206 735.974987331 404.254185243 735.974987331 c 0
 407.313834348 735.974987331 410.408080709 735.67483464 413.500559869 735.050391732 c 0
213.500559869 735.050391732 m 0
 236.035420508 730.500083334 251.975020957 710.04268532 251.975020957 687.746059846 c 0
 251.975020957 684.686370274 251.674860218 681.592045965 251.050391732 678.499440131 c 2
 209.050391732 470.499440131 l 2
 204.500083334 447.964579492 184.04268532 432.024979043 161.746059846 432.024979043 c 0
 158.686370274 432.024979043 155.592045965 432.325139782 152.499440131 432.949608268 c 0
 129.963044068 437.500226703 114.025012669 457.958653206 114.025012669 480.254185243 c 0
 114.025012669 483.313834348 114.32516536 486.408080709 114.949608268 489.500559869 c 2
 156.949608268 697.500559869 l 2
 161.500226703 720.036955932 181.958653206 735.974987331 204.254185243 735.974987331 c 0
 207.313834348 735.974987331 210.408080709 735.67483464 213.500559869 735.050391732 c 0
EndSplineSet
EndChar

StartChar: numbersign
Encoding: 35 35 2
Width: 840
VWidth: 32
Flags: HW
LayerCount: 2
Fore
SplineSet
333.070514983 5.83083215341 m 0
 317.216914212 14.4512275726 308.131965487 31.242260648 308.131965487 48.3712611973 c 0
 308.131965487 56.0586028928 309.961795745 63.8140157606 313.830832153 70.9294850166 c 2
 405.762924676 240 l 1
 295.037075324 240 l 1
 178.169167847 25.0705149834 l 2
 169.548314131 9.21607136856 152.757207387 0.132035445008 135.628813513 0.132035445008 c 0
 127.941265336 0.132035445008 120.185774555 1.96190976118 113.070514983 5.83083215341 c 0
 97.2169142125 14.4512275726 88.1319654867 31.242260648 88.1319654867 48.3712611973 c 0
 88.1319654867 56.0586028928 89.9617957454 63.8140157606 93.8308321534 70.9294850166 c 2
 185.762924676 240 l 1
 124 240 l 2
 97.8536339246 240 76 261.855528292 76 288 c 0
 76 314.144471708 97.8536339246 336 124 336 c 2
 237.962924676 336 l 1
 272.762924676 400 l 1
 156 400 l 2
 129.853633925 400 108 421.855528292 108 448 c 0
 108 474.144471708 129.853633925 496 156 496 c 2
 324.962924676 496 l 1
 441.830832153 710.929485017 l 2
 450.451227573 726.783085788 467.242260648 735.868034513 484.371261197 735.868034513 c 0
 492.058602893 735.868034513 499.814015761 734.038204255 506.929485017 730.169167847 c 0
 522.783928631 721.548314131 531.867964555 704.757207387 531.867964555 687.628813513 c 0
 531.867964555 679.941265336 530.038090239 672.185774555 526.169167847 665.070514983 c 2
 434.237075324 496 l 1
 544.962924676 496 l 1
 661.830832153 710.929485017 l 2
 670.451227573 726.783085788 687.242260648 735.868034513 704.371261197 735.868034513 c 0
 712.058602893 735.868034513 719.814015761 734.038204255 726.929485017 730.169167847 c 0
 742.783928631 721.548314131 751.867964555 704.757207387 751.867964555 687.628813513 c 0
 751.867964555 679.941265336 750.038090239 672.185774555 746.169167847 665.070514983 c 2
 654.237075324 496 l 1
 716 496 l 2
 742.144471708 496 764 474.146366075 764 448 c 0
 764 421.853633925 742.144471708 400 716 400 c 2
 602.037075324 400 l 1
 567.237075324 336 l 1
 684 336 l 2
 710.144471708 336 732 314.146366075 732 288 c 0
 732 261.853633925 710.144471708 240 684 240 c 2
 515.037075324 240 l 1
 398.169167847 25.0705149834 l 2
 389.548314131 9.21607136856 372.757207387 0.132035445008 355.628813513 0.132035445008 c 0
 347.941265336 0.132035445008 340.185774555 1.96190976118 333.070514983 5.83083215341 c 0
382.037075324 400 m 1
 347.237075324 336 l 1
 457.962924676 336 l 1
 492.762924676 400 l 1
 382.037075324 400 l 1
EndSplineSet
EndChar

StartChar: dollar
Encoding: 36 36 3
Width: 630
VWidth: 32
Flags: HW
LayerCount: 2
Fore
SplineSet
542.368660437 498.033148878 m 0
 533.730061659 491.350896685 523.633892334 488.272716694 513.632152782 488.272716694 c 0
 499.13537161 488.272716694 484.836971872 494.739467041 475.462803566 506.071622901 c 0
 473.966624102 507.756037655 453.57001475 531.015238791 403.401585581 540.254991253 c 1
 379.407549053 420.284808613 l 1
 480.224526795 400.60914572 518.745895767 341.647126011 518.745895767 282.110418814 c 0
 518.745895767 272.936707796 517.831314713 263.749352448 516.089126191 254.689972131 c 0
 499.166322253 171.377706591 420.659392355 111.933870703 315.101449806 98.7543123768 c 1
 303.067872433 38.5864255134 l 2
 298.553397975 16.0140532212 278.078489371 0.0245116921936 255.74826791 0.0245116921936 c 0
 252.716750503 0.0245116921936 249.651038993 0.319204870956 246.586425513 0.932127566836 c 0
 224.012513804 5.44690990864 208.024544865 25.9228544887 208.024544865 48.2519772538 c 0
 208.024544865 51.2834534937 208.319230055 54.3490869282 208.932127567 57.4135744866 c 2
 217.648827083 100.997072066 l 1
 123.50439552 119.444176977 74.9116510431 182.88162847 71.4489149255 187.391765211 c 0
 65.1032727339 196.241916798 62.0951150501 206.27008294 62.0951150501 216.107351236 c 0
 62.0951150501 230.656160578 68.674820775 244.787421446 80.768897913 254.072860029 c 0
 89.233518077 260.57171974 99.5903583418 263.499961415 109.769339591 263.499961415 c 0
 123.939178793 263.499961415 137.764353062 257.825454464 145.660562072 248.20933207 c 0
 151.225943989 241.366570166 180.671695477 205.991834417 236.480902973 195.157451517 c 1
 265.216212656 338.833999934 l 1
 169.004327071 359.136724134 125.372473246 415.430546463 125.372473246 475.579568933 c 0
 125.372473246 478.740791585 125.49299257 481.912663021 125.732732205 485.090518041 c 0
 126.168542827 490.867380844 126.787309884 495.414076809 127.921488976 501.368517039 c 0
 144.661916144 582.026938849 232.943379255 628.75461085 325.091097507 638.208424187 c 1
 336.932127567 697.413574487 l 2
 341.446909909 719.987486196 361.922854489 735.975455135 384.251977254 735.975455135 c 0
 387.283453494 735.975455135 390.349086928 735.680769945 393.413574487 735.067872433 c 0
 415.985946779 730.553397975 431.975488308 710.078489371 431.975488308 687.74826791 c 0
 431.975488308 684.716750503 431.680795129 681.651038993 431.067872433 678.586425513 c 2
 422.209967721 634.296901953 l 1
 506.28621005 618.114754008 545.393558492 572.573645856 551.447288929 564.747579606 c 0
 557.512927922 556.352252721 560.616048994 546.148658456 560.616048994 535.922405505 c 0
 560.616048994 521.752744982 554.658267794 507.539581324 542.368660437 498.033148878 c 0
304.844896618 536.97741974 m 1
 254.277796862 523.550140961 224.805588313 494.510365095 222.067542788 482.562635773 c 0
 221.75987246 480.848290443 221.577705751 479.419557399 221.46071035 477.86873155 c 0
 221.353124171 476.442629097 221.031223872 474.378002849 221.031223872 471.884705719 c 0
 221.031223872 461.010105232 227.154726767 441.980907192 283.891107985 432.208476575 c 1
 304.844896618 536.97741974 l 1
335.368313264 200.088629668 m 1
 390.100076238 215.090109912 416.597030146 248.001066443 421.912583452 273.319905146 c 0
 423.156769772 279.919040502 425.155392563 286.025406157 425.155392563 291.742471401 c 0
 425.155392563 304.840236264 414.665309726 315.894697319 360.580594459 326.150035641 c 1
 335.368313264 200.088629668 l 1
EndSplineSet
EndChar

StartChar: percent
Encoding: 37 37 5
Width: 1080
VWidth: 32
Flags: HW
HStem: 48 240<687.378 872.622> 448 240<207.377 392.623>
VStem: 140 320<500.907 635.093> 620 320<100.907 235.093>
LayerCount: 2
Fore
SplineSet
947.095117106 158.723689055 m 0
 927.765734082 60.5898983177 819.18994903 0 716 0 c 0
 699.941680604 0 684.384966074 1.46799975763 669.504117479 4.33073168104 c 0
 595.302487298 18.6054132714 530.169532978 73.6688063258 530.169532978 149.849374863 c 0
 530.169532978 158.715963096 531.051851587 167.86861354 532.904882894 177.276310945 c 0
 552.234265918 275.410101682 660.81005097 336 764 336 c 0
 780.058319396 336 795.615033926 334.532000242 810.495882521 331.669268319 c 0
 884.697512702 317.394586729 949.830467022 262.331193674 949.830467022 186.150625137 c 0
 949.830467022 177.284036904 948.948148413 168.13138646 947.095117106 158.723689055 c 0
852.904882894 177.276310945 m 0
 853.402782057 179.804106698 853.666844907 182.41183176 853.666844907 185.062875865 c 0
 853.666844907 205.556903926 837.886079877 228.639738594 792.360238691 237.397860019 c 0
 783.699124503 239.064058551 774.19974512 240 764 240 c 0
 691.18994903 240 633.765734082 192.589898318 627.095117106 158.723689055 c 0
 626.597217943 156.195893302 626.333155093 153.58816824 626.333155093 150.937124135 c 0
 626.333155093 130.443096074 642.113920123 107.360261406 687.639761309 98.6021399811 c 0
 696.300875497 96.9359414494 705.80025488 96 716 96 c 0
 788.81005097 96 846.234265918 143.410101682 852.904882894 177.276310945 c 0
547.095117106 558.723689055 m 0
 527.765734082 460.589898318 419.18994903 400 316 400 c 0
 299.941680604 400 284.384966074 401.467999758 269.504117479 404.330731681 c 0
 195.302487298 418.605413271 130.169532978 473.668806326 130.169532978 549.849374863 c 0
 130.169532978 558.715963096 131.051851587 567.86861354 132.904882894 577.276310945 c 0
 152.234265918 675.410101682 260.81005097 736 364 736 c 0
 380.058319396 736 395.615033926 734.532000242 410.495882521 731.669268319 c 0
 484.697512702 717.394586729 549.830467022 662.331193674 549.830467022 586.150625137 c 0
 549.830467022 577.284036904 548.948148413 568.13138646 547.095117106 558.723689055 c 0
452.904882894 577.276310945 m 0
 453.402782057 579.804106698 453.666844907 582.41183176 453.666844907 585.062875865 c 0
 453.666844907 605.556903926 437.886079877 628.639738594 392.360238691 637.397860019 c 0
 383.699124503 639.064058551 374.19974512 640 364 640 c 0
 291.18994903 640 233.765734082 592.589898318 227.095117106 558.723689055 c 0
 226.597217943 556.195893302 226.333155093 553.58816824 226.333155093 550.937124135 c 0
 226.333155093 530.443096074 242.113920123 507.360261406 287.639761309 498.602139981 c 0
 296.300875497 496.935941449 305.80025488 496 316 496 c 0
 388.81005097 496 446.234265918 543.410101682 452.904882894 577.276310945 c 0
224.138399103 12.0996046226 m 0
 213.58393894 21.4666880166 208.190197215 34.7662291578 208.190197215 48.0992361827 c 0
 208.190197215 59.4681057529 212.111844217 70.8613074823 220.099604623 79.8616008974 c 2
 788.099604623 719.861600897 l 2
 797.466688017 730.41606106 810.766229158 735.809802785 824.099236183 735.809802785 c 0
 835.468105753 735.809802785 846.861307482 731.888155783 855.861600897 723.900395377 c 0
 866.416476059 714.532943671 871.809782961 701.233614704 871.809782961 687.901087956 c 0
 871.809782961 676.531809406 867.887887433 665.138390151 859.900395377 656.138399103 c 2
 291.900395377 16.1383991026 l 2
 282.532943671 5.58352394063 269.233614704 0.190217038671 255.901087956 0.190217038671 c 0
 244.531809406 0.190217038671 233.138390151 4.11211256698 224.138399103 12.0996046226 c 0
EndSplineSet
EndChar

StartChar: ampersand
Encoding: 38 38 6
Width: 980
VWidth: 32
Flags: HW
LayerCount: 2
Fore
SplineSet
491.950329217 455.027693026 m 1
 612.76865599 462.968522481 672.169758912 521.496417093 679.882461296 561.161743637 c 0
 680.35170315 563.574987456 680.648359685 566.254681704 680.648359685 569.135571948 c 0
 680.648359685 590.766686121 663.923662089 623.740689378 577.953921543 640.434854045 c 0
 553.54215814 645.175289406 524.254323493 648 490 648 c 0
 310.797026612 648 255.337586183 573.451621323 249.03939134 542.445123634 c 0
 247.658797628 535.695554375 246.868444146 529.41925339 246.868444146 523.585724677 c 0
 246.868444146 496.409313867 264.02155479 478.842428362 318.560675657 467.801701601 c 0
 336.816758613 464.105998032 358.80192428 462 384 462 c 0
 421.52914931 462 457.606526562 459.694080648 491.950329217 455.027693026 c 1
879.440484323 392.418724784 m 0
 882.454063927 386.007386223 883.833179622 379.315703173 883.833179622 372.73816128 c 0
 883.833179622 354.481414795 873.208392799 337.104018359 857.419063927 329.041465397 c 0
 855.048057064 327.896528191 827.764849886 314.401901205 792.929537567 285.925682975 c 1
 821.214538108 239.106887463 836.620924349 183.799417305 836.620924349 121.584811616 c 0
 836.620924349 95.1272808687 833.834708909 67.4206078916 828.067872433 38.5864255134 c 0
 823.553090091 16.0125138044 803.077145511 0.0245448649932 780.748022746 0.0245448649932 c 0
 777.716546506 0.0245448649932 774.650913072 0.319230055154 771.586425513 0.932127566836 c 0
 749.014053221 5.44660202528 733.024511692 25.9215106285 733.024511692 48.2517320898 c 0
 733.024511692 51.2832494966 733.319204871 54.3489610072 733.932127567 57.4135744866 c 0
 738.716048391 81.3331786081 740.916358207 103.20955781 740.916358207 123.827062736 c 0
 740.916358207 157.826519016 735.026722708 188.141402125 723.427729685 214.88104826 c 1
 712.323464897 200.643560735 701.502324394 184.950544694 691.414369295 167.733767991 c 0
 603.637827567 17.928470109 450.924359989 -8 330 -8 c 0
 298.755359221 -8 269.90088496 -5.29962591517 243.404721858 -0.0573456010237 c 0
 125.774915898 23.2157756349 55.1450756248 101.990943857 55.1450756248 195.501313794 c 0
 55.1450756248 207.895780938 56.3859402247 220.54912436 58.9226951369 233.366412337 c 0
 75.9257590377 318.381731841 137.951840127 376.969904637 208.434888006 413.583583955 c 1
 173.298143352 440.842074931 151.360383039 479.491389518 151.360383039 527.181827359 c 0
 151.360383039 538.179049082 152.526912282 549.657027935 154.967124086 561.586952308 c 0
 174.656929516 658.521379041 289.204916033 744 490 744 c 0
 529.492307235 744 564.802898929 740.78185999 596.253986991 734.674482676 c 0
 703.864284652 713.778013551 776.801956996 651.069786174 776.801956996 570.112545229 c 0
 776.801956996 561.230408964 775.923995712 552.128606689 774.117538704 542.838256363 c 0
 762.786654005 484.565135051 720.273001847 436.30287942 662.597597098 404.304509819 c 1
 687.573690314 391.496861253 710.262852812 376.4100084 730.396701911 359.211868982 c 1
 776.170605441 396.930138209 812.649808473 414.062582871 816.292069793 415.774587989 c 0
 822.372732328 418.393380036 828.911673295 419.670038745 835.445640514 419.670038745 c 0
 853.29648944 419.670038745 871.110214978 410.141228941 879.440484323 392.418724784 c 0
662.352904915 292.101623147 m 1
 634.016514386 314.013397402 598.190085891 331.229385952 555.159706748 343.923096956 c 0
 506.732513399 358.208836691 449.34932969 365.899935212 385.255206013 365.999032279 c 0
 295.766126923 360.992199992 169.794356799 298.218845278 153.067872433 214.586425513 c 0
 151.682645138 207.587382336 150.935778427 200.56882891 150.935778427 193.620705542 c 0
 150.935778427 150.695691831 179.441296947 110.458768625 262.037192344 94.1171256935 c 0
 281.649601584 90.2367998335 304.298827971 88 330 88 c 0
 441.075640011 88 546.362172433 110.071529891 608.585630705 216.266232009 c 0
 625.420710859 244.998102138 643.763452119 270.184344525 662.352904915 292.101623147 c 1
EndSplineSet
EndChar

StartChar: quotesingle
Encoding: 39 39 7
Width: 280
VWidth: 0
Flags: HW
LayerCount: 2
Fore
SplineSet
213.500559869 735.050391732 m 0
 236.035420508 730.500083334 251.975020957 710.04268532 251.975020957 687.746059846 c 0
 251.975020957 684.686370274 251.674860218 681.592045965 251.050391732 678.499440131 c 2
 209.050391732 470.499440131 l 2
 204.500083334 447.964579492 184.04268532 432.024979043 161.746059846 432.024979043 c 0
 158.686370274 432.024979043 155.592045965 432.325139782 152.499440131 432.949608268 c 0
 129.963044068 437.500226703 114.025012669 457.958653206 114.025012669 480.254185243 c 0
 114.025012669 483.313834348 114.32516536 486.408080709 114.949608268 489.500559869 c 2
 156.949608268 697.500559869 l 2
 161.500226703 720.036955932 181.958653206 735.974987331 204.254185243 735.974987331 c 0
 207.313834348 735.974987331 210.408080709 735.67483464 213.500559869 735.050391732 c 0
EndSplineSet
EndChar

StartChar: parenleft
Encoding: 40 40 8
Width: 430
VWidth: 32
Flags: HW
LayerCount: 2
Fore
SplineSet
405.428207883 800.385831566 m 0
 413.787674969 791.2410629 417.658683304 779.82616365 417.658683304 768.500628585 c 0
 417.658683304 755.374141371 412.458679179 742.367698883 403.019998639 733.154871729 c 0
 399.713283469 730.114028836 228.915572656 569.644052478 187.083418923 358.664494524 c 0
 180.150827087 323.700118308 177.2601368 290.2998578 177.2601368 258.908468401 c 0
 177.2601368 103.753271052 247.877767588 -2.32654837974 250.110597261 -5.62921983016 c 0
 255.385044027 -13.8470407054 257.882575518 -22.9813871975 257.882575518 -31.9669875186 c 0
 257.882575518 -47.3848740523 250.529543303 -62.3648340208 237.234827935 -71.525487313 c 0
 229.035530186 -77.1751700513 219.593263008 -79.9514661037 210.17279223 -79.9514661037 c 0
 195.413898199 -79.9514661037 180.708503357 -73.1370571853 170.920161755 -59.881593477 c 0
 167.771413618 -55.3118636862 81.067767094 69.9753097109 81.067767094 257.44454832 c 0
 81.067767094 295.062120373 84.5588394899 335.183417473 92.9165810767 377.335505476 c 0
 142.560705833 627.714569465 333.782930592 799.925976187 338.193897934 803.958154327 c 0
 347.124730631 811.60097754 358.690221327 815.631971965 370.305608263 815.631971965 c 0
 383.105523533 815.631971965 395.966030714 810.736900646 405.428207883 800.385831566 c 0
EndSplineSet
EndChar

StartChar: parenright
Encoding: 41 41 9
Width: 430
VWidth: 32
Flags: HW
LayerCount: 2
Fore
SplineSet
152.765172065 807.525487313 m 0
 160.953675674 813.167732406 170.189921865 815.752729463 179.317357733 815.752729463 c 0
 194.743371249 815.752729463 209.858585533 808.369100109 219.079838245 795.881593477 c 0
 222.733638852 790.578888798 308.935572805 665.511976257 308.935572805 478.582004351 c 0
 308.935572805 440.958231988 305.443495862 400.828360824 297.083418923 358.664494524 c 0
 247.34238275 107.79665991 55.3690438769 -64.7011780292 51.8061020664 -67.9581543272 c 0
 42.3694691908 -76.0338309449 31.0339844763 -79.9152927394 19.8651064135 -79.9152927394 c 0
 6.75869826099 -79.9152927394 -6.11828495822 -74.570343397 -15.4282078827 -64.3858315659 c 0
 -23.7136040962 -55.322092108 -27.9178068952 -43.7770343833 -27.9178068952 -32.1468456363 c 0
 -27.9178068952 -19.5730083391 -23.0036863714 -6.89966487527 -13.0199986387 2.84512827078 c 0
 -10.4749399874 5.18555468003 160.998351373 165.921825229 202.916581077 377.335505476 c 0
 209.850903458 412.308609662 212.742338285 445.715645717 212.742338285 477.112263817 c 0
 212.742338285 631.809627607 142.546156042 737.699505267 139.889402739 741.62921983 c 0
 134.916497574 749.377225581 132.401284295 758.557051628 132.401284295 767.794818191 c 0
 132.401284295 782.876971849 139.10580247 798.113570955 152.765172065 807.525487313 c 0
EndSplineSet
EndChar

StartChar: asterisk
Encoding: 42 42 10
Width: 640
VWidth: 32
Flags: HW
LayerCount: 2
Fore
SplineSet
505.498713479 720.324688565 m 0
 515.654216113 710.981626142 520.808289572 697.967022728 520.808289572 684.930146937 c 0
 520.808289572 673.267470532 516.683517074 661.586969683 508.324688565 652.501286521 c 2
 467.383504966 608 l 1
 538 608 l 2
 564.144471708 608 586 586.146366075 586 560 c 0
 586 533.853633925 564.144471708 512 538 512 c 2
 437.061770766 512 l 1
 465.586406459 457.144931359 l 2
 469.177871519 450.238267783 470.874928046 442.775097697 470.874928046 435.380721402 c 0
 470.874928046 417.941315157 461.435262615 400.884565794 445.144931359 392.413593541 c 0
 438.238063234 388.822022116 430.774956793 387.125000872 423.380768096 387.125000872 c 0
 405.940740434 387.125000872 388.884105905 396.565621788 380.413593541 412.855068641 c 2
 346.987912137 477.135225186 l 1
 278.324688565 402.501286521 l 2
 268.981626142 392.345783887 255.967022728 387.191710428 242.930146937 387.191710428 c 0
 231.267470532 387.191710428 219.586969683 391.316482926 210.501286521 399.675311435 c 0
 200.345394428 409.01873216 195.191724389 422.033117213 195.191724389 435.069522154 c 0
 195.191724389 446.732619733 199.316769892 458.413342237 207.675311435 467.498713479 c 2
 248.616495034 512 l 1
 178 512 l 2
 151.853633925 512 130 533.855528292 130 560 c 0
 130 586.144471708 151.853633925 608 178 608 c 2
 278.938229234 608 l 1
 250.413593541 662.855068641 l 2
 246.822022116 669.761936766 245.125000872 677.225043207 245.125000872 684.619231904 c 0
 245.125000872 702.059259566 254.565621788 719.115894095 270.855068641 727.586406459 c 0
 277.761732217 731.177871519 285.224902303 732.874928046 292.619278598 732.874928046 c 0
 310.058684843 732.874928046 327.115434206 723.435262615 335.586406459 707.144931359 c 2
 369.012087863 642.864774814 l 1
 437.675311435 717.498713479 l 2
 447.01873216 727.654605572 460.033117213 732.808275611 473.069522154 732.808275611 c 0
 484.732619733 732.808275611 496.413342237 728.683230108 505.498713479 720.324688565 c 0
EndSplineSet
EndChar

StartChar: plus
Encoding: 43 43 11
Width: 800
VWidth: 192
Flags: HW
LayerCount: 2
Fore
SplineSet
718 368 m 0
 718 341.855528292 696.146366075 320 670 320 c 2
 439.386334906 320 l 1
 404.076236293 142.628341849 l 2
 399.579069325 120.037921732 379.095752609 104.024288007 356.749335531 104.024288007 c 0
 353.731389609 104.024288007 350.679462123 104.316364764 347.628341849 104.923763707 c 0
 325.036380394 109.421237515 309.024320962 129.905593821 309.024320962 152.250909656 c 0
 309.024320962 155.26881408 309.316389759 158.320663433 309.923763707 161.371658151 c 2
 341.502553983 320 l 1
 130 320 l 2
 103.855528292 320 82 341.853633925 82 368 c 0
 82 394.146366075 103.855528292 416 130 416 c 2
 360.613665094 416 l 1
 395.923763707 593.371658151 l 2
 400.421237515 615.963619606 420.905593821 631.975679038 443.250909656 631.975679038 c 0
 446.26881408 631.975679038 449.320663433 631.683610241 452.371658151 631.076236293 c 0
 474.962078268 626.579069325 490.975711993 606.095752609 490.975711993 583.749335531 c 0
 490.975711993 580.731389609 490.683635236 577.679462123 490.076236293 574.628341849 c 2
 458.497446017 416 l 1
 670 416 l 2
 696.146366075 416 718 394.144471708 718 368 c 0
EndSplineSet
EndChar

StartChar: comma
Encoding: 44 44 12
Width: 370
VWidth: 32
Flags: HW
LayerCount: 2
Fore
SplineSet
42.7972452532 72.9439553278 m 0
 53.3742422665 119.81228513 97.3736759319 144 136 144 c 0
 161.288811572 144 208.933152939 121.585629666 208.933152939 72.1047691111 c 0
 208.933152939 66.5463213791 208.331918441 60.6463156111 207.030218738 54.3981570359 c 0
 194.70386528 -7.23361025336 133.136618116 -82.4452092091 131.182727309 -85.0980489245 c 0
 121.329934512 -97.5972947888 107.081398114 -103.946042838 92.8280155334 -103.946042838 c 0
 82.9053106249 -103.946042838 72.9802570351 -100.869150079 64.5343139528 -94.6484762683 c 0
 51.8963536708 -85.3402642921 45.1747743992 -70.6078235195 45.1747743992 -55.7639630097 c 0
 45.1747743992 -45.8807707968 48.1544712324 -35.9481858705 54.3515237317 -27.5343139528 c 2
 54.3515237317 -27.5343139528 64.6967939802 -13.5415901009 77.613538128 6.34262602437 c 1
 60.8035624567 14.8308315613 41.9276653814 35.2194560845 41.9276653814 62.6611775838 c 0
 41.9276653814 65.987988569 42.2050875418 69.4184600793 42.7972452532 72.9439553278 c 0
EndSplineSet
EndChar

StartChar: hyphen
Encoding: 45 45 13
Width: 520
VWidth: 32
Flags: HW
LayerCount: 2
Fore
SplineSet
31 264 m 0
 31 290.144471708 52.8536339246 312 79 312 c 2
 399 312 l 2
 425.144471708 312 447 290.146366075 447 264 c 0
 447 237.853633925 425.144471708 216 399 216 c 2
 79 216 l 2
 52.8536339246 216 31 237.855528292 31 264 c 0
EndSplineSet
EndChar

StartChar: period
Encoding: 46 46 14
Width: 360
VWidth: 32
Flags: HW
HStem: 48 48<152.382 207.618>
VStem: 150 60<49.9059 94.0941>
AnchorPoint: "above" -73 0 mark 0
LayerCount: 2
Fore
SplineSet
42.7972452532 72.9439553278 m 0
 53.3742422665 119.81228513 97.3736759319 144 136 144 c 0
 160.843514777 144 201.209638281 125.41858315 201.209638281 82.9701252723 c 0
 201.209638281 79.2028118075 200.891689821 75.2475068221 200.216723768 71.1005153896 c 0
 189.288041959 23.0768462529 143.805132322 0 106 0 c 0
 78.6757390298 0 41.7958853112 21.3360076351 41.7958853112 61.2774611709 c 0
 41.7958853112 65.0049880122 42.1170908441 68.89455921 42.7972452532 72.9439553278 c 0
EndSplineSet
EndChar

StartChar: slash
Encoding: 47 47 15
Width: 720
VWidth: 32
Flags: HW
LayerCount: 2
Fore
SplineSet
44.1383991026 12.0996046226 m 0
 33.5839389404 21.4666880166 28.1901972147 34.7662291578 28.1901972147 48.0992361827 c 0
 28.1901972147 59.4681057529 32.1118442167 70.8613074823 40.0996046226 79.8616008974 c 2
 608.099604623 719.861600897 l 2
 617.466688017 730.41606106 630.766229158 735.809802785 644.099236183 735.809802785 c 0
 655.468105753 735.809802785 666.861307482 731.888155783 675.861600897 723.900395377 c 0
 686.416476059 714.532943671 691.809782961 701.233614704 691.809782961 687.901087956 c 0
 691.809782961 676.531809406 687.887887433 665.138390151 679.900395377 656.138399103 c 2
 111.900395377 16.1383991026 l 2
 102.532943671 5.58352394063 89.2336147038 0.190217038671 75.9010879555 0.190217038671 c 0
 64.5318094056 0.190217038671 53.1383901512 4.11211256698 44.1383991026 12.0996046226 c 0
EndSplineSet
EndChar

StartChar: zero
Encoding: 48 48 16
Width: 840
VWidth: 32
Flags: HW
HStem: 40 656<313.411 526.589>
VStem: 110 620<233.016 502.984>
LayerCount: 2
Fore
SplineSet
777.077849649 358.636449794 m 0
 736.904456914 156.653558544 552.364204085 -8 355 -8 c 0
 333.05976408 -8 311.752031868 -5.9124977753 291.289147323 -1.84361199293 c 0
 146.83701983 26.8795724881 55.3309682012 151.535838523 55.3309682012 301.602151767 c 0
 55.3309682012 326.273612363 57.804247217 351.631870558 62.9221503514 377.363550206 c 0
 103.095543086 579.346441456 287.635795915 744 485 744 c 0
 506.94023592 744 528.247968132 741.912497775 548.710852677 737.843611993 c 0
 693.16298017 709.120427512 784.669031799 584.464161477 784.669031799 434.397848233 c 0
 784.669031799 409.726387637 782.195752783 384.368129442 777.077849649 358.636449794 c 0
682.922150351 377.363550206 m 0
 687.030615529 398.020000128 688.989961911 417.910228692 688.989961911 436.880163218 c 0
 688.989961911 546.243417273 623.868760626 625.019607284 529.988533531 643.686961852 c 0
 515.861671757 646.495978679 500.85976408 648 485 648 c 0
 340.364204085 648 188.904456914 518.653558544 157.077849649 358.636449794 c 0
 152.969384471 337.979999872 151.010038089 318.089771308 151.010038089 299.119836782 c 0
 151.010038089 189.756582727 216.131239374 110.980392716 310.011466469 92.3130381483 c 0
 324.138328243 89.504021321 339.14023592 88 355 88 c 0
 499.635795915 88 651.095543086 217.346441456 682.922150351 377.363550206 c 0
EndSplineSet
EndChar

StartChar: one
Encoding: 49 49 17
Width: 440
VWidth: 0
Flags: HW
LayerCount: 2
Fore
SplineSet
293.413574487 735.067872433 m 0
 315.985946779 730.553397975 331.975488308 710.078489371 331.975488308 687.74826791 c 0
 331.975488308 684.716750503 331.680795129 681.651038993 331.067872433 678.586425513 c 2
 203.067872433 38.5864255134 l 2
 198.553397975 16.0140532212 178.078489371 0.0245116921936 155.74826791 0.0245116921936 c 0
 152.716750503 0.0245116921936 149.651038993 0.319204870956 146.586425513 0.932127566836 c 0
 124.012513804 5.44690990864 108.024544865 25.9228544887 108.024544865 48.2519772538 c 0
 108.024544865 51.2834534937 108.319230055 54.3490869282 108.932127567 57.4135744866 c 2
 236.932127567 697.413574487 l 2
 241.446909909 719.987486196 261.922854489 735.975455135 284.251977254 735.975455135 c 0
 287.283453494 735.975455135 290.349086928 735.680769945 293.413574487 735.067872433 c 0
EndSplineSet
EndChar

StartChar: two
Encoding: 50 50 18
Width: 840
VWidth: 32
Flags: HW
LayerCount: 2
Fore
SplineSet
183.755794214 488.898570517 m 0
 161.110610051 493.342952455 145.023613957 513.851715799 145.023613957 536.2474041 c 0
 145.023613957 539.224099966 145.307808056 542.234130392 145.898570517 545.244205786 c 0
 173.929210117 688.066988514 325.761705975 744 468 744 c 0
 495.410332207 744 521.436005319 741.537968675 545.815186124 736.715407293 c 0
 646.82574932 716.734028706 727.628014252 648.9106048 727.628014252 553.79497067 c 0
 727.628014252 542.496849604 726.487942547 530.81365175 724.106246235 518.779817754 c 0
 707.371302841 432.315943548 643.039844965 390.503196881 522.164176459 337.991635972 c 0
 297.41620977 239.887364798 209.5240267 202.515853946 169.105133109 96 c 1
 616 96 l 2
 642.144471708 96 664 74.1463660754 664 48 c 0
 664 21.8536339246 642.144471708 0 616 0 c 2
 106 0 l 2
 86.4277536121 0 58.0049407669 19.2064543077 58.0049407669 48.2325647397 c 0
 58.0049407669 51.2093870125 58.3038884431 54.2894912298 58.9419898037 57.4627520503 c 0
 101.082990493 267.028809531 237.575740548 318.513883356 483.79733366 425.991562889 c 0
 606.995365961 479.512019545 622.627122525 499.675920838 629.893753765 537.220182246 c 0
 630.971352909 542.664893712 631.530614259 548.086956914 631.530614259 553.44198565 c 0
 631.530614259 592.363404328 601.986667039 627.743611528 527.185960321 642.540294094 c 0
 509.484839487 646.041836761 489.646271567 648 468 648 c 0
 340.238294025 648 254.070789883 597.933011486 240.101429483 526.755794214 c 0
 235.656743897 504.109062891 215.146929963 488.023646248 192.752350694 488.023646248 c 0
 189.77569731 488.023646248 186.765745171 488.307832478 183.755794214 488.898570517 c 0
EndSplineSet
EndChar

StartChar: three
Encoding: 51 51 19
Width: 840
VWidth: 32
Flags: HW
LayerCount: 2
Fore
SplineSet
106.843984666 197.563000882 m 0
 113.201355966 200.504471185 119.938063074 201.892875318 126.605635181 201.892875318 c 0
 144.823574268 201.892875318 162.525381077 191.527645236 170.563000882 174.156015334 c 0
 190.907993898 130.184578816 255.191165788 88 352 88 c 0
 490.055898625 88 607.596395761 172.734915457 622.932127567 249.413574487 c 0
 624.695106263 258.228467966 625.503647756 266.534538833 625.51561993 274.627358673 c 0
 625.51561993 334.879563325 577.004037119 396 445 396 c 0
 413.214230766 396 363.328294593 385.994226222 329.678572868 375.990254899 c 0
 325.259827184 374.676573749 320.775278597 374.052149907 316.344665898 374.052149907 c 0
 308.35758345 374.052149907 300.545778674 376.081365713 293.610719805 379.759982093 c 0
 282.825418265 385.472521591 274.149871667 395.176707822 270.24492939 407.492294685 c 0
 270.201141708 407.630394298 270.158033493 407.768571193 270.115602635 407.906821566 c 0
 270.073219989 408.044706157 270.031436237 408.182908695 269.990254899 408.321427132 c 0
 268.67652707 412.740329827 268.052095667 417.224934448 268.052095667 421.655536451 c 0
 268.052095667 429.642751933 270.081413442 437.454466191 273.760027152 444.38937149 c 0
 279.47234512 455.174378802 289.176187649 463.849963374 301.492294685 467.75507061 c 0
 454.539510574 516.282236623 538.292207665 589.149431526 581.305590117 640 c 1
 209 640 l 2
 182.855528292 640 161 661.853633925 161 688 c 0
 161 714.146366075 182.855528292 736 209 736 c 2
 669 736 l 2
 669.7743857 736 678.340014667 735.274304466 682.424175517 734.084612526 c 0
 703.328879422 727.995195713 716.919800174 708.300361785 716.919800174 687.584859587 c 0
 716.919800174 682.049936059 715.949555656 676.442147873 713.889334651 671.00154023 c 0
 711.403420002 664.436765768 672.917869353 569.046104611 544.964154175 479.527698507 c 1
 652.431169447 450.823030865 721.515662285 374.789635962 721.515662285 274.655827972 c 0
 721.515662285 259.931166621 720.015821437 245.326170534 717.067872433 230.586425513 c 0
 688.403604239 87.2650845432 517.944101375 -8 352 -8 c 0
 230.808834212 -8 125.092006102 43.8154211837 83.4369991177 133.843984666 c 0
 80.4954396439 140.20154869 79.1070530601 146.938226836 79.1070530601 153.605658282 c 0
 79.1070530601 171.824261721 89.4733454846 189.52583947 106.843984666 197.563000882 c 0
EndSplineSet
EndChar

StartChar: four
Encoding: 52 52 20
Width: 840
VWidth: 32
Flags: HW
LayerCount: 2
Fore
SplineSet
541.039066117 318 m 1
 604.539066117 638 l 1
 602.530581275 638 l 1
 193.039055851 318 l 1
 541.039066117 318 l 1
769 270 m 0
 769 243.855528292 747.146366075 222 721 222 c 2
 619.860933883 222 l 1
 583.081966506 36.6571722715 l 2
 578.596718834 14.0543493593 558.107630221 -1.97586527032 535.750071195 -1.97586527032 c 0
 532.741458344 -1.97586527032 529.699010191 -1.68558121771 526.657172272 -1.08196650562 c 0
 504.052806703 3.40358728689 488.024167534 23.8937179757 488.024167534 46.2501740034 c 0
 488.024167534 49.2587451303 488.314443647 52.3011151132 488.918033494 55.3428277285 c 2
 521.989066117 222 l 1
 121 222 l 2
 92.5616164907 222 73.1179719343 247.155449774 73.1179719343 271.103884935 c 0
 73.1179719343 273.804217223 73.3651772526 276.4892036 73.8745671717 279.121051515 c 2
 76.5412338383 292.898829293 l 1
 85.8745671717 341.121051515 l 2
 88.0727903391 352.47853788 94.7356807635 363.016019341 103.444225632 369.821372285 c 2
 556.444225632 723.821372285 l 2
 564.913052515 730.439395942 576.435939372 734 586 734 c 2
 663 734 l 2
 691.265124652 734 710.887937144 709.123488997 710.887937144 684.974904466 c 0
 710.887937144 682.179330301 710.624958833 679.393511561 710.081966506 676.657172272 c 2
 638.910933883 318 l 1
 721 318 l 2
 747.146366075 318 769 296.144471708 769 270 c 0
EndSplineSet
EndChar

StartChar: five
Encoding: 53 53 21
Width: 840
VWidth: 0
Flags: HW
LayerCount: 2
Fore
SplineSet
96.7837135782 199.056581268 m 0
 103.437353255 202.335186326 110.558838947 203.883279197 117.611051422 203.883279197 c 0
 135.415585668 203.883279197 152.778574062 194.015771633 161.056581268 177.216286422 c 0
 185.257141596 128.103384579 245.833876897 88 337 88 c 0
 472.39155125 88 592.873607736 178.883608017 611.946778807 273.486536531 c 0
 613.819849803 282.776968671 614.67492012 291.584621148 614.68218599 300.125642833 c 0
 614.68218599 372.314870498 547.043520071 440 426 440 c 0
 347.342941858 440 268.479903891 411.80830778 205.725711981 362.312043738 c 0
 197.057923878 355.475478473 186.634326046 352.200339436 176.265337149 352.200339436 c 0
 160.718821053 352.200339436 145.295065004 359.562801742 136.096024442 373.32280497 c 0
 130.700221067 381.393893619 128.227658519 391.265675724 128.227658519 400.559799739 c 0
 128.227658519 405.862727304 129.032595259 410.97759968 130.558756621 415.462645316 c 2
 228.558756621 703.462645316 l 2
 235.420339412 723.627296784 256.126672183 736 274 736 c 2
 674 736 l 2
 700.144471708 736 722 714.146366075 722 688 c 0
 722 661.853633925 700.144471708 640 674 640 c 2
 308.369504632 640 l 1
 262.225833283 504.394108688 l 1
 313.912517205 524.714332794 369.631813617 536 426 536 c 0
 580.582958732 536 710.682212993 441.418688298 710.682212993 300.157320231 c 0
 710.669350989 285.040402189 709.147748838 269.862320589 706.053221193 254.513463469 c 0
 675.126392264 101.116391983 507.60844875 -8 337 -8 c 0
 218.166123103 -8 118.742858404 45.8966154211 74.9434187322 134.783713578 c 0
 71.6647156925 141.4375521 70.1166490653 148.55899066 70.1166490653 155.611037666 c 0
 70.1166490653 173.416212316 79.9851622884 190.779034255 96.7837135782 199.056581268 c 0
EndSplineSet
EndChar

StartChar: six
Encoding: 54 54 22
Width: 840
VWidth: 0
Flags: HW
LayerCount: 2
Fore
SplineSet
200.219614753 195.345237549 m 1
 231.766496831 114.591845502 316.240331852 88 382 88 c 0
 529.786959687 88 613.863142831 171.068650808 625.922695137 231.366412337 c 0
 626.898075493 236.294649926 627.368433124 241.20264192 627.369862462 245.871246622 c 0
 627.369862462 292.359641534 570.338290646 356 445 356 c 0
 308.01949696 356 221.771340226 302.048539054 200.219614753 195.345237549 c 1
198.473050588 374.339488912 m 1
 263.239366407 428.567364422 350.702058392 452 445 452 c 0
 594.522591348 452 723.369868125 371.258985035 723.369868125 245.889731564 c 0
 723.366484149 234.838386368 722.275485015 223.740182113 720.086642761 212.68076862 c 0
 696.128844618 92.8917779058 562.215937573 -8 382 -8 c 0
 275.193554619 -8 90.407928207 51.7894520474 90.407928207 277.977709789 c 0
 90.407928207 308.772367138 93.7950061952 341.593369174 100.925333239 377.379538866 c 0
 157.442407228 662.181264655 396.176712906 744 513 744 c 0
 671.204283466 744 731.686204581 660.58775234 739.039135491 648.907962705 c 0
 743.434400288 641.391544236 745.622482527 632.804866047 745.622482527 624.211978938 c 0
 745.622482527 608.420789338 738.232981316 592.608631225 723.572519681 583.379238841 c 0
 715.774086408 578.469789026 707.182785003 576.224722443 698.706539216 576.224722443 c 0
 682.577522813 576.224722443 666.865103772 584.353737159 657.824787498 597.722716102 c 0
 656.12976201 600.026293039 622.223396623 648 513 648 c 0
 431.827955873 648 249.35040247 589.937882802 198.473050588 374.339488912 c 1
EndSplineSet
EndChar

StartChar: seven
Encoding: 55 55 23
Width: 840
VWidth: 0
Flags: HW
LayerCount: 2
Fore
SplineSet
146 688 m 0
 146 714.144471708 167.853633925 736 194 736 c 2
 754 736 l 2
 781.965427995 736 801.899969156 711.59555931 801.899969156 687.115569024 c 0
 801.899969156 684.155456221 801.608494845 681.194238765 801.004500136 678.274931006 c 2
 789.004500136 620.274931006 l 2
 785.704754152 604.326158747 773.034180239 591.16978435 760.776367976 585.822468478 c 0
 753.664290019 582.885273103 413.799449267 439.244309684 339.983326189 70.163694294 c 1
 332.891200835 37.7425498173 l 2
 328.033827225 15.5374133139 307.732311729 0.029223315441 285.727300741 0.029223315441 c 0
 282.421962915 0.029223315441 279.078189855 0.379127906659 275.742549817 1.10879916498 c 0
 253.535913075 5.96650095242 238.029260877 26.2689802676 238.029260877 48.2729421872 c 0
 238.029260877 51.5782463135 238.379156998 54.9219431345 239.108799165 58.2574501827 c 2
 246.005192373 89.7838191314 l 1
 309.917851258 405.89803983 540.430741641 573.791194836 655.79095553 640 c 1
 194 640 l 2
 167.853633925 640 146 661.855528292 146 688 c 0
EndSplineSet
EndChar

StartChar: eight
Encoding: 56 56 24
Width: 840
VWidth: 0
Flags: HW
LayerCount: 2
Fore
SplineSet
516.0201267 427.816675459 m 1
 553.91938912 446.013903765 654.377873076 509.694017487 662.912433983 553.315106565 c 0
 663.582030932 556.663091314 663.822316186 559.323865081 663.822684758 562.08638674 c 0
 663.822684758 591.763030748 608.239818938 648 485 648 c 0
 345.429251159 648 256.479804458 581.091809009 247.036313122 534.429851817 c 0
 246.197634315 530.329644318 245.859835565 526.834731815 245.859835565 523.313252989 c 0
 245.859835565 503.686071169 257.891776139 480.45522477 298.816786086 460.44846706 c 0
 330.72841859 444.848023701 377.766057145 434 436 434 c 0
 464.837440105 434 491.489277634 431.878295529 516.0201267 427.816675459 c 1
318.103279536 351.902609108 m 1
 283.369127047 340.184632844 178.937244434 292.338218746 164.080421361 218.648376302 c 0
 163.277678568 214.545468695 162.862261745 210.250155717 162.862261745 205.820060303 c 0
 162.862261745 164.624216887 198.784609898 111.773328982 293.21772823 93.6031627465 c 0
 311.828365612 90.0222328678 332.451485733 88 355 88 c 0
 520.921875419 88 606.435068708 167.290107529 617.912330952 225.314044427 c 0
 618.871345576 230.169055964 619.41038855 235.183890687 619.41038855 240.283377878 c 0
 619.41038855 269.036193862 602.273532476 300.480218559 546.656163919 321.141023875 c 0
 535.642996424 325.232208255 523.066000626 328.795158636 508.834713172 331.574347328 c 0
 488.108493616 335.621913312 463.877735909 338 436 338 c 0
 393.075809851 338 353.534586853 342.769908974 318.103279536 351.902609108 c 1
633.400567982 384.228476454 m 1
 687.405234185 347.921141328 715.199395338 293.451789957 715.199395338 238.442079088 c 0
 715.199395338 227.834681798 714.165938086 217.207192575 712.087669048 206.685955573 c 0
 687.564931292 82.7098924707 545.078124581 -8 355 -8 c 0
 326.717218424 -8 300.020571207 -5.4667364277 275.078798751 -0.667613411138 c 0
 153.892365042 22.6502403763 66.6381845187 104.992419108 66.6381845187 203.933867224 c 0
 66.6381845187 214.888819946 67.7078567812 226.047267536 69.919578639 237.351623698 c 0
 87.4031173822 324.069975864 154.896172419 376.540993646 206.86486261 406.488827377 c 1
 172.012869152 436.471720675 149.971776159 478.336441603 149.971776159 524.237837014 c 0
 149.971776159 533.87774696 150.943912781 543.695697039 152.97368325 553.619019335 c 0
 177.512065209 674.867494896 328.573516018 744 485 744 c 0
 617.85795563 744 759.822686165 684.865484499 759.822686165 562.096929553 c 0
 759.821472372 553.000205903 758.870374966 543.598938177 757.087566017 534.684893435 c 0
 743.112265321 463.255578766 680.305082819 415.402721649 633.400567982 384.228476454 c 1
EndSplineSet
EndChar

StartChar: nine
Encoding: 57 57 25
Width: 840
VWidth: 0
Flags: HW
LayerCount: 2
Fore
SplineSet
639.780385247 540.654762451 m 1
 608.233503169 621.408154498 523.759668148 648 458 648 c 0
 310.213040313 648 226.136857169 564.931349191 214.077304863 504.633587663 c 0
 213.101924507 499.705350074 212.631566876 494.79735808 212.630137538 490.128753378 c 0
 212.630137538 443.640358466 269.661709354 380 395 380 c 0
 531.98050304 380 618.228659774 433.951460946 639.780385247 540.654762451 c 1
641.526949412 361.660511088 m 1
 576.760633593 307.432635578 489.297941608 284 395 284 c 0
 245.477408652 284 116.630131875 364.741014965 116.630131875 490.110268436 c 0
 116.633515851 501.161613632 117.724514985 512.259817887 119.913357239 523.31923138 c 0
 143.871155382 643.108222094 277.784062427 744 458 744 c 0
 564.806445381 744 749.592071793 684.210547953 749.592071793 458.022290211 c 0
 749.569591232 427.222251273 746.206425171 394.413814663 739.074666761 358.620461134 c 0
 682.557592772 73.8187353451 443.823287094 -8 327 -8 c 0
 168.795716534 -8 108.313795419 75.4122476604 100.960864509 87.0920372954 c 0
 96.5655997121 94.6084557644 94.3775174725 103.195133953 94.3775174725 111.788021062 c 0
 94.3775174725 127.579210662 101.767018684 143.391368775 116.427480319 152.620761159 c 0
 124.225913592 157.530210974 132.817214997 159.775277557 141.293460784 159.775277557 c 0
 157.422477187 159.775277557 173.134896228 151.646262841 182.175212502 138.277283898 c 0
 183.87023799 135.973706961 217.776603377 88 327 88 c 0
 408.172044127 88 590.64959753 146.062117198 641.526949412 361.660511088 c 1
EndSplineSet
EndChar

StartChar: colon
Encoding: 58 58 26
Width: 360
VWidth: 0
Flags: HW
HStem: 48 48<152.382 207.618> 432 48<152.382 207.618>
VStem: 150 60<49.9059 94.0941 433.906 478.094>
LayerCount: 2
Fore
SplineSet
118.773101222 456.836969343 m 0
 129.357686764 503.738925108 173.373675932 528 212 528 c 0
 236.844616817 528 277.218915355 509.45192972 277.218915355 467.021475991 c 0
 277.218915355 463.257809537 276.901248506 459.306235385 276.226898778 455.163030657 c 0
 265.642313236 408.261074892 221.626324068 384 183 384 c 0
 158.155383183 384 117.781084645 402.54807028 117.781084645 444.978524009 c 0
 117.781084645 448.742190463 118.098751494 452.693764615 118.773101222 456.836969343 c 0
42.7972452532 72.9439553278 m 0
 53.3742422665 119.81228513 97.3736759319 144 136 144 c 0
 160.843514777 144 201.209638281 125.41858315 201.209638281 82.9701252723 c 0
 201.209638281 79.2028118075 200.891689821 75.2475068221 200.216723768 71.1005153896 c 0
 189.288041959 23.0768462529 143.805132322 0 106 0 c 0
 78.6757390298 0 41.7958853112 21.3360076351 41.7958853112 61.2774611709 c 0
 41.7958853112 65.0049880122 42.1170908441 68.89455921 42.7972452532 72.9439553278 c 0
EndSplineSet
EndChar

StartChar: semicolon
Encoding: 59 59 27
Width: 370
VWidth: 0
Flags: HW
HStem: 432 48<152.382 207.618>
VStem: 150 60<433.906 478.094>
LayerCount: 2
Fore
SplineSet
42.7972452532 72.9439553278 m 0
 53.3742422665 119.81228513 97.3736759319 144 136 144 c 0
 161.288811572 144 208.933152939 121.585629666 208.933152939 72.1047691111 c 0
 208.933152939 66.5463213791 208.331918441 60.6463156111 207.030218738 54.3981570359 c 0
 194.70386528 -7.23361025336 133.136618116 -82.4452092091 131.182727309 -85.0980489245 c 0
 121.329934512 -97.5972947888 107.081398114 -103.946042838 92.8280155334 -103.946042838 c 0
 82.9053106249 -103.946042838 72.9802570351 -100.869150079 64.5343139528 -94.6484762683 c 0
 51.8963536708 -85.3402642921 45.1747743992 -70.6078235195 45.1747743992 -55.7639630097 c 0
 45.1747743992 -45.8807707968 48.1544712324 -35.9481858705 54.3515237317 -27.5343139528 c 2
 54.3515237317 -27.5343139528 64.6967939802 -13.5415901009 77.613538128 6.34262602437 c 1
 60.8035624567 14.8308315613 41.9276653814 35.2194560845 41.9276653814 62.6611775838 c 0
 41.9276653814 65.987988569 42.2050875418 69.4184600793 42.7972452532 72.9439553278 c 0
118.773101222 456.836969343 m 0
 129.357686764 503.738925108 173.373675932 528 212 528 c 0
 236.844616817 528 277.218915355 509.45192972 277.218915355 467.021475991 c 0
 277.218915355 463.257809537 276.901248506 459.306235385 276.226898778 455.163030657 c 0
 265.642313236 408.261074892 221.626324068 384 183 384 c 0
 158.155383183 384 117.781084645 402.54807028 117.781084645 444.978524009 c 0
 117.781084645 448.742190463 118.098751494 452.693764615 118.773101222 456.836969343 c 0
EndSplineSet
EndChar

StartChar: less
Encoding: 60 60 28
Width: 800
VWidth: 0
Flags: HW
LayerCount: 2
Fore
SplineSet
671.022178625 132.867624582 m 0
 663.236837851 114.954132154 645.219152207 104.097813521 626.604374721 104.097813521 c 0
 620.302611339 104.097813521 613.93241747 105.342016015 607.867624582 107.977821375 c 2
 110.867624582 323.977821375 l 2
 104.784736861 326.621490888 99.5155970475 330.445030623 95.2089611868 335.071171106 c 0
 90.8246455084 339.62745606 87.2952991181 345.10149917 84.9899223536 351.323882038 c 0
 82.8049424766 357.221304577 81.8920049753 363.325147213 82.106770973 369.321302159 c 0
 82.2229297293 375.320174519 83.4710129391 381.364394808 85.9778213754 387.132375418 c 0
 88.622765992 393.218197059 92.448562772 398.489331205 97.0774297295 402.796961374 c 0
 101.63257185 407.178609241 107.10449922 410.70581198 113.323882038 413.010077646 c 2
 696.323882038 629.010077646 l 2
 701.663116947 630.988250443 707.171546084 631.923781404 712.616076545 631.923781404 c 0
 732.172769749 631.923781404 750.905017656 619.853201177 758.010077646 600.676117962 c 0
 759.98818597 595.337057071 760.923716008 589.828651177 760.923716008 584.384055712 c 0
 760.923716008 564.828125614 748.854377865 546.095418304 729.676117962 538.989922354 c 2
 258.58668413 364.452499184 l 1
 646.132375418 196.022178625 l 2
 664.046913486 188.236383408 674.9021158 170.218404747 674.9021158 151.604317269 c 0
 674.9021158 145.302436538 673.657902671 138.932230373 671.022178625 132.867624582 c 0
EndSplineSet
EndChar

StartChar: equal
Encoding: 61 61 29
Width: 800
VWidth: 0
Flags: HW
AnchorPoint: "middle" -73 0 basechar 0
LayerCount: 2
Fore
SplineSet
58 248 m 0
 58 274.144471708 79.8536339246 296 106 296 c 2
 646 296 l 2
 672.144471708 296 694 274.146366075 694 248 c 0
 694 221.853633925 672.144471708 200 646 200 c 2
 106 200 l 2
 79.8536339246 200 58 221.855528292 58 248 c 0
106 488 m 0
 106 514.144471708 127.853633925 536 154 536 c 2
 694 536 l 2
 720.144471708 536 742 514.146366075 742 488 c 0
 742 461.853633925 720.144471708 440 694 440 c 2
 154 440 l 2
 127.853633925 440 106 461.855528292 106 488 c 0
EndSplineSet
EndChar

StartChar: greater
Encoding: 62 62 30
Width: 800
VWidth: 0
Flags: HW
LayerCount: 2
Fore
SplineSet
41.9899223536 135.323882038 m 0
 40.0118140305 140.662942929 39.0762839919 146.171348823 39.0762839919 151.615944288 c 0
 39.0762839919 171.171874386 51.1456221347 189.904581696 70.3238820384 197.010077646 c 2
 541.41331587 371.547500816 l 1
 153.867624582 539.977821375 l 2
 135.953086514 547.763616592 125.0978842 565.781595253 125.0978842 584.395682731 c 0
 125.0978842 590.697563462 126.342097329 597.067769627 128.977821375 603.132375418 c 0
 136.763162149 621.045867846 154.780847793 631.902186479 173.395625279 631.902186479 c 0
 179.697388661 631.902186479 186.06758253 630.657983985 192.132375418 628.022178625 c 2
 689.132375418 412.022178625 l 2
 695.215263139 409.378509112 700.484402952 405.554969377 704.791038813 400.928828894 c 0
 709.175354492 396.37254394 712.704700882 390.89850083 715.010077646 384.676117962 c 0
 717.195057523 378.778695423 718.107995025 372.674852787 717.893229027 366.678697841 c 0
 717.777070271 360.679825481 716.528987061 354.635605192 714.022178625 348.867624582 c 0
 711.377234008 342.781802941 707.551437228 337.510668795 702.92257027 333.203038626 c 0
 698.36742815 328.821390759 692.89550078 325.29418802 686.676117962 322.989922354 c 2
 103.676117962 106.989922354 l 2
 98.3368830534 105.011749557 92.8284539157 104.076218596 87.3839234546 104.076218596 c 0
 67.8272302508 104.076218596 49.0949823443 116.146798823 41.9899223536 135.323882038 c 0
EndSplineSet
EndChar

StartChar: question
Encoding: 63 63 31
Width: 800
VWidth: 0
Flags: HW
HStem: 48 48<352.382 407.618>
VStem: 350 60<49.9059 94.0941>
LayerCount: 2
Fore
SplineSet
242.797245253 72.9439553278 m 0
 253.374242266 119.81228513 297.373675932 144 336 144 c 0
 360.843514777 144 401.209638281 125.41858315 401.209638281 82.9701252723 c 0
 401.209638281 79.2028118075 400.891689821 75.2475068221 400.216723768 71.1005153896 c 0
 389.288041959 23.0768462529 343.805132322 0 306 0 c 0
 278.67573903 0 241.795885311 21.3360076351 241.795885311 61.2774611709 c 0
 241.795885311 65.0049880122 242.117090844 68.89455921 242.797245253 72.9439553278 c 0
163.755794214 488.898570517 m 0
 141.110610051 493.342952455 125.023613957 513.851715799 125.023613957 536.2474041 c 0
 125.023613957 539.224099966 125.307808056 542.234130392 125.898570517 545.244205786 c 0
 153.808469411 687.451785868 302.340175958 744 445 744 c 0
 481.767937758 744 516.026907378 740.96866101 547.276693067 734.609886053 c 0
 630.91645857 717.590683054 708.329294278 666.841927326 708.329294278 581.719728631 c 0
 708.329294278 571.777019 707.273116992 561.365337403 705.047318875 550.483657723 c 0
 686.210997644 456.302051567 612.977934098 414.909590022 529.753575307 379.814980894 c 0
 434.834121909 339.266864879 420.752654832 323.120171674 402.050391732 230.499440131 c 0
 397.500083334 207.964579492 377.04268532 192.024979043 354.746059846 192.024979043 c 0
 351.686370274 192.024979043 348.592045965 192.325139782 345.499440131 192.949608268 c 0
 322.963044068 197.500226703 307.025012669 217.958653206 307.025012669 240.254185243 c 0
 307.025012669 243.313834348 307.32516536 246.408080709 307.949608268 249.500559869 c 0
 331.247345168 364.879828326 381.165878091 420.733135121 492.246424693 468.185019106 c 0
 575.022065902 503.090409978 601.789002356 523.697948433 610.952681125 569.516342277 c 0
 611.790172306 573.610743607 612.274730301 577.649470474 612.274730301 581.610715998 c 0
 612.274730301 605.795374467 594.212883346 627.091924214 528.134670892 640.537663867 c 0
 504.549606772 645.336804462 476.426904649 648 445 648 c 0
 317.659824042 648 234.191530589 598.548214132 220.101429483 526.755794214 c 0
 215.656743897 504.109062891 195.146929963 488.023646248 172.752350694 488.023646248 c 0
 169.77569731 488.023646248 166.765745171 488.307832478 163.755794214 488.898570517 c 0
EndSplineSet
EndChar

StartChar: at
Encoding: 64 64 32
Width: 1100
VWidth: 0
Flags: HW
LayerCount: 2
Fore
SplineSet
709.203611757 86.1441470559 m 0
 711.052975657 80.9659281351 711.928216178 75.6412526368 711.928216178 70.3789605878 c 0
 711.928216178 50.620157784 699.588681702 31.7408649029 680.144147056 24.7963882434 c 0
 618.522284214 2.78858008575 552.145184434 -8 485 -8 c 0
 449.366120006 -8 415.10467269 -4.6549206517 382.613298273 1.76203422946 c 0
 212.321149234 35.3942537528 86.7703936984 158.369415411 86.7703936984 316.130163893 c 0
 86.7703936984 336.024585201 88.7669613762 356.472183414 92.9221503514 377.363550206 c 0
 134.86139329 588.22474387 371.685286369 744 615 744 c 0
 650.633879994 744 684.89532731 740.654920652 717.386701727 734.237965771 c 0
 887.642755176 700.612875024 1013.20718233 577.836951178 1013.20718233 419.857280519 c 0
 1013.20718233 399.897620942 1011.20284659 379.376017751 1007.03107349 358.401269662 c 0
 997.9516638 315.021867813 986.259367155 260.014378946 942.01421673 213.166572614 c 0
 901.815194513 169.989845048 838.11561463 152 787 152 c 0
 772.35828307 152 758.020063088 153.433219921 744.230203125 156.140714228 c 0
 714.278197724 162.021476201 681.254604462 174.234651185 658.065160333 197.625769258 c 1
 614.176854722 163.393143095 560.243478068 142 503 142 c 0
 393.062400434 142 311.335668831 225.934778351 311.335668831 332.577607122 c 0
 311.335668831 347.584615352 312.865747944 362.390160128 315.969405179 377.598080576 c 0
 340.434013971 497.474663658 451.684483516 594 573 594 c 0
 616.282464078 594 655.398436825 581.020957486 686.793974823 558.634593773 c 1
 694.318728269 576.212372632 712.097012247 587.976027661 731.249145739 587.976027661 c 0
 734.247840607 587.976027661 737.280215266 587.687642764 740.312186332 587.088036546 c 0
 762.929725647 582.615164965 778.975995016 562.118907254 778.975995016 539.750609055 c 0
 778.975995016 536.751956149 778.687618037 533.719659699 778.088036546 530.687813668 c 2
 725.851068904 266.546165972 l 1
 732.347102861 260.021118977 757.472448049 248 787 248 c 0
 815.88438537 248 858.184805487 264.010154952 871.98578327 278.833427386 c 0
 895.850835061 304.102305753 903.715261918 333.464333464 912.972686295 377.616237623 c 0
 915.737706945 391.737809654 917.095219943 405.675889105 917.095219943 419.332675575 c 0
 917.095219943 524.61621518 836.414843991 613.18181291 697.960629058 640.219307694 c 0
 672.071034105 645.275056909 644.312626605 648 615 648 c 0
 406.314713631 648 217.13860671 509.77525613 187.077849649 358.636449794 c 0
 184.233062945 344.333494425 182.838017865 330.224622973 182.838017865 316.409494525 c 0
 182.838017865 211.24804272 263.671545807 123.107032508 401.213741307 95.9428365139 c 0
 427.338555847 90.7832592665 455.375521331 88 485 88 c 0
 541.854815566 88 597.477715786 97.2114199142 647.855852944 115.203611757 c 0
 653.034243015 117.053036782 658.358948493 117.928279929 663.621186042 117.928279929 c 0
 683.38077014 117.928279929 702.259565371 105.587476936 709.203611757 86.1441470559 c 0
662.189373139 439.469654174 m 1
 649.776697254 474.356226394 619.10542326 498 573 498 c 0
 502.315516484 498 425.565986029 434.525336342 410.030594821 358.401919424 c 0
 408.171068457 349.29024024 407.335507666 340.858046995 407.335507666 332.51679215 c 0
 407.335507666 276.903688914 444.708104352 238 503 238 c 0
 551.863792985 238 604.450222262 267.653379218 637.186324647 313.039144815 c 1
 662.189373139 439.469654174 l 1
EndSplineSet
EndChar

StartChar: A
Encoding: 65 65 33
Width: 860
VWidth: 0
Flags: HW
AnchorPoint: "above" -73 0 basechar 0
LayerCount: 2
Fore
SplineSet
30.4232797992 7.38188355214 m 0
 16.0777789882 16.4150660941 8.15424458569 32.2626638081 8.15424458569 48.3214547391 c 0
 8.15424458569 57.0286452579 10.4836729221 65.797924163 15.3818835521 73.5767202008 c 2
 418.381883552 713.576720201 l 2
 427.164177986 727.523788285 443.141107581 736 459 736 c 2
 529 736 l 2
 551.716572114 736 571.140287778 718.953324249 575.781840405 698.745203968 c 2
 722.781840405 58.745203968 l 2
 723.583809837 55.2536363711 723.967835896 51.7486996533 723.967835896 48.284557159 c 0
 723.967835896 26.4678753807 708.736198483 6.26921614748 686.745203968 1.21815959493 c 0
 683.253499529 0.416158731559 679.748488225 0.0321240263742 676.284317018 0.0321240263742 c 0
 654.466613465 0.0321240263742 634.268876862 15.265278678 629.218159595 37.254796032 c 2
 604.700120559 144 l 1
 173.173457449 144 l 1
 96.6181164479 22.4232797992 l 2
 87.5844895596 8.0770733266 71.7369393873 0.154306761583 55.6787124971 0.154306761583 c 0
 46.9712516182 0.154306761583 38.2018460002 2.48381764747 30.4232797992 7.38188355214 c 0
233.623457449 240 m 1
 582.650120559 240 l 1
 490.775120559 640 l 1
 485.498457449 640 l 1
 233.623457449 240 l 1
EndSplineSet
EndChar

StartChar: B
Encoding: 66 66 34
Width: 870
VWidth: 0
Flags: HW
AnchorPoint: "above" -73 0 basechar 0
LayerCount: 2
Fore
SplineSet
242.55058733 436 m 1
 504 436 l 2
 529.408173171 436 553.191596742 439.718000097 574.665451051 446.207159274 c 0
 640.090048084 465.977742523 679.486790025 510.186886776 686.932127567 547.413574487 c 0
 687.920855104 552.357212171 688.364341227 556.993087764 688.368123629 561.449134919 c 0
 688.368123629 595.809302489 657.165867207 640 564 640 c 2
 283.35058733 640 l 1
 242.55058733 436 l 1
223.35058733 340 m 1
 174.55058733 96 l 1
 456 96 l 2
 563.498949958 96 631.714229721 171.324085257 642.932127567 227.413574487 c 0
 644.18670933 233.686483303 644.807512259 239.938566275 644.807512259 246.275899016 c 0
 644.807512259 290.593214933 616.069173747 340 524 340 c 0
 522.431737457 340 520.400216385 340.122296266 518.599455545 340.299655728 c 0
 513.765406656 340.109814946 508.664628927 340 504 340 c 2
 223.35058733 340 l 1
675.259763782 386.98778992 m 1
 719.470272215 349.83527462 740.713632031 297.284699488 740.713632031 245.504877494 c 0
 740.713632031 233.079879828 739.490439753 220.699262115 737.067872433 208.586425513 c 0
 716.285770279 104.675914743 608.501050042 0 456 0 c 2
 116 0 l 2
 96.5034119753 0 68.0048366341 19.167019459 68.0048366341 48.2309530245 c 0
 68.0048366341 51.1923453855 68.3007102704 54.2564880042 68.9321275668 57.4135744866 c 2
 138.821698119 406.861427247 l 1
 196.932127567 697.413574487 l 2
 200.702490525 716.265389276 219.866061088 736 244 736 c 2
 564 736 l 2
 687.015201079 736 784.368149096 666.600326311 784.368149096 561.479066012 c 0
 784.35881354 550.484298051 783.257680484 539.535465765 781.067872433 528.586425513 c 0
 769.311507764 469.804602169 728.794330442 420.2504296 675.259763782 386.98778992 c 1
EndSplineSet
EndChar

StartChar: C
Encoding: 67 67 35
Width: 855
VWidth: 0
Flags: HW
AnchorPoint: "bottom" -73 0 basechar 0
AnchorPoint: "above" -73 0 basechar 0
LayerCount: 2
Fore
SplineSet
681.789804197 246.991060147 m 0
 704.199363684 242.322401921 719.973436452 221.92383049 719.973436452 199.738792424 c 0
 719.973436452 196.585340216 719.654726232 193.395793007 718.991060147 190.210195803 c 0
 707.608507365 135.573942448 588.357561991 -8 395 -8 c 0
 373.461342419 -8 352.519748744 -5.96780564413 332.383259909 -2.00836176794 c 0
 187.896568742 26.4020999174 95.3662868376 151.310461277 95.3662868376 301.938563256 c 0
 95.3662868376 326.498716235 97.8262806407 351.742649716 102.922150351 377.363550206 c 0
 143.095543086 579.346441456 327.635795915 744 525 744 c 0
 724.816128135 744 770.067156788 597.232034415 772.643351436 587.358473391 c 0
 773.496500423 583.58763835 773.904373447 579.843652842 773.904373447 576.17721413 c 0
 773.904373447 554.242453828 759.306086043 535.083190651 738.118378645 529.554925998 c 0
 733.961961932 528.47044002 729.779416802 527.939406745 725.65745885 527.939406745 c 0
 705.243744847 527.939406745 686.316026947 540.963835146 679.407318256 564.289489322 c 0
 678.96072359 565.739734612 657.090424895 648 525 648 c 0
 380.364204085 648 228.904456914 518.653558544 197.077849649 358.636449794 c 0
 193.002620404 338.147102761 191.0605144 318.405442233 191.0605144 299.564244801 c 0
 191.0605144 189.850159934 256.914293102 110.669371025 350.905105048 92.1879293088 c 0
 364.786356686 89.4584546105 379.491205912 88 395 88 c 0
 526.059470758 88 613.110783404 188.837692169 625.935604361 213.521212468 c 1
 632.110029997 233.231918977 650.990495992 247.974877963 672.287912989 247.974877963 c 0
 675.413983234 247.974877963 678.59212634 247.657243034 681.789804197 246.991060147 c 0
EndSplineSet
EndChar

StartChar: D
Encoding: 68 68 36
Width: 870
VWidth: 0
Flags: HW
HStem: 48 21G<180 480> 668 20G<180 480>
VStem: 180 540<226.215 509.777>
AnchorPoint: "above" -73 0 basechar 0
LayerCount: 2
Fore
SplineSet
68.9321275668 57.4135744866 m 2
 196.932127567 697.413574487 l 2
 201.665182392 721.078848612 224.774845704 736 244 736 c 2
 504 736 l 2
 518.806600413 736 535.038839915 734.393427069 552.444488804 730.936453238 c 0
 645.271640393 712.49985051 776.471878295 632.655288626 776.471878295 448.513182138 c 0
 776.471878295 420.93651623 773.529409106 391.020736335 767.074931705 358.621790949 c 0
 710.513886097 74.7075228005 473.253238672 0 376 0 c 2
 116 0 l 2
 87.7902425896 0 68.1100135881 24.7883102522 68.1100135881 48.9995097171 c 0
 68.1100135881 51.8255064476 68.3781407717 54.643640511 68.9321275668 57.4135744866 c 2
174.55058733 96 m 1
 376 96 l 2
 438.746761328 96 627.486113903 149.2924772 672.925068295 377.378209051 c 0
 678.446006015 405.091151332 680.932377222 429.923171949 680.932377222 452.170142987 c 0
 680.932377222 583.517985484 594.2621219 624.755828947 533.743008954 636.775661762 c 0
 522.138195834 639.080518968 511.670294226 640 504 640 c 2
 283.35058733 640 l 1
 174.55058733 96 l 1
EndSplineSet
EndChar

StartChar: E
Encoding: 69 69 37
Width: 870
VWidth: 0
Flags: HW
AnchorPoint: "bottom" -73 0 basechar 0
AnchorPoint: "above" -73 0 basechar 0
LayerCount: 2
Fore
SplineSet
812 688 m 0
 812 661.855528292 790.146366075 640 764 640 c 2
 283.35058733 640 l 1
 242.55058733 436 l 1
 544 436 l 2
 570.144471708 436 592 414.146366075 592 388 c 0
 592 361.853633925 570.144471708 340 544 340 c 2
 223.35058733 340 l 1
 174.55058733 96 l 1
 656 96 l 2
 682.144471708 96 704 74.1463660754 704 48 c 0
 704 21.8536339246 682.144471708 0 656 0 c 2
 116 0 l 2
 96.5034119753 0 68.0048366341 19.167019459 68.0048366341 48.2309530245 c 0
 68.0048366341 51.1923453855 68.3007102704 54.2564880042 68.9321275668 57.4135744866 c 2
 196.932127567 697.413574487 l 2
 200.702490525 716.265389276 219.866061088 736 244 736 c 2
 764 736 l 2
 790.146366075 736 812 714.144471708 812 688 c 0
EndSplineSet
EndChar

StartChar: F
Encoding: 70 70 38
Width: 830
VWidth: 0
Flags: HW
AnchorPoint: "above" -73 0 basechar 0
LayerCount: 2
Fore
SplineSet
106.586425513 0.932127566836 m 0
 84.0140532212 5.44660202528 68.0245116922 25.9215106285 68.0245116922 48.2517320898 c 0
 68.0245116922 51.2832494966 68.319204871 54.3489610072 68.9321275668 57.4135744866 c 2
 196.932127567 697.413574487 l 2
 201.665182392 721.078848612 224.774845704 736 244 736 c 2
 744 736 l 2
 770.144471708 736 792 714.146366075 792 688 c 0
 792 661.853633925 770.144471708 640 744 640 c 2
 283.35058733 640 l 1
 242.55058733 436 l 1
 554 436 l 2
 580.144471708 436 602 414.146366075 602 388 c 0
 602 361.853633925 580.144471708 340 554 340 c 2
 223.35058733 340 l 1
 163.067872433 38.5864255134 l 2
 158.553090091 16.0125138044 138.077145511 0.0245448649932 115.748022746 0.0245448649932 c 0
 112.716546506 0.0245448649932 109.650913072 0.319230055154 106.586425513 0.932127566836 c 0
EndSplineSet
EndChar

StartChar: G
Encoding: 71 71 39
Width: 840
VWidth: 0
Flags: HW
AnchorPoint: "above" -73 0 basechar 0
LayerCount: 2
Fore
SplineSet
738.118378645 529.554925998 m 0
 734.042530644 528.491461886 729.984658706 527.983681912 726.010262566 527.983681912 c 0
 704.734333157 527.983681912 685.850591989 542.535268441 679.407318256 564.289489322 c 0
 678.760889213 566.38866503 656.606022207 648 525 648 c 0
 380.365045976 648 228.904827795 518.65542325 197.077849649 358.636449794 c 0
 193.084321572 338.557878074 191.21658715 319.303769825 191.21658715 300.749889087 c 0
 191.21658715 175.605550453 274.098535358 88 395 88 c 0
 505.197869597 88 579.269915544 151.264849417 602.547963231 174.630924814 c 1
 626.568926029 296 l 1
 475 296 l 2
 448.855528292 296 427 317.853633925 427 344 c 0
 427 370.146366075 448.855528292 392 475 392 c 2
 685 392 l 2
 704.351205565 392 732.995355108 372.908823567 732.995355108 343.772132436 c 0
 732.995355108 340.840316282 732.705334446 337.806789766 732.086642761 334.68076862 c 2
 694.086642761 142.68076862 l 2
 692.613826814 135.239172258 689.075178711 127.582400396 684.04667491 121.478796254 c 0
 681.110742072 117.915157339 578.335854503 -8 395 -8 c 0
 219.183440742 -8 95.2166015738 128.306964131 95.2166015738 300.773645573 c 0
 95.2166015738 325.817311636 97.7455060325 351.336532936 102.922150351 377.363550206 c 0
 143.095172205 579.34457675 327.634954024 744 525 744 c 0
 724.096663304 744 769.751912778 598.440243186 772.643351436 587.358473391 c 0
 773.426138039 583.8986332 773.806056881 580.380017594 773.806056881 576.870830478 c 0
 773.806056881 555.937122399 760.286261844 535.338936642 738.118378645 529.554925998 c 0
EndSplineSet
EndChar

StartChar: H
Encoding: 72 72 40
Width: 890
VWidth: 0
Flags: HW
AnchorPoint: "above" -73 0 basechar 0
LayerCount: 2
Fore
SplineSet
783.413574487 735.067872433 m 0
 805.985946779 730.553397975 821.975488308 710.078489371 821.975488308 687.74826791 c 0
 821.975488308 684.716750503 821.680795129 681.651038993 821.067872433 678.586425513 c 2
 693.067872433 38.5864255134 l 2
 688.553397975 16.0140532212 668.078489371 0.0245116921936 645.74826791 0.0245116921936 c 0
 642.716750503 0.0245116921936 639.651038993 0.319204870956 636.586425513 0.932127566836 c 0
 614.012513804 5.44690990864 598.024544865 25.9228544887 598.024544865 48.2519772538 c 0
 598.024544865 51.2834534937 598.319230055 54.3490869282 598.932127567 57.4135744866 c 2
 655.44941267 340 l 1
 223.35058733 340 l 1
 163.067872433 38.5864255134 l 2
 158.553090091 16.0125138044 138.077145511 0.0245448649932 115.748022746 0.0245448649932 c 0
 112.716546506 0.0245448649932 109.650913072 0.319230055154 106.586425513 0.932127566836 c 0
 84.0140532212 5.44660202528 68.0245116922 25.9215106285 68.0245116922 48.2517320898 c 0
 68.0245116922 51.2832494966 68.319204871 54.3489610072 68.9321275668 57.4135744866 c 2
 196.932127567 697.413574487 l 2
 201.446602025 719.985946779 221.921510629 735.975488308 244.25173209 735.975488308 c 0
 247.283249497 735.975488308 250.348961007 735.680795129 253.413574487 735.067872433 c 0
 275.987486196 730.553090091 291.975455135 710.077145511 291.975455135 687.748022746 c 0
 291.975455135 684.716546506 291.680769945 681.650913072 291.067872433 678.586425513 c 2
 242.55058733 436 l 1
 674.64941267 436 l 1
 726.932127567 697.413574487 l 2
 731.446909909 719.987486196 751.922854489 735.975455135 774.251977254 735.975455135 c 0
 777.283453494 735.975455135 780.349086928 735.680769945 783.413574487 735.067872433 c 0
EndSplineSet
EndChar

StartChar: I
Encoding: 73 73 41
Width: 420
VWidth: 0
Flags: HW
AnchorPoint: "above" -73 0 basechar 0
LayerCount: 2
Fore
SplineSet
283.413574487 735.067872433 m 0
 305.985946779 730.553397975 321.975488308 710.078489371 321.975488308 687.74826791 c 0
 321.975488308 684.716750503 321.680795129 681.651038993 321.067872433 678.586425513 c 2
 193.067872433 38.5864255134 l 2
 188.553397975 16.0140532212 168.078489371 0.0245116921936 145.74826791 0.0245116921936 c 0
 142.716750503 0.0245116921936 139.651038993 0.319204870956 136.586425513 0.932127566836 c 0
 114.012513804 5.44690990864 98.024544865 25.9228544887 98.024544865 48.2519772538 c 0
 98.024544865 51.2834534937 98.3192300552 54.3490869282 98.9321275668 57.4135744866 c 2
 226.932127567 697.413574487 l 2
 231.446909909 719.987486196 251.922854489 735.975455135 274.251977254 735.975455135 c 0
 277.283453494 735.975455135 280.349086928 735.680769945 283.413574487 735.067872433 c 0
EndSplineSet
EndChar

StartChar: J
Encoding: 74 74 42
Width: 680
VWidth: 0
Flags: HW
AnchorPoint: "above" -73 0 basechar 0
LayerCount: 2
Fore
SplineSet
110.845849682 327.177864973 m 0
 133.661102782 322.900005017 149.97843327 302.312868668 149.97843327 279.762917279 c 0
 149.97843327 276.915002209 149.718170554 274.035780083 149.177864973 271.154150318 c 2
 137.142130302 206.963565409 l 2
 135.509671014 198.629431144 134.854525307 191.570586798 134.854525307 184.26979528 c 0
 134.854525307 131.026815163 174.209608183 88 245 88 c 0
 323.764100952 88 410.161274212 160.559307711 427.926064726 249.383260283 c 2
 516.920040938 697.352938296 l 2
 521.409469995 719.95141265 541.896535503 735.975811571 564.25018692 735.975811571 c 0
 567.262072654 735.975811571 570.30784499 735.684899473 573.352938296 735.079959062 c 0
 595.952954844 730.590223631 611.975778714 710.10211692 611.975778714 687.749567885 c 0
 611.975778714 684.737723796 611.684874562 681.692029618 611.079959062 678.647061704 c 2
 522.079959062 230.647061704 l 2
 495.833581531 99.4151740514 376.237748089 -8 245 -8 c 0
 129.236076725 -8 38.8545275132 73.6636502209 38.8545275132 184.271874032 c 0
 38.8545275132 197.712424295 40.244301954 211.693483479 42.8578696975 225.036434591 c 2
 54.8221350272 288.845849682 l 2
 59.1002884602 311.662667992 79.6885099326 327.97840305 102.237327474 327.97840305 c 0
 105.085197218 327.97840305 107.964340774 327.718147893 110.845849682 327.177864973 c 0
EndSplineSet
EndChar

StartChar: K
Encoding: 75 75 43
Width: 840
VWidth: 0
Flags: HW
AnchorPoint: "above" -73 0 basechar 0
LayerCount: 2
Fore
SplineSet
683.167272195 8.42804880339 m 0
 675.025801252 2.83869699075 665.624072214 0.166224551849 656.278219933 0.166224551849 c 0
 640.881654578 0.166224551849 625.636738751 7.41931527832 616.428048803 20.8327278054 c 2
 377.88013673 368.302516713 l 1
 205.665848225 251.576304471 l 1
 163.067872433 38.5864255134 l 2
 158.553397975 16.0140532212 138.078489371 0.0245116921935 115.74826791 0.0245116921935 c 0
 112.716750503 0.0245116921935 109.651038993 0.319204870956 106.586425513 0.932127566836 c 0
 84.0125138044 5.44690990864 68.024544865 25.9228544887 68.024544865 48.2519772538 c 0
 68.024544865 51.2834534937 68.3192300552 54.3490869282 68.9321275668 57.4135744866 c 2
 196.932127567 697.413574487 l 2
 201.446909909 719.987486196 221.922854489 735.975455135 244.251977254 735.975455135 c 0
 247.283453494 735.975455135 250.349086928 735.680769945 253.413574487 735.067872433 c 0
 275.985946779 730.553397975 291.975488308 710.078489371 291.975488308 687.74826791 c 0
 291.975488308 684.716750503 291.680795129 681.651038993 291.067872433 678.586425513 c 2
 232.497928565 385.736706175 l 1
 737.069023067 727.733140845 l 2
 745.158751548 733.216329098 754.465184183 735.835510152 763.714561772 735.835510152 c 0
 779.210987708 735.835510152 794.547261734 728.48354242 803.733140845 714.930976933 c 0
 809.216164909 706.841490691 811.835454365 697.534907156 811.835454365 688.285227143 c 0
 811.835454365 672.789346496 804.484180501 657.453170755 790.930976933 648.266859155 c 2
 457.347829412 422.165426945 l 1
 695.571951197 75.1672721946 l 2
 701.161470914 67.0255566822 703.833829956 57.6239826278 703.833829956 48.2784382796 c 0
 703.833829956 32.8813307719 696.580058204 17.6363086287 683.167272195 8.42804880339 c 0
EndSplineSet
EndChar

StartChar: L
Encoding: 76 76 44
Width: 820
VWidth: 0
Flags: HW
AnchorPoint: "above" -73 0 basechar 0
LayerCount: 2
Fore
SplineSet
253.413574487 735.067872433 m 0
 275.985946779 730.553397975 291.975488308 710.078489371 291.975488308 687.74826791 c 0
 291.975488308 684.716750503 291.680795129 681.651038993 291.067872433 678.586425513 c 2
 174.55058733 96 l 1
 636 96 l 2
 662.144471708 96 684 74.1463660754 684 48 c 0
 684 21.8536339246 662.144471708 0 636 0 c 2
 116 0 l 2
 96.5034119753 0 68.0048366341 19.167019459 68.0048366341 48.2309530245 c 0
 68.0048366341 51.1923453855 68.3007102704 54.2564880042 68.9321275668 57.4135744866 c 2
 196.932127567 697.413574487 l 2
 201.446909909 719.987486196 221.922854489 735.975455135 244.251977254 735.975455135 c 0
 247.283453494 735.975455135 250.349086928 735.680769945 253.413574487 735.067872433 c 0
EndSplineSet
EndChar

StartChar: M
Encoding: 77 77 45
Width: 1037
VWidth: 0
Flags: HW
AnchorPoint: "above" -73 0 basechar 0
LayerCount: 2
Fore
SplineSet
106.586425513 0.932127566836 m 0
 84.0140532212 5.44660202528 68.0245116922 25.9215106285 68.0245116922 48.2517320898 c 0
 68.0245116922 51.2832494966 68.319204871 54.3489610072 68.9321275668 57.4135744866 c 2
 196.932127567 697.413574487 l 2
 201.665182392 721.078848612 224.774845704 736 244 736 c 2
 268 736 l 1
 294 736 l 2
 316.755413998 736 335.79053723 718.511899122 340.532423873 699.778519793 c 2
 475.671037836 165.897575742 l 1
 833.812189188 714.247663937 l 2
 842.732852871 727.906096369 858.830165995 736 874 736 c 2
 908 736 l 1
 924 736 l 2
 952.20975741 736 971.889986412 711.211689748 971.889986412 687.000490283 c 0
 971.889986412 684.174493552 971.621859228 681.356359489 971.067872433 678.586425513 c 2
 843.067872433 38.5864255134 l 2
 838.553397975 16.0140532212 818.078489371 0.0245116921936 795.74826791 0.0245116921936 c 0
 792.716750503 0.0245116921936 789.651038993 0.319204870956 786.586425513 0.932127566836 c 0
 764.012513804 5.44690990864 748.024544865 25.9228544887 748.024544865 48.2519772538 c 0
 748.024544865 51.2834534937 748.319230055 54.3490869282 748.932127567 57.4135744866 c 2
 850.207965541 563.792764356 l 1
 496.187810812 21.7523360634 l 2
 491.740368899 14.9428556222 481.734015731 6.03626750775 471.393010766 2.53512103231 c 0
 466.439139936 0.857892614303 461.381531848 0.0658474653481 456.391401758 0.0658474653481 c 0
 435.05630067 0.0658474653481 414.954667502 14.5440821813 409.467576127 36.2214802072 c 2
 271.559382243 581.043974563 l 1
 163.067872433 38.5864255134 l 2
 158.553090091 16.0125138044 138.077145511 0.0245448649932 115.748022746 0.0245448649932 c 0
 112.716546506 0.0245448649932 109.650913072 0.319230055154 106.586425513 0.932127566836 c 0
EndSplineSet
EndChar

StartChar: N
Encoding: 78 78 46
Width: 900
VWidth: 0
Flags: HW
AnchorPoint: "above" -73 0 basechar 0
LayerCount: 2
Fore
SplineSet
106.586425513 0.932127566836 m 0
 84.0140532212 5.44660202528 68.0245116922 25.9215106285 68.0245116922 48.2517320898 c 0
 68.0245116922 51.2832494966 68.319204871 54.3489610072 68.9321275668 57.4135744866 c 2
 196.932127567 697.413574487 l 2
 201.665182392 721.078848612 224.774845704 736 244 736 c 2
 263 736 l 1
 294 736 l 2
 312.245076251 736 329.190672963 724.854078075 336.878772873 709.573382602 c 2
 624.879376993 137.149821618 l 1
 736.932127567 697.413574487 l 2
 741.446602025 719.985946779 761.921510629 735.975488308 784.25173209 735.975488308 c 0
 787.283249497 735.975488308 790.348961007 735.680795129 793.413574487 735.067872433 c 0
 815.987486196 730.553090091 831.975455135 710.077145511 831.975455135 687.748022746 c 0
 831.975455135 684.716546506 831.680769945 681.650913072 831.067872433 678.586425513 c 2
 703.067872433 38.5864255134 l 2
 699.297509475 19.7346107236 680.133938912 0 656 0 c 2
 641 0 l 1
 616 0 l 2
 598.894254347 0 581.321394014 10.1281490517 573.121227127 26.4266173982 c 2
 277.965067451 613.072400604 l 1
 163.067872433 38.5864255134 l 2
 158.553090091 16.0125138044 138.077145511 0.0245448649932 115.748022746 0.0245448649932 c 0
 112.716546506 0.0245448649932 109.650913072 0.319230055154 106.586425513 0.932127566836 c 0
EndSplineSet
EndChar

StartChar: O
Encoding: 79 79 47
Width: 920
VWidth: 0
Flags: HW
HStem: 40 656<353.411 566.589>
VStem: 150 620<233.016 502.984>
AnchorPoint: "middle" -73 0 basechar 0
AnchorPoint: "above" -73 0 basechar 0
LayerCount: 2
Fore
SplineSet
817.077849649 358.636449794 m 0
 776.904456914 156.653558544 592.364204085 -8 395 -8 c 0
 373.05976408 -8 351.752031868 -5.9124977753 331.289147323 -1.84361199293 c 0
 186.83701983 26.8795724881 95.3309682012 151.535838523 95.3309682012 301.602151767 c 0
 95.3309682012 326.273612363 97.804247217 351.631870558 102.922150351 377.363550206 c 0
 143.095543086 579.346441456 327.635795915 744 525 744 c 0
 546.94023592 744 568.247968132 741.912497775 588.710852677 737.843611993 c 0
 733.16298017 709.120427512 824.669031799 584.464161477 824.669031799 434.397848233 c 0
 824.669031799 409.726387637 822.195752783 384.368129442 817.077849649 358.636449794 c 0
722.922150351 377.363550206 m 0
 727.030615529 398.020000128 728.989961911 417.910228692 728.989961911 436.880163218 c 0
 728.989961911 546.243417273 663.868760626 625.019607284 569.988533531 643.686961852 c 0
 555.861671757 646.495978679 540.85976408 648 525 648 c 0
 380.364204085 648 228.904456914 518.653558544 197.077849649 358.636449794 c 0
 192.969384471 337.979999872 191.010038089 318.089771308 191.010038089 299.119836782 c 0
 191.010038089 189.756582727 256.131239374 110.980392716 350.011466469 92.3130381483 c 0
 364.138328243 89.504021321 379.14023592 88 395 88 c 0
 539.635795915 88 691.095543086 217.346441456 722.922150351 377.363550206 c 0
EndSplineSet
EndChar

StartChar: P
Encoding: 80 80 48
Width: 850
VWidth: 0
Flags: HW
AnchorPoint: "above" -73 0 basechar 0
LayerCount: 2
Fore
SplineSet
235.35058733 400 m 1
 477 400 l 2
 585.277478508 400 667.129172004 448.963634755 682.900056615 529.251774593 c 0
 684.702453119 538.427611342 685.610085147 546.936277643 685.610085147 554.817168414 c 0
 685.610085147 599.154870768 656.882073834 623.622469412 597.134711212 635.235063595 c 0
 581.178446217 638.336349107 563.264443149 640 544 640 c 2
 283.35058733 640 l 1
 235.35058733 400 l 1
216.15058733 304 m 1
 163.067872433 38.5864255134 l 2
 158.553090091 16.0125138044 138.077145511 0.0245448649932 115.748022746 0.0245448649932 c 0
 112.716546506 0.0245448649932 109.650913072 0.319230055154 106.586425513 0.932127566836 c 0
 84.0140532212 5.44660202528 68.0245116922 25.9215106285 68.0245116922 48.2517320898 c 0
 68.0245116922 51.2832494966 68.319204871 54.3489610072 68.9321275668 57.4135744866 c 2
 131.557894438 370.542408842 l 1
 196.932127567 697.413574487 l 2
 201.665182392 721.078848612 224.774845704 736 244 736 c 2
 544 736 l 2
 568.735556851 736 592.670442672 733.899206448 615.450677677 729.471603071 c 0
 705.647908126 711.940723252 781.250370544 650.104088203 781.250370544 551.842896842 c 0
 781.250370544 538.782040662 779.914651295 525.077647493 777.099943385 510.748225407 c 0
 748.870827996 367.036365245 608.722521492 304 477 304 c 2
 216.15058733 304 l 1
EndSplineSet
EndChar

StartChar: Q
Encoding: 81 81 49
Width: 920
VWidth: 0
Flags: HW
HStem: 40 656<353.411 566.589>
VStem: 150 620<233.016 502.984>
AnchorPoint: "above" -73 0 basechar 0
LayerCount: 2
Fore
SplineSet
443.596064956 190.49630266 m 0
 451.71267212 207.684411948 469.306785436 217.889865665 487.393070725 217.889865665 c 0
 494.183270054 217.889865665 501.042841217 216.451402947 507.49630266 213.403935044 c 0
 547.883346899 194.332275264 568.265222582 174.088877691 578.922026259 154.577413809 c 1
 649.660974968 207.620494742 705.08340594 287.67430747 722.922150351 377.363550206 c 0
 727.030615529 398.020000128 728.989961911 417.910228692 728.989961911 436.880163218 c 0
 728.989961911 546.243417273 663.868760626 625.019607284 569.988533531 643.686961852 c 0
 555.861671757 646.495978679 540.85976408 648 525 648 c 0
 380.364204085 648 228.904456914 518.653558544 197.077849649 358.636449794 c 0
 192.969384471 337.979999872 191.010038089 318.089771308 191.010038089 299.119836782 c 0
 191.010038089 189.756582727 256.131239374 110.980392716 350.011466469 92.3130381483 c 0
 364.138328243 89.504021321 379.14023592 88 395 88 c 0
 420.553895887 88 446.32080108 92.0375428778 471.603307168 99.5684336475 c 1
 467.41536669 115.782431069 466.50369734 126.596064956 466.50369734 126.596064956 c 1
 449.31461558 134.713131343 439.110206092 152.307453213 439.110206092 170.393082114 c 0
 439.110206092 177.183430003 440.548688971 184.043035868 443.596064956 190.49630266 c 0
611.904657398 59.3463213375 m 1
 619.402790429 55.19248522 629.912645095 52.2481384718 644.776178513 50.7617851301 c 0
 669.231615191 48.3162414623 687.994000981 27.0312858963 687.994000981 2.87527801478 c 0
 687.994000981 -24.7317241883 665.01709621 -44.9939901258 639.875086072 -44.9939901258 c 0
 638.334945137 -44.9939901258 636.783143431 -44.9177173245 635.223821487 -44.7617851301 c 0
 579.269107354 -39.1663137168 541.739076626 -15.4319020167 516.618459807 12.6707253082 c 1
 477.462559776 -0.714756284774 436.514983475 -8 395 -8 c 0
 373.05976408 -8 351.752031868 -5.9124977753 331.289147323 -1.84361199293 c 0
 186.83701983 26.8795724881 95.3309682012 151.535838523 95.3309682012 301.602151767 c 0
 95.3309682012 326.273612363 97.804247217 351.631870558 102.922150351 377.363550206 c 0
 143.095543086 579.346441456 327.635795915 744 525 744 c 0
 546.94023592 744 568.247968132 741.912497775 588.710852677 737.843611993 c 0
 733.16298017 709.120427512 824.669031799 584.464161477 824.669031799 434.397848233 c 0
 824.669031799 409.726387637 822.195752783 384.368129442 817.077849649 358.636449794 c 0
 792.543529941 235.283342376 714.165059599 125.852863821 611.904657398 59.3463213375 c 1
EndSplineSet
EndChar

StartChar: R
Encoding: 82 82 50
Width: 880
VWidth: 0
Flags: HW
AnchorPoint: "above" -73 0 basechar 0
LayerCount: 2
Fore
SplineSet
241.75058733 432 m 1
 513 432 l 2
 626.794222147 432 700.713325306 467.93750611 715.900056615 545.251774593 c 0
 717.736088346 554.598845224 718.689342831 562.966382097 718.689342831 570.479994884 c 0
 718.689342831 607.286566162 695.814297567 623.601702669 641.779473734 634.191060398 c 0
 622.156737193 638.03658375 599.090733974 640 574 640 c 2
 283.35058733 640 l 1
 241.75058733 432 l 1
222.55058733 336 m 1
 163.067872433 38.5864255134 l 2
 158.553090091 16.0125138044 138.077145511 0.0245448649932 115.748022746 0.0245448649932 c 0
 112.716546506 0.0245448649932 109.650913072 0.319230055154 106.586425513 0.932127566836 c 0
 84.0140532212 5.44660202528 68.0245116922 25.9215106285 68.0245116922 48.2517320898 c 0
 68.0245116922 51.2832494966 68.319204871 54.3489610072 68.9321275668 57.4135744866 c 2
 137.840103027 401.953451787 l 1
 196.932127567 697.413574487 l 2
 201.665182392 721.078848612 224.774845704 736 244 736 c 2
 574 736 l 2
 603.980087556 736 632.931049404 733.751200439 660.241682345 728.399058218 c 0
 741.896737239 712.396885446 814.096038946 659.086749065 814.096038946 566.064303118 c 0
 814.096038946 553.666273084 812.813522756 540.562811298 810.099943385 526.748225407 c 0
 787.976657585 414.120588606 699.077432179 361.993584068 601.859913102 343.859155406 c 1
 696.482199752 63.3417569312 l 2
 698.146376546 58.4081354612 698.934903723 53.3588017656 698.934903723 48.3694990266 c 0
 698.934903723 28.3043102778 686.18157801 9.21003840326 666.341756931 2.51780024819 c 0
 661.408302192 0.853679694309 656.359007916 0.065157251935 651.369665855 0.065157251935 c 0
 631.305287555 0.065157251935 612.210458969 12.8171751785 605.517800248 32.6582430688 c 2
 503.196550895 336 l 1
 222.55058733 336 l 1
EndSplineSet
EndChar

StartChar: S
Encoding: 83 83 51
Width: 840
VWidth: 0
Flags: HW
AnchorPoint: "bottom" -73 0 basechar 0
AnchorPoint: "above" -73 0 basechar 0
LayerCount: 2
Fore
SplineSet
721.288519704 529.11560641 m 0
 717.917250627 528.37580014 714.568412881 528.023980802 711.279223564 528.023980802 c 0
 689.075308852 528.023980802 669.589587655 544.056474087 664.270980486 564.995394355 c 0
 663.703098816 566.939197673 645.821634958 648 485 648 c 0
 351.272543129 648 263.613718773 592.92283689 252.077304863 534.633587663 c 0
 251.73775908 532.935858746 251.503023525 531.473775929 251.314842956 529.929829224 c 0
 251.098883341 528.157966496 250.890076734 526.00117061 250.890076734 523.529815776 c 0
 250.890076734 501.280346604 267.814478792 453.534930836 448.813064899 431.646729726 c 0
 465.8564546 429.549081762 481.685351503 427.0936329 496.723669522 424.244149434 c 0
 646.59852496 395.845632925 710.191867365 320.649342212 710.191867365 238.583955629 c 0
 710.191867365 228.085083643 709.151044335 217.47378616 707.116904153 206.833668283 c 0
 681.502388806 77.4129591636 536.630670627 -8 355 -8 c 0
 129.088957545 -8 68.4439378691 141.552728274 64.4900106727 152.720668348 c 0
 62.871519811 157.816275583 62.1058602346 162.933055596 62.1058602346 167.929012889 c 0
 62.1058602346 188.158834667 74.6598681412 206.407607106 93.9803229863 213.247872308 c 0
 99.3572090444 215.151519343 104.863604017 216.085016529 110.292104626 216.085016529 c 0
 129.197618545 216.085016529 147.158368697 204.762832585 155.413602652 183.666679941 c 0
 155.944858591 182.352827134 190.888689687 88 355 88 c 0
 512.988315086 88 600.0417788 161.871616005 612.880316244 225.15073501 c 0
 613.928753461 230.751726551 614.868741391 236.867272615 614.868741391 243.287357667 c 0
 614.868741391 272.547777588 595.34325673 308.13409933 477.569265926 330.16383455 c 0
 465.171914885 332.482770667 451.609406457 334.578196877 437.186935101 336.353270274 c 0
 240.8750841 360.09330807 154.889054902 432.679444551 154.889054902 523.264486899 c 0
 154.889054902 529.281467286 155.268432867 535.377860438 156.020055616 541.544626073 c 0
 156.513115018 545.589982303 157.159029819 549.548085747 157.932127567 553.413574487 c 0
 184.37862922 687.038003892 338.730053692 744 485 744 c 0
 710.043519611 744 754.580525913 601.344136009 758.052734106 585.521415131 c 0
 758.582757895 582.66223457 758.840717393 579.774199093 758.840717393 576.894355654 c 0
 758.840717393 555.304271701 744.34223891 534.174617014 721.288519704 529.11560641 c 0
EndSplineSet
EndChar

StartChar: T
Encoding: 84 84 52
Width: 860
VWidth: 0
Flags: HW
AnchorPoint: "bottom" -73 0 basechar 0
AnchorPoint: "above" -73 0 basechar 0
LayerCount: 2
Fore
SplineSet
136 688 m 0
 136 714.144471708 157.853633925 736 184 736 c 2
 804 736 l 2
 830.144471708 736 852 714.146366075 852 688 c 0
 852 661.853633925 830.144471708 640 804 640 c 2
 532.785014644 640 l 1
 413.076367114 38.6289990227 l 2
 408.579471704 16.0382960935 388.096023318 0.0242845079472 365.749352288 0.0242845079472 c 0
 362.731619122 0.0242845079472 359.679907725 0.316320338289 356.628999023 0.923632885668 c 0
 334.036754726 5.42083512021 318.024317459 25.9053231521 318.024317459 48.2508928992 c 0
 318.024317459 51.2685845623 318.31634533 54.3202178248 318.923632886 57.3710009773 c 2
 434.901505732 640 l 1
 184 640 l 2
 157.853633925 640 136 661.855528292 136 688 c 0
EndSplineSet
EndChar

StartChar: U
Encoding: 85 85 53
Width: 890
VWidth: 0
Flags: HW
AnchorPoint: "above" -73 0 basechar 0
LayerCount: 2
Fore
SplineSet
783.375211249 735.075528824 m 0
 805.964102229 730.576893756 821.97569307 710.094289012 821.97569307 687.749244943 c 0
 821.97569307 684.730148716 821.68339499 681.677052904 821.075528824 678.624788751 c 2
 727.090309969 206.699008972 l 2
 701.092345036 73.9725564166 537.314016016 -8 380 -8 c 0
 352.433125929 -8 325.990848882 -5.48718554793 301.02933591 -0.671514854198 c 0
 193.919229225 19.9925771965 99.5896879019 90.6853022885 99.5896879019 191.890970417 c 0
 99.5896879019 202.688244945 100.663346825 213.832817818 102.909690031 225.300991028 c 2
 196.924471176 697.375211249 l 2
 201.423106244 719.964102229 221.905710988 735.97569307 244.250755057 735.97569307 c 0
 247.269851284 735.97569307 250.322947096 735.68339499 253.375211249 735.075528824 c 0
 275.965643403 730.576586827 291.975660097 710.0929428 291.975660097 687.748999757 c 0
 291.975660097 684.729945 291.683369979 681.676927317 291.075528824 678.624788751 c 2
 197.090309969 206.699008972 l 2
 196.298628473 202.657266596 195.894146992 198.524657368 195.894146992 194.339248289 c 0
 195.894146992 154.730550721 232.118775626 110.393194155 319.214689536 93.5903168357 c 0
 337.881522439 89.9890399314 358.277871514 88 380 88 c 0
 514.685983984 88 620.907654964 164.027443583 632.909690031 225.300991028 c 2
 726.924471176 697.375211249 l 2
 731.423413173 719.965643403 751.9070572 735.975660097 774.251000243 735.975660097 c 0
 777.270055 735.975660097 780.323072683 735.683369979 783.375211249 735.075528824 c 0
EndSplineSet
EndChar

StartChar: V
Encoding: 86 86 54
Width: 860
VWidth: 0
Flags: HW
AnchorPoint: "above" -73 0 basechar 0
LayerCount: 2
Fore
SplineSet
171.542054422 734.355146337 m 0
 175.577615755 735.439703446 179.65226182 735.956666306 183.678112132 735.956666306 c 0
 204.84006323 735.956666306 224.653740246 721.672479871 230.355146337 700.457945578 c 2
 380.634915931 141.277407557 l 1
 764.099992725 714.683129865 l 2
 773.261017507 728.381858512 788.692350198 735.837309172 804.292554028 735.837309172 c 0
 813.441575999 735.837309172 822.648680326 733.273045405 830.683129865 727.900007275 c 0
 844.382508798 718.738547614 851.837252094 703.307304518 851.837252094 687.707649304 c 0
 851.837252094 678.558330719 849.272885006 669.351079825 843.900007275 661.316870135 c 2
 415.900007275 21.3168701345 l 2
 407.712988017 9.07459834656 392.196642545 0 376 0 c 2
 356 0 l 2
 337.583761164 0 315.551302723 13.5645695458 309.644853663 35.5420544218 c 2
 137.644853663 675.542054422 l 2
 136.560256463 679.57776493 136.043285078 683.652476488 136.043285078 687.678334355 c 0
 136.043285078 708.841219116 150.328913951 728.654114836 171.542054422 734.355146337 c 0
EndSplineSet
EndChar

StartChar: W
Encoding: 87 87 55
Width: 1090
VWidth: 0
Flags: HW
AnchorPoint: "above" -73 0 basechar 0
LayerCount: 2
Fore
SplineSet
177.899866129 735.610800946 m 0
 179.890832824 735.865893554 181.873094233 735.990003691 183.83775522 735.990003691 c 0
 207.462944624 735.990003691 228.54307176 718.043386054 231.610800946 694.100133871 c 2
 297.584205522 179.185756694 l 1
 561.013896702 709.358720076 l 2
 569.148217272 725.729679713 586.657036855 736 604 736 c 2
 614 736 l 2
 639.068908677 736 659.553377407 715.575029578 661.776338657 692.628332807 c 2
 711.436044418 180.012015265 l 1
 991.555617038 710.415939752 l 2
 1000.07928055 726.555420964 1017.04488648 735.872581447 1034.37775349 735.872581447 c 0
 1041.87276957 735.872581447 1049.43645759 734.130421981 1056.41593975 730.444382962 c 0
 1072.55629098 721.920259971 1081.87251069 704.954553691 1081.87251069 687.622302878 c 0
 1081.87251069 680.127092687 1080.13031304 672.563336128 1076.44438296 665.584060248 c 2
 738.444382962 25.5840602481 l 2
 730.885940264 11.272216085 714.091495348 0 696 0 c 2
 676 0 l 2
 652.945879991 0 630.64089577 18.419569886 628.223661343 43.3716671926 c 2
 580.757008433 533.350019819 l 1
 328.986103298 26.641279924 l 2
 321.26894715 11.1098964814 304.28046746 0 286 0 c 2
 266 0 l 2
 245.277199974 0 221.611013882 16.7539943009 218.389199054 41.8998661287 c 2
 136.389199054 681.899866129 l 2
 136.134094608 683.890925221 136.009979722 685.873258747 136.009979722 687.837974495 c 0
 136.009979722 711.464488995 153.958296832 732.54328738 177.899866129 735.610800946 c 0
EndSplineSet
EndChar

StartChar: X
Encoding: 88 88 56
Width: 790
VWidth: 0
Flags: HW
AnchorPoint: "above" -73 0 basechar 0
LayerCount: 2
Fore
SplineSet
21.094803422 15.0511418733 m 0
 12.4668884379 24.1913393096 8.19247913015 36.0778544418 8.19247913015 47.9517981828 c 0
 8.19247913015 60.7762152839 13.1785839274 73.5859678384 23.0511418733 82.905196578 c 2
 332.735550603 375.232662046 l 1
 143.927237924 661.577022506 l 2
 138.668313402 669.552642635 136.160763868 678.655989572 136.160763868 687.70022792 c 0
 136.160763868 703.408936816 143.725373233 718.939330836 157.577022506 728.072762076 c 0
 165.552405236 733.331530063 174.655894139 735.839177758 183.700422972 735.839177758 c 0
 199.408579714 735.839177758 214.938893552 728.275289947 224.072762076 714.422977494 c 2
 403.611714093 442.136415192 l 1
 701.051141873 722.905196578 l 2
 710.19133931 731.533111562 722.077854442 735.80752087 733.951798183 735.80752087 c 0
 746.776215284 735.80752087 759.585967838 730.821416073 768.905196578 720.948858127 c 0
 777.533412585 711.808341795 781.807530566 699.922050312 781.807530566 688.048536125 c 0
 781.807530566 675.223655153 776.821044139 662.413681073 766.948858127 653.094803422 c 2
 457.264449397 360.767337954 l 1
 646.072762076 74.4229774936 l 2
 651.331530063 66.4475947642 653.839177758 57.3441058615 653.839177758 48.2995770282 c 0
 653.839177758 32.5914202856 646.275289947 17.061106448 632.422977494 7.92723792436 c 0
 624.447357365 2.66831340194 615.344010428 0.160763868073 606.29977208 0.160763868073 c 0
 590.591063184 0.160763868073 575.060669164 7.72537323334 565.927237924 21.5770225064 c 2
 386.388285907 293.863584808 l 1
 88.9488581267 13.094803422 l 2
 79.8083417945 4.46658741525 67.9220503117 0.192469433961 56.0485361247 0.192469433961 c 0
 43.2236551533 0.192469433961 30.4136810733 5.17895586147 21.094803422 15.0511418733 c 0
EndSplineSet
EndChar

StartChar: Y
Encoding: 89 89 57
Width: 820
VWidth: 0
Flags: HW
AnchorPoint: "middle" -73 0 basechar 0
AnchorPoint: "above" -73 0 basechar 0
LayerCount: 2
Fore
SplineSet
155.119349139 726.339379309 m 0
 163.615224986 732.739233154 173.72047262 735.822760252 183.778720449 735.822760252 c 0
 198.443285726 735.822760252 213.007945416 729.268231226 222.339379309 716.880650861 c 2
 420.41988539 453.926616589 l 1
 732.575142181 724.283306231 l 2
 741.511628964 732.023169428 752.71068819 735.811098517 763.881526509 735.811098517 c 0
 777.414526505 735.811098517 790.906108649 730.251819501 800.283306231 719.424857819 c 0
 808.023425831 710.488074991 811.811122229 699.28922966 811.811122229 688.118791733 c 0
 811.811122229 674.58530526 806.251386508 661.093516337 795.424857819 651.716693769 c 2
 456.857008071 358.484140141 l 1
 393.073253144 38.6133691647 l 2
 388.569900893 16.0293936957 368.089585358 0.0243677945684 345.748953906 0.0243677945684 c 0
 342.726160495 0.0243677945684 339.669309586 0.317377783936 336.613369165 0.926746855965 c 0
 314.027853044 5.43040632046 298.024400827 25.9117601534 298.024400827 48.2512912739 c 0
 298.024400827 51.2740433045 298.317402846 54.3308161008 298.926746856 57.3866308353 c 2
 361.721270031 372.296478399 l 1
 145.660620691 659.119349139 l 2
 139.260568672 667.615488063 136.177195937 677.720553024 136.177195937 687.778453992 c 0
 136.177195937 702.443539295 142.732313796 717.008355976 155.119349139 726.339379309 c 0
EndSplineSet
EndChar

StartChar: Z
Encoding: 90 90 58
Width: 790
VWidth: 0
Flags: HW
AnchorPoint: "above" -73 0 basechar 0
LayerCount: 2
Fore
SplineSet
146 688 m 0
 146 714.144471708 167.853633925 736 194 736 c 2
 724 736 l 2
 750.354847908 736 771.996663789 713.865582227 771.996663789 687.910164833 c 0
 771.996663789 673.610191111 763.322402089 659.199362865 757.206949424 653.340246539 c 2
 175.483067099 96 l 1
 606 96 l 2
 632.144471708 96 654 74.1463660754 654 48 c 0
 654 21.8536339246 632.144471708 0 606 0 c 2
 56 0 l 2
 46.774942503 0 33.0203842608 4.1785032536 24.0524059765 12.1761080267 c 0
 13.5213522592 21.5676568024 8.22163667021 34.7954319734 8.22163667021 48.0324815166 c 0
 8.22163667021 60.678818511 13.0588993989 73.3336205963 22.7930505763 82.659753461 c 2
 604.516932901 640 l 1
 194 640 l 2
 167.853633925 640 146 661.855528292 146 688 c 0
EndSplineSet
EndChar

StartChar: bracketleft
Encoding: 91 91 59
Width: 390
VWidth: 0
Flags: HW
LayerCount: 2
Fore
SplineSet
418 768 m 0
 418 741.855528292 396.146366075 720 370 720 c 2
 259.35058733 720 l 1
 118.55058733 16 l 1
 210 16 l 2
 236.144471708 16 258 -5.85363392464 258 -32 c 0
 258 -58.1463660754 236.144471708 -80 210 -80 c 2
 60 -80 l 2
 40.5034119753 -80 12.0048366341 -60.832980541 12.0048366341 -31.7690469755 c 0
 12.0048366341 -28.8076546145 12.3007102704 -25.7435119958 12.9321275668 -22.5864255134 c 2
 172.932127567 777.413574487 l 2
 176.702490525 796.265389276 195.866061088 816 220 816 c 2
 370 816 l 2
 396.146366075 816 418 794.144471708 418 768 c 0
EndSplineSet
EndChar

StartChar: backslash
Encoding: 92 92 60
Width: 720
VWidth: 0
Flags: HW
LayerCount: 2
Fore
SplineSet
537.033707865 4.85393258427 m 0
 530.430545885 1.63489111883 523.375712775 0.115070554034 516.39018073 0.115070554034 c 0
 498.514209264 0.115070554034 481.092054245 10.0675810365 472.853932584 26.9662921348 c 2
 160.853932584 666.966292135 l 2
 157.634891119 673.569454115 156.115070554 680.624287225 156.115070554 687.60981927 c 0
 156.115070554 705.485790736 166.067581037 722.907945755 182.966292135 731.146067416 c 0
 189.569651879 734.365205291 196.624441044 735.885001228 203.609811931 735.885001228 c 0
 221.486427746 735.885001228 238.908405803 725.931475276 247.146067416 709.033707865 c 2
 559.146067416 69.0337078652 l 2
 562.365205291 62.4303481207 563.885001228 55.3755589563 563.885001228 48.3901880685 c 0
 563.885001228 30.5135722535 553.931475276 13.0915941972 537.033707865 4.85393258427 c 0
EndSplineSet
EndChar

StartChar: bracketright
Encoding: 93 93 61
Width: 390
VWidth: 0
Flags: HW
LayerCount: 2
Fore
SplineSet
132 768 m 0
 132 794.144471708 153.853633925 816 180 816 c 2
 330 816 l 2
 358.20975741 816 377.889986412 791.211689748 377.889986412 767.000490283 c 0
 377.889986412 764.174493552 377.621859228 761.356359489 377.067872433 758.586425513 c 2
 217.067872433 -41.4135744866 l 2
 212.334817608 -65.0788486118 189.225154296 -80 170 -80 c 2
 20 -80 l 2
 -6.14447170793 -80 -28 -58.1463660754 -28 -32 c 0
 -28 -5.85363392464 -6.14447170793 16 20 16 c 2
 130.64941267 16 l 1
 271.44941267 720 l 1
 180 720 l 2
 153.853633925 720 132 741.855528292 132 768 c 0
EndSplineSet
EndChar

StartChar: asciicircum
Encoding: 94 94 62
Width: 640
VWidth: 0
Flags: HW
LayerCount: 2
Fore
SplineSet
122.940025828 413.200027187 m 0
 113.137954011 422.511995414 108.192615686 435.271025244 108.192615686 448.043209231 c 0
 108.192615686 459.969197984 112.504374572 471.90665563 121.200027187 481.059974172 c 2
 349.200027187 721.059974172 l 2
 358.621228647 730.97702834 371.147241992 735.662229357 383.607787667 735.662229357 c 0
 400.521519637 735.662229357 417.314628186 727.029800772 426.058363616 711.132099989 c 2
 558.058363616 471.132099989 l 2
 562.000934372 463.963789524 563.866185527 456.132234913 563.866185527 448.368335744 c 0
 563.866185527 431.320674141 554.873132035 414.599204009 539.132099989 405.941636384 c 0
 531.96357846 401.998949543 524.13210548 400.133744892 516.368417687 400.133744892 c 0
 499.320153038 400.133744892 482.598746319 409.127700129 473.941636384 424.867900011 c 2
 373.581235915 607.341355409 l 1
 190.799972813 414.940025828 l 2
 181.487655294 405.137586335 168.728847616 400.192624315 155.957125731 400.192624315 c 0
 144.030705385 400.192624315 132.093023725 404.504679186 122.940025828 413.200027187 c 0
EndSplineSet
EndChar

StartChar: underscore
Encoding: 95 95 63
Width: 720
VWidth: 0
Flags: HW
LayerCount: 2
Fore
SplineSet
-80 -96 m 0
 -80 -69.8555282921 -58.1463660754 -48 -32 -48 c 2
 568 -48 l 2
 594.144471708 -48 616 -69.8536339246 616 -96 c 0
 616 -122.146366075 594.144471708 -144 568 -144 c 2
 -32 -144 l 2
 -58.1463660754 -144 -80 -122.144471708 -80 -96 c 0
EndSplineSet
EndChar

StartChar: grave
Encoding: 96 96 64
Width: 480
VWidth: 0
Flags: HW
LayerCount: 2
Fore
SplineSet
174.965322672 726.222866356 m 0
 183.490972789 732.699081349 193.660696146 735.821881226 203.784350304 735.821881226 c 0
 218.382017491 735.821881226 232.883898469 729.329014799 242.222866356 717.034677328 c 2
 400.222866356 509.034677328 l 2
 406.699081349 500.509027211 409.821881226 490.339303854 409.821881226 480.215649696 c 0
 409.821881226 465.617982509 403.329014799 451.116101531 391.034677328 441.777133644 c 0
 382.508762326 435.300717441 372.339223924 432.178076043 362.215920027 432.178076043 c 0
 347.617734782 432.178076043 333.115692922 438.671523116 323.777133644 450.965322672 c 2
 165.777133644 658.965322672 l 2
 159.300717441 667.491237674 156.178076043 677.660776076 156.178076043 687.784079973 c 0
 156.178076043 702.382265218 162.671523116 716.884307078 174.965322672 726.222866356 c 0
EndSplineSet
EndChar

StartChar: a
Encoding: 97 97 65
Width: 735
VWidth: 0
Flags: HW
AnchorPoint: "above" -73 0 basechar 0
LayerCount: 2
Fore
SplineSet
586.371658151 527.076236293 m 0
 608.962078268 522.579069325 624.975711993 502.095752609 624.975711993 479.749335531 c 0
 624.975711993 476.731389609 624.683635236 473.679462123 624.076236293 470.628341849 c 2
 538.076236293 38.6283418491 l 2
 533.579069325 16.0379217315 513.095752609 0.0242880070446 490.749335531 0.0242880070446 c 0
 487.731389609 0.0242880070446 484.679462123 0.316364763655 481.628341849 0.923763707124 c 0
 463.162291852 4.59987551205 449.092260889 18.9567906962 444.569008149 36.2805553498 c 1
 398.124853399 8.36938915535 345.044862436 -8 290 -8 c 0
 157.570539295 -8 61.3808657968 91.2461340121 61.3808657968 218.876012262 c 0
 61.3808657968 219.105285479 61.3817973629 219.33465029 61.3817973629 219.564106286 c 0
 61.429565221 237.209515914 63.2706224641 255.25280107 66.9467788069 273.486536531 c 0
 96.3920005449 419.534836352 231.957909026 536 379 536 c 0
 437.488373659 536 489.358264257 516.523864321 528.719466258 483.322163986 c 1
 529.923763707 489.371658151 l 2
 534.421237515 511.963619606 554.905593821 527.975679038 577.250909656 527.975679038 c 0
 580.26881408 527.975679038 583.320663433 527.683610241 586.371658151 527.076236293 c 0
470.07779333 188.750039514 m 1
 503.289456322 355.58071873 l 1
 486.794457345 406.250969412 443.461088891 440 379 440 c 0
 282.042090974 440 181.607999455 356.465163648 161.053221193 254.513463469 c 0
 158.573598641 242.214535613 157.411625658 230.452714838 157.381445603 219.304225804 c 0
 157.381445603 219.148572057 157.380813638 218.993011754 157.380813638 218.837545153 c 0
 157.380813638 141.963744771 208.871627739 88 290 88 c 0
 357.145509481 88 427.490105911 127.898569003 470.07779333 188.750039514 c 1
EndSplineSet
EndChar

StartChar: b
Encoding: 98 98 66
Width: 735
VWidth: 0
Flags: HW
LayerCount: 2
Fore
SplineSet
253.430211534 735.064541966 m 0
 275.995415361 730.543205169 291.97539925 710.071639221 291.97539925 687.747844806 c 0
 291.97539925 684.710940002 291.679664291 681.639756772 291.064541966 678.569788466 c 2
 254.187802035 494.524407526 l 1
 299.484285548 520.72417222 350.825234763 536 404 536 c 0
 421.174863622 536 437.881848345 534.366508418 453.937762053 531.162387695 c 0
 562.348316983 509.52795991 631.51313942 417.833330847 631.51313942 308.346293117 c 0
 631.51313942 290.787756115 629.734300966 272.771619143 626.053221193 254.513463469 c 0
 596.655346877 108.700006861 462.196220831 -8 315 -8 c 0
 253.572871064 -8 199.040305832 13.4528897565 158.70488849 49.8572157675 c 1
 153.518517231 35.8680354625 149.662780515 28.0026979361 148.633949326 25.9327452139 c 0
 139.623820027 9.20178608886 122.927616631 0.0249481775948 105.848110643 0.0249481775948 c 0
 98.6640313771 0.0249481775948 91.4121359224 1.64856926108 84.6358937395 5.01657338355 c 0
 67.9725720441 13.298764995 58.1043703801 30.5265930542 58.1043703801 48.3225153315 c 0
 58.1043703801 54.9619632167 59.4779724864 61.6804868486 62.3847677354 68.0430243554 c 0
 64.0571850141 71.5546616861 76.5844656831 97.5492494024 87.9479507719 153.492560609 c 2
 196.935458034 697.430211534 l 2
 201.457103127 719.996954014 221.929703619 735.975365991 244.252400346 735.975365991 c 0
 247.289264116 735.975365991 250.360369294 735.679639032 253.430211534 735.064541966 c 0
222.731816448 337.533066617 m 1
 189.675133916 172.552926275 l 1
 206.141608668 122.119094536 250.290350124 88 315 88 c 0
 411.803779169 88 511.344653123 171.299993139 531.946778807 273.486536531 c 0
 534.570576142 286.500571313 535.824537632 298.960544644 535.824537632 310.788599602 c 0
 535.824537632 378.174660998 495.124231284 425.050306768 435.150430225 437.018688156 c 0
 425.480776886 438.948365733 415.097176681 440 404 440 c 0
 336.225261575 440 265.190424991 399.349400896 222.731816448 337.533066617 c 1
EndSplineSet
EndChar

StartChar: c
Encoding: 99 99 67
Width: 660
VWidth: 0
Flags: HW
AnchorPoint: "middle" -73 0 basechar 0
AnchorPoint: "bottom" -73 0 basechar 0
AnchorPoint: "above" -73 0 basechar 0
LayerCount: 2
Fore
SplineSet
509.653015279 170.084437418 m 0
 520.337559747 160.71202999 525.810405158 147.320365128 525.810405158 133.891361866 c 0
 525.810405158 122.617556131 521.953253489 111.317435042 514.084437418 102.346984721 c 0
 456.396454524 36.5826842224 373.496180318 -8 285 -8 c 0
 268.666414525 -8 252.747320028 -6.46080915286 237.417668491 -3.44128031544 c 0
 129.879785349 17.740788858 61.4396178128 109.695577879 61.4396178128 219.162907717 c 0
 61.4396178128 236.887037976 63.2338220611 255.070271072 66.9467788069 273.486536531 c 0
 96.2528562786 418.844680791 229.219363158 536 374 536 c 0
 455.607938957 536 525.161191897 496.396980738 563.936862596 433.063385263 c 0
 568.623797048 425.408058991 570.849813135 416.838834134 570.849813135 408.333105121 c 0
 570.849813135 392.064555052 562.706466708 376.02828931 548.063385263 367.063137404 c 0
 540.407833455 362.376064869 531.838725905 360.150122693 523.333254933 360.150122693 c 0
 507.064133271 360.150122693 491.027841269 368.294265091 482.063137404 382.936614737 c 0
 460.838808103 417.603019262 424.392061043 440 374 440 c 0
 280.780636842 440 181.747143721 357.155319209 161.053221193 254.513463469 c 0
 158.39083295 241.308017781 157.123696882 228.683743671 157.123696882 216.717837255 c 0
 157.123696882 148.875288414 197.855755579 102.195953412 255.970598068 90.7488932915 c 0
 265.012989201 88.9677855658 274.687275042 88 285 88 c 0
 340.503819682 88 399.603545476 117.417315778 441.915562582 165.653015279 c 0
 451.288341541 176.337983291 464.679796689 181.810383463 478.108316689 181.810383463 c 0
 489.382527325 181.810383463 500.682864282 177.952990924 509.653015279 170.084437418 c 0
EndSplineSet
EndChar

StartChar: d
Encoding: 100 100 68
Width: 740
VWidth: 0
Flags: HW
AnchorPoint: "above" -73 0 basechar 0
LayerCount: 2
Fore
SplineSet
633.430211534 735.064541966 m 0
 655.995415361 730.543205169 671.97539925 710.071639221 671.97539925 687.747844806 c 0
 671.97539925 684.710940002 671.679664291 681.639756772 671.064541966 678.569788466 c 2
 562.052049228 134.507439391 l 2
 554.683793201 98.2329481798 553.392955808 74.7294150711 553.392955808 62.5864115643 c 0
 553.392955808 56.8458277679 553.681446243 53.644219169 553.752701143 52.8325670242 c 0
 556.103578921 26.2774370606 537.171133141 3.43727279826 511.794930459 0.351088354817 c 0
 509.850804016 0.114649008101 507.915636683 -0.00101188234001 505.997611289 -0.00101188234001 c 0
 482.885997511 -0.00101188234001 462.263308706 16.7923779115 458.445862691 41.4256913909 c 0
 458.432544058 41.5352040773 458.418374871 41.6533083919 458.403455817 41.7800174864 c 1
 409.910994235 10.5317035017 353.567707719 -8 295 -8 c 1
 162.570539295 -8 66.3808657968 91.2461340121 66.3808657968 218.876012262 c 0
 66.3808657968 236.888583099 68.2188941184 254.996228476 71.9467788069 273.486536531 c 0
 101.392000545 419.534836352 236.957909026 536 384 536 c 0
 442.622187018 536 494.595571973 516.434644934 533.989428823 483.094065744 c 1
 576.935458034 697.430211534 l 2
 581.457103127 719.996954014 601.929703619 735.975365991 624.252400346 735.975365991 c 0
 627.289264116 735.975365991 630.360369294 735.679639032 633.430211534 735.064541966 c 0
474.986206726 188.619269226 m 1
 508.382437428 355.294035297 l 1
 491.957727969 406.123632131 448.582582333 440 384 440 c 0
 287.042090974 440 186.607999455 356.465163648 166.053221193 254.513463469 c 0
 163.535974798 242.027921348 162.380813638 230.25337474 162.380813638 218.837545153 c 0
 162.380813638 141.963744771 213.871627739 88 295 88 c 0
 362.097398866 88 432.389301951 127.841413819 474.986206726 188.619269226 c 1
EndSplineSet
EndChar

StartChar: e
Encoding: 101 101 69
Width: 680
VWidth: 0
Flags: HW
AnchorPoint: "bottom" -73 0 basechar 0
AnchorPoint: "above" -73 0 basechar 0
LayerCount: 2
Fore
SplineSet
193.991344235 336 m 1
 486.663225667 336 l 1
 486.825235042 355.174542889 483.020502091 372.199187432 471.633573494 391.65185712 c 0
 453.114952159 422.941941443 421.632525979 440 369 440 c 0
 304.363280709 440 235.219984657 399.986893789 193.991344235 336 c 1
158.73335667 240 m 1
 157.654405395 231.259165865 157.131267408 222.846985488 157.131267408 214.77632811 c 0
 157.131267408 141.713806711 200.00464971 96.6405472101 261.508945677 89.1045005689 c 0
 267.408978269 88.3815767454 273.573024388 88 280 88 c 0
 393.949855918 88 457.766437694 156.205351134 461.984498359 160.831611218 c 0
 470.760763054 170.188882718 484.005938925 175.573416488 497.49233514 175.573416488 c 0
 508.489869078 175.573416488 519.647806104 171.992889945 528.673688107 164.066292875 c 0
 539.485963701 154.570871594 544.626411682 141.383881599 544.626411682 128.253240921 c 0
 544.626411682 116.974242412 540.833521983 105.736821358 533.584532261 96.9164171329 c 0
 528.155626624 90.7346141159 440.711782646 -8 280 -8 c 0
 264.290795296 -8 248.956766487 -6.56476326241 234.157488075 -3.72430450494 c 0
 127.976977015 16.6551595554 61.3892059264 107.029295002 61.3892059264 217.437778777 c 0
 61.3892059264 235.55948407 63.1830624856 254.220909293 66.8901396923 273.201144591 c 0
 70.2209167496 290.254723124 74.8916855373 306.804905772 80.7418184535 322.731793731 c 0
 126.101395466 446.222475279 243.040373766 536 369 536 c 0
 444.367474021 536 514.885047841 507.058058557 554.366426506 440.34814288 c 0
 574.452353968 406.034683466 582.346878943 371.044337332 582.346878943 335.874061077 c 0
 582.346878943 316.679437793 579.995440415 297.431221086 575.991060147 278.210195803 c 0
 571.373308055 256.044985757 551.069973693 240 529 240 c 2
 158.73335667 240 l 1
EndSplineSet
EndChar

StartChar: f
Encoding: 102 102 70
Width: 470
VWidth: 0
Flags: HW
AnchorPoint: "above" -73 0 basechar 0
LayerCount: 2
Fore
SplineSet
79 480 m 0
 79 506.144471708 100.853633925 528 127 528 c 2
 207.886011877 528 l 1
 228.914408547 633.324838976 l 2
 247.5977067 728.439811389 354.281829433 752 402 752 c 0
 428.523656467 752 448.327633458 747.502377009 451.527053207 746.838016624 c 0
 474.355694109 741.312751319 488.999918304 721.503302113 488.999918304 699.968220878 c 0
 488.999918304 696.750364974 488.672949344 693.493980015 487.99745981 690.24096463 c 0
 483.341015918 667.816511149 462.935136603 652.026427749 440.739315248 652.026427749 c 0
 437.595881807 652.026427749 434.416547488 652.343129541 431.24096463 653.00254019 c 0
 431.133318016 653.024250431 415.150929383 656 402 656 c 0
 369.718170567 656 326.4022933 631.560188611 323.085591453 614.675161024 c 2
 305.78065479 528 l 1
 387 528 l 2
 413.144471708 528 435 506.146366075 435 480 c 0
 435 453.853633925 413.144471708 432 387 432 c 2
 286.613988123 432 l 1
 208.071012906 38.6021415205 l 2
 203.562717143 16.0214601332 183.083616416 0.0244607991269 160.748422755 0.0244607991269 c 0
 157.722035406 0.0244607991269 154.661570433 0.318163613202 151.60214152 0.928987093974 c 0
 129.02300027 5.43697536441 113.024427708 25.9150387607 113.024427708 48.2513320711 c 0
 113.024427708 51.2777607121 113.3181385 54.3383037829 113.928987094 57.3978584795 c 2
 188.71934521 432 l 1
 127 432 l 2
 100.853633925 432 79 453.855528292 79 480 c 0
EndSplineSet
EndChar

StartChar: g
Encoding: 103 103 71
Width: 735
VWidth: 0
Flags: HW
LayerCount: 2
Fore
SplineSet
608.36410626 522.983426616 m 0
 625.655584941 514.389021354 634.661695325 496.478610393 634.661695325 479.149682859 c 0
 634.661695325 472.477602303 633.326587145 465.891723586 630.615232265 459.956975645 c 0
 628.61895342 455.765314029 616.294499195 429.854885384 605.06331202 374.56288698 c 2
 529.102222374 -9.24051333378 l 2
 511.024063234 -102.213903198 426.348493801 -192 293 -192 c 0
 209.940839335 -192 158.165756586 -159.616116932 152.688459413 -156.153708626 c 0
 138.471060137 -146.501168971 131.041668996 -131.227942634 131.041668996 -115.828910685 c 0
 131.041668996 -107.036745085 133.463579564 -98.2035680581 138.426778829 -90.3521204815 c 0
 147.65777544 -75.7493044132 164.799522614 -68.2335313152 180.5919015 -68.2335313152 c 0
 188.134246468 -68.2335313152 195.368805924 -69.9478491153 201.286807743 -73.4231894078 c 0
 208.627406416 -77.7794599111 239.050063869 -96 293 -96 c 0
 379.651506199 -96 424.975936766 -41.7860968022 434.897777626 9.24051333381 c 2
 439.679108518 33.398816787 l 1
 394.415098882 7.24603705958 343.122565359 -8 290 -8 c 0
 157.570539295 -8 61.3808657968 91.2461340121 61.3808657968 218.876012262 c 0
 61.3808657968 236.888583099 63.2188941184 254.996228476 66.9467788069 273.486536531 c 0
 96.3920005449 419.534836352 231.957909026 536 379 536 c 0
 440.328189511 536 494.379592092 514.586680926 534.363700057 478.389573188 c 1
 539.378033623 491.874080315 543.152131143 499.624914328 544.366050674 502.067254786 c 0
 552.799969146 517.728244826 569.843230346 527.850902913 587.666487483 527.850902913 c 0
 594.601337865 527.850902913 601.654272608 526.318423624 608.36410626 522.983426616 c 0
470.563615184 189.44685047 m 1
 503.385599926 355.284247063 l 1
 486.963296251 406.119283046 443.586727791 440 379 440 c 0
 282.042090974 440 181.607999455 356.465163648 161.053221193 254.513463469 c 0
 158.535974798 242.027921348 157.380813638 230.25337474 157.380813638 218.837545153 c 0
 157.380813638 141.963744771 208.871627739 88 290 88 c 0
 357.401468591 88 428.026460498 128.203335984 470.563615184 189.44685047 c 1
EndSplineSet
EndChar

StartChar: h
Encoding: 104 104 72
Width: 730
VWidth: 0
Flags: HW
AnchorPoint: "above" -73 0 basechar 0
LayerCount: 2
Fore
SplineSet
253.413574487 735.067872433 m 0
 275.985946779 730.553397975 291.975488308 710.078489371 291.975488308 687.74826791 c 0
 291.975488308 684.716750503 291.680795129 681.651038993 291.067872433 678.586425513 c 2
 253.504017323 490.767149963 l 1
 298.769911227 515.396267636 356.732400163 536 424 536 c 0
 514.500441279 536 597.629658707 475.215023922 597.629658707 377.748257789 c 0
 597.629658707 366.043900738 596.438826212 354.44119441 594.067872433 342.586425513 c 2
 533.061908829 38.5566564521 l 2
 528.534849693 15.9955748538 508.064890928 0.02470448278 485.747265958 0.02470448278 c 0
 482.70614939 0.02470448278 479.630724957 0.32125505651 476.556656452 0.938091170931 c 0
 453.997112905 5.46484168523 438.024671155 25.9337670371 438.024671155 48.2524888992 c 0
 438.024671155 51.2936463966 438.321229738 54.3691488638 438.938091171 57.4433435479 c 2
 499.932127567 361.413574487 l 2
 501.122644851 367.36616091 501.629606806 372.680214012 501.629606806 377.722612645 c 0
 501.629606806 412.295484203 475.715963012 440 424 440 c 0
 329.115531723 440 250.381890763 374.659216389 225.678280977 351.638468234 c 1
 163.067872433 38.5864255134 l 2
 158.553397975 16.0140532212 138.078489371 0.0245116921935 115.74826791 0.0245116921935 c 0
 112.716750503 0.0245116921935 109.651038993 0.319204870956 106.586425513 0.932127566836 c 0
 84.0125138044 5.44690990864 68.024544865 25.9228544887 68.024544865 48.2519772538 c 0
 68.024544865 51.2834534937 68.3192300552 54.3490869282 68.9321275668 57.4135744866 c 2
 196.932127567 697.413574487 l 2
 201.446909909 719.987486196 221.922854489 735.975455135 244.251977254 735.975455135 c 0
 247.283453494 735.975455135 250.349086928 735.680769945 253.413574487 735.067872433 c 0
EndSplineSet
EndChar

StartChar: i
Encoding: 105 105 73
Width: 360
VWidth: 0
Flags: HW
LayerCount: 2
Fore
SplineSet
106.628341849 0.923763707124 m 0
 84.0379217315 5.42093067498 68.024288007 25.9042473912 68.024288007 48.2506644686 c 0
 68.024288007 51.2686103909 68.3163647637 54.3205378767 68.9237637071 57.3716581509 c 2
 154.923763707 489.371658151 l 2
 159.420930675 511.962078268 179.904247391 527.975711993 202.250664469 527.975711993 c 0
 205.268610391 527.975711993 208.320537877 527.683635236 211.371658151 527.076236293 c 0
 233.963619606 522.578762485 249.975679038 502.094406179 249.975679038 479.749090344 c 0
 249.975679038 476.73118592 249.683610241 473.679336567 249.076236293 470.628341849 c 2
 163.076236293 38.6283418491 l 2
 158.578762485 16.0363803945 138.094406179 0.0243209615216 115.749090344 0.0243209615216 c 0
 112.73118592 0.0243209615216 109.679336567 0.31638975857 106.628341849 0.923763707124 c 0
227.210195803 609.008939853 m 0
 204.800636316 613.677598079 189.026563548 634.07616951 189.026563548 656.261207576 c 0
 189.026563548 659.414659784 189.345273768 662.604206993 190.008939853 665.789804197 c 2
 200.008939853 713.789804197 l 2
 204.677598079 736.199363684 225.07616951 751.973436452 247.261207576 751.973436452 c 0
 250.414659784 751.973436452 253.604206993 751.654726232 256.789804197 750.991060147 c 0
 279.200885754 746.322084823 294.97340132 725.922509722 294.97340132 703.738547844 c 0
 294.97340132 700.58513366 294.654699328 697.395663869 293.991060147 694.210195803 c 2
 283.991060147 646.210195803 l 2
 279.322084823 623.799114246 258.922509722 608.02659868 236.738547844 608.02659868 c 0
 233.58513366 608.02659868 230.395663869 608.345300672 227.210195803 609.008939853 c 0
EndSplineSet
EndChar

StartChar: j
Encoding: 106 106 74
Width: 360
VWidth: 0
Flags: HW
LayerCount: 2
Fore
SplineSet
211.34699106 527.081140153 m 0
 233.948023451 522.594170487 249.975843165 502.105914812 249.975843165 479.749964892 c 0
 249.975843165 476.740004351 249.685300579 473.696187382 249.081140153 470.65300894 c 2
 141.074529838 -73.3802874648 l 2
 128.321023975 -137.147816776 67.9354105903 -192 -22 -192 c 0
 -38.4642278132 -192 -48.9272939147 -189.39390242 -51.8779760706 -188.757827225 c 0
 -74.5426415105 -183.090069427 -88.9998059365 -163.361128787 -88.9998059365 -141.965577743 c 0
 -88.9998059365 -138.630250044 -88.6484775928 -135.254421493 -87.9221452652 -131.88504653 c 0
 -83.1224277752 -109.619690395 -62.8112907152 -94.0305395381 -40.7321193317 -94.0305395381 c 0
 -37.4657778084 -94.0305395381 -34.1607418656 -94.371716818 -30.8615084473 -95.0829288124 c 0
 -30.5427993701 -95.1446144402 -25.1472546104 -96 -22 -96 c 0
 28.0665807898 -96 43.6733619024 -70.8802538357 46.9321275668 -54.5864255134 c 2
 154.918859847 489.34699106 l 2
 159.406135738 511.949565917 179.89543313 527.975810339 202.250280305 527.975810339 c 0
 205.260199155 527.975810339 208.303937958 527.685275696 211.34699106 527.081140153 c 0
227.210195803 609.008939853 m 0
 204.800636316 613.677598079 189.026563548 634.07616951 189.026563548 656.261207576 c 0
 189.026563548 659.414659784 189.345273768 662.604206993 190.008939853 665.789804197 c 2
 200.008939853 713.789804197 l 2
 204.677598079 736.199363684 225.07616951 751.973436452 247.261207576 751.973436452 c 0
 250.414659784 751.973436452 253.604206993 751.654726232 256.789804197 750.991060147 c 0
 279.200885754 746.322084823 294.97340132 725.922509722 294.97340132 703.738547844 c 0
 294.97340132 700.58513366 294.654699328 697.395663869 293.991060147 694.210195803 c 2
 283.991060147 646.210195803 l 2
 279.322084823 623.799114246 258.922509722 608.02659868 236.738547844 608.02659868 c 0
 233.58513366 608.02659868 230.395663869 608.345300672 227.210195803 609.008939853 c 0
EndSplineSet
EndChar

StartChar: k
Encoding: 107 107 75
Width: 660
VWidth: 0
Flags: HW
AnchorPoint: "above" -73 0 basechar 0
LayerCount: 2
Fore
SplineSet
481.636811859 4.66269509645 m 0
 475.144167439 1.57095965861 468.233653893 0.111478531261 461.39242753 0.111478531261 c 0
 443.36152986 0.111478531261 425.81193642 10.2497813623 417.662695096 27.3631881412 c 2
 302.305478759 269.613342451 l 1
 193.037373516 188.433930929 l 1
 163.067872433 38.5864255134 l 2
 158.553090091 16.0125138044 138.077145511 0.0245448649932 115.748022746 0.0245448649932 c 0
 112.716546506 0.0245448649932 109.650913072 0.319230055154 106.586425513 0.932127566836 c 0
 84.0140532212 5.44660202528 68.0245116922 25.9215106285 68.0245116922 48.2517320898 c 0
 68.0245116922 51.2832494966 68.319204871 54.3489610072 68.9321275668 57.4135744866 c 2
 196.932127567 697.413574487 l 2
 201.446602025 719.985946779 221.921510629 735.975488308 244.25173209 735.975488308 c 0
 247.283249497 735.975488308 250.348961007 735.680795129 253.413574487 735.067872433 c 0
 275.987486196 730.553090091 291.975455135 710.077145511 291.975455135 687.748022746 c 0
 291.975455135 684.716546506 291.680769945 681.650913072 291.067872433 678.586425513 c 2
 221.130562217 328.899874432 l 1
 476.374444037 518.530216011 l 2
 484.820473625 524.8050911 494.819221726 527.824304898 504.769317221 527.824304898 c 0
 519.544785008 527.824304898 534.212969012 521.166641276 543.530216011 508.625555963 c 0
 549.804897834 500.179786513 552.82425934 490.180859605 552.82425934 480.230422916 c 0
 552.82425934 465.455478414 546.167198151 450.787444712 533.625555963 441.469783989 c 2
 380.847577056 327.965240338 l 1
 504.337304904 68.6368118588 l 2
 507.429133415 62.1439719837 508.888593255 55.233495536 508.888593255 48.3924210112 c 0
 508.888593255 30.3608701644 498.749253696 12.8114769238 481.636811859 4.66269509645 c 0
EndSplineSet
EndChar

StartChar: l
Encoding: 108 108 76
Width: 360
VWidth: 0
Flags: HW
AnchorPoint: "above" -73 0 basechar 0
LayerCount: 2
Fore
SplineSet
253.430211534 735.064541966 m 0
 275.995415361 730.543205169 291.97539925 710.071639221 291.97539925 687.747844806 c 0
 291.97539925 684.710940002 291.679664291 681.639756772 291.064541966 678.569788466 c 2
 182.052049228 134.507439391 l 2
 174.683793201 98.2329481798 173.392955808 74.7294150711 173.392955808 62.5864115643 c 0
 173.392955808 56.8458277679 173.681446243 53.644219169 173.752701143 52.8325670242 c 0
 176.103578921 26.2774370606 157.171133141 3.43727279826 131.794930459 0.351088354817 c 0
 129.850804016 0.114649008101 127.915636683 -0.00101188234 125.997611289 -0.00101188234 c 0
 102.885997511 -0.00101188234 82.2633087057 16.7923779115 78.4458626915 41.4256913909 c 0
 78.1433828737 43.9128367003 77.4021959927 50.8314634406 77.4021959927 62.3349209197 c 0
 77.4021959927 80.755088164 79.3026531288 110.931095289 87.9479507719 153.492560609 c 2
 196.935458034 697.430211534 l 2
 201.457103127 719.996954014 221.929703619 735.975365991 244.252400346 735.975365991 c 0
 247.289264116 735.975365991 250.360369294 735.679639032 253.430211534 735.064541966 c 0
EndSplineSet
EndChar

StartChar: m
Encoding: 109 109 77
Width: 1080
VWidth: 0
Flags: HW
AnchorPoint: "above" -73 0 basechar 0
LayerCount: 2
Fore
SplineSet
106.628341849 0.923763707124 m 0
 84.0379217315 5.42093067498 68.024288007 25.9042473912 68.024288007 48.2506644686 c 0
 68.024288007 51.2686103909 68.3163647637 54.3205378767 68.9237637071 57.3716581509 c 2
 154.923763707 489.371658151 l 2
 159.420930675 511.962078268 179.904247391 527.975711993 202.250664469 527.975711993 c 0
 205.268610391 527.975711993 208.320537877 527.683635236 211.371658151 527.076236293 c 0
 229.935385517 523.380679456 244.056464796 508.891026792 248.501967863 491.444291228 c 1
 291.773899146 515.838501013 347.612248024 536 414 536 c 0
 474.601535056 536 531.897811413 508.744000869 563.14166559 461.469246985 c 1
 609.214313317 496.714434909 681.329169333 536 774 536 c 0
 864.500441279 536 947.629658707 475.215023922 947.629658707 377.748257789 c 0
 947.629658707 366.043900738 946.438826212 354.44119441 944.067872433 342.586425513 c 2
 883.061908829 38.5566564521 l 2
 878.534849693 15.9955748538 858.064890928 0.02470448278 835.747265958 0.02470448278 c 0
 832.70614939 0.02470448278 829.630724957 0.32125505651 826.556656452 0.938091170931 c 0
 803.997112905 5.46484168523 788.024671155 25.9337670371 788.024671155 48.2524888992 c 0
 788.024671155 51.2936463966 788.321229738 54.3691488638 788.938091171 57.4433435479 c 2
 849.932127567 361.413574487 l 2
 851.123280656 367.369339935 851.619477867 372.677831658 851.629606806 377.722612645 c 0
 851.629606806 412.295484203 825.715963012 440 774 440 c 0
 678.914254137 440 607.244177445 374.722910619 585.798317273 352.634155457 c 0
 585.31605619 349.29254067 584.739043998 345.94228345 584.067872433 342.586425513 c 2
 523.061908829 38.5566564521 l 2
 518.534849693 15.9955748538 498.064890928 0.02470448278 475.747265958 0.02470448278 c 0
 472.70614939 0.02470448278 469.630724957 0.32125505651 466.556656452 0.938091170931 c 0
 443.997112905 5.46484168523 428.024671155 25.9337670371 428.024671155 48.2524888992 c 0
 428.024671155 51.2936463966 428.321229738 54.3691488638 428.938091171 57.4433435479 c 2
 489.932127567 361.413574487 l 2
 491.122644851 367.36616091 491.629606806 372.680214012 491.629606806 377.722612645 c 0
 491.629606806 412.295484203 465.715963012 440 414 440 c 0
 318.516686166 440 246.645259808 374.175902557 225.531948065 352.359359125 c 1
 163.076236293 38.6283418491 l 2
 158.578762485 16.0363803945 138.094406179 0.0243209615216 115.749090344 0.0243209615216 c 0
 112.73118592 0.0243209615216 109.679336567 0.31638975857 106.628341849 0.923763707124 c 0
EndSplineSet
EndChar

StartChar: n
Encoding: 110 110 78
Width: 725
VWidth: 0
Flags: HW
AnchorPoint: "above" -73 0 basechar 0
LayerCount: 2
Fore
SplineSet
106.628341849 0.923763707124 m 0
 84.0379217315 5.42093067498 68.024288007 25.9042473912 68.024288007 48.2506644686 c 0
 68.024288007 51.2686103909 68.3163647637 54.3205378767 68.9237637071 57.3716581509 c 2
 154.923763707 489.371658151 l 2
 159.420930675 511.962078268 179.904247391 527.975711993 202.250664469 527.975711993 c 0
 205.268610391 527.975711993 208.320537877 527.683635236 211.371658151 527.076236293 c 0
 230.483258732 523.271612103 244.886108907 508.026355633 248.870152167 489.892043666 c 1
 293.440833177 514.940797555 351.097011004 536 419 536 c 1
 509.500441279 536 592.629658707 475.215023922 592.629658707 377.748257789 c 0
 592.629658707 366.043900738 591.438826212 354.44119441 589.067872433 342.586425513 c 2
 528.061908829 38.5566564521 l 2
 523.534849693 15.9955748538 503.064890928 0.02470448278 480.747265958 0.02470448278 c 0
 477.70614939 0.02470448278 474.630724957 0.32125505651 471.556656452 0.938091170931 c 0
 448.997112905 5.46484168523 433.024671155 25.9337670371 433.024671155 48.2524888992 c 0
 433.024671155 51.2936463966 433.321229738 54.3691488638 433.938091171 57.4433435479 c 2
 494.932127567 361.413574487 l 2
 496.122644851 367.36616091 496.629606806 372.680214012 496.629606806 377.722612645 c 0
 496.629606806 412.295484203 470.715963012 440 419 440 c 0
 323.588182331 440 248.086136002 374.055618096 225.425122566 351.822747314 c 1
 163.076236293 38.6283418491 l 2
 158.578762485 16.0363803945 138.094406179 0.0243209615216 115.749090344 0.0243209615216 c 0
 112.73118592 0.0243209615216 109.679336567 0.31638975857 106.628341849 0.923763707124 c 0
EndSplineSet
EndChar

StartChar: o
Encoding: 111 111 79
Width: 710
VWidth: 0
Flags: HW
HStem: 40 448<259.621 450.379>
VStem: 135 440<157.228 370.772>
AnchorPoint: "middle" -73 0 basechar 0
AnchorPoint: "above" -73 0 basechar 0
LayerCount: 2
Fore
SplineSet
601.053221193 254.513463469 m 0
 571.655346877 108.700006861 437.196220831 -8 290 -8 c 0
 272.868234863 -8 256.194701555 -6.37473818745 240.162845136 -3.1898020007 c 0
 131.611847967 18.375261331 61.5209710992 110.108512061 61.5209710992 219.990768971 c 0
 61.5209710992 237.434676054 63.2873907225 255.335971632 66.9467788069 273.486536531 c 0
 96.3919968362 419.534817957 231.957893681 536 379 536 c 0
 396.174863622 536 412.881848345 534.366508418 428.937762053 531.162387695 c 0
 537.348316983 509.52795991 606.51313942 417.833330847 606.51313942 308.346293117 c 0
 606.51313942 290.787756115 604.734300966 272.771619143 601.053221193 254.513463469 c 0
506.946778807 273.486536531 m 0
 509.570576142 286.500571313 510.824537632 298.960544644 510.824537632 310.788599602 c 0
 510.824537632 378.174660998 470.124231284 425.050306768 410.150430225 437.018688156 c 0
 400.480776886 438.948365733 390.097176681 440 379 440 c 0
 282.042106319 440 181.608003164 356.465182043 161.053221193 254.513463469 c 0
 158.465470973 241.678222375 157.228377534 229.372920956 157.228377534 217.675724717 c 0
 157.228377534 150.221254281 198.368011722 102.989366769 258.868925926 90.970075556 c 0
 268.552097768 89.0463878933 278.930760111 88 290 88 c 0
 386.803779169 88 486.344653123 171.299993139 506.946778807 273.486536531 c 0
EndSplineSet
EndChar

StartChar: p
Encoding: 112 112 80
Width: 735
VWidth: 0
Flags: HW
AnchorPoint: "above" -73 0 basechar 0
LayerCount: 2
Fore
SplineSet
164.464734331 44.8414143004 m 1
 125.07944401 -153.35553054 l 2
 120.588943132 -175.952889797 100.10239651 -191.975797793 77.7497469239 -191.975797793 c 0
 74.7370220318 -191.975797793 71.6903973867 -191.68472456 68.6444694595 -191.07944401 c 0
 46.0455681277 -186.588636694 30.024235077 -166.101049092 30.024235077 -143.74950173 c 0
 30.024235077 -140.736818462 30.3153003624 -137.690271972 30.9205559898 -134.64446946 c 2
 154.92055599 489.35553054 l 2
 159.411363306 511.954431872 179.898950908 527.975764923 202.25049827 527.975764923 c 0
 205.263181538 527.975764923 208.309728028 527.684699638 211.35553054 527.07944401 c 0
 230.012747736 523.37192008 244.188315677 508.760266872 248.564478315 491.197062338 c 1
 295.214360832 519.42631234 348.612370367 536 404 536 c 0
 421.174863622 536 437.881848345 534.366508418 453.937762053 531.162387695 c 0
 562.348316983 509.52795991 631.51313942 417.833330847 631.51313942 308.346293117 c 0
 631.51313942 290.787756115 629.734300966 272.771619143 626.053221193 254.513463469 c 0
 596.655346877 108.700006861 462.196220831 -8 315 -8 c 0
 256.449733552 -8 204.163356866 11.4905061843 164.464734331 44.8414143004 c 1
189.779843035 172.233574232 m 1
 206.3281974 121.975117859 250.427026229 88 315 88 c 1
 411.803779169 88 511.344653123 171.299993139 531.946778807 273.486536531 c 0
 534.570576142 286.500571313 535.824537632 298.960544644 535.824537632 310.788599602 c 0
 535.824537632 378.174660998 495.124231284 425.050306768 435.150430225 437.018688156 c 0
 425.480776886 438.948365733 415.097176681 440 404 440 c 0
 336.147301771 440 265.02700103 399.255828113 222.585412292 337.319664687 c 1
 189.779843035 172.233574232 l 1
EndSplineSet
EndChar

StartChar: q
Encoding: 113 113 81
Width: 735
VWidth: 0
Flags: HW
AnchorPoint: "above" -73 0 basechar 0
LayerCount: 2
Fore
SplineSet
443.637871402 -191.078132377 m 0
 421.043350727 -186.584903834 405.024237291 -166.099678269 405.024237291 -143.749578575 c 0
 405.024237291 -140.734717725 405.315720869 -137.685923649 405.921867623 -134.637871402 c 2
 439.294084133 33.1767030495 l 1
 394.124324422 7.15973498859 342.971998569 -8 290 -8 c 0
 157.570539295 -8 61.3808657968 91.2461340121 61.3808657968 218.876012262 c 0
 61.3808657968 236.888583099 63.2188941184 254.996228476 66.9467788069 273.486536531 c 0
 96.3920005449 419.534836352 231.957909026 536 379 536 c 0
 440.335895532 536 494.393175331 514.581299327 534.378771662 478.375927751 c 1
 539.520792146 492.217109975 543.338772747 500.000427142 544.366050674 502.067254786 c 0
 553.376179973 518.798213911 570.072383369 527.975051822 587.151889357 527.975051822 c 0
 594.335968623 527.975051822 601.587864078 526.351430739 608.36410626 522.983426616 c 0
 625.027427956 514.701235005 634.89562962 497.473406946 634.89562962 479.677484668 c 0
 634.89562962 473.038036783 633.522027514 466.319513151 630.615232265 459.956975645 c 0
 628.951890576 456.46439467 616.406695674 430.407237277 605.058959227 374.541457848 c 2
 500.078132377 -153.362128598 l 2
 495.584597231 -175.958191046 475.098331255 -191.975729804 452.749333384 -191.975729804 c 0
 449.734514107 -191.975729804 446.685798177 -191.684254179 443.637871402 -191.078132377 c 0
470.29330302 189.05848945 m 1
 503.363285611 355.353259055 l 1
 486.924028233 406.149944309 443.55749643 440 379 440 c 0
 282.042090974 440 181.607999455 356.465163648 161.053221193 254.513463469 c 0
 158.535974798 242.027921348 157.380813638 230.25337474 157.380813638 218.837545153 c 0
 157.380813638 141.963744771 208.871627739 88 290 88 c 0
 357.258894847 88 427.727690052 128.033432334 470.29330302 189.05848945 c 1
EndSplineSet
EndChar

StartChar: r
Encoding: 114 114 82
Width: 530
VWidth: 0
Flags: HW
AnchorPoint: "above" -73 0 basechar 0
LayerCount: 2
Fore
SplineSet
211.371658151 527.076236293 m 0
 233.962078268 522.579069325 249.975711993 502.095752609 249.975711993 479.749335531 c 0
 249.975711993 476.731389609 249.683635236 473.679462123 249.076236293 470.628341849 c 2
 243.777476886 444.011317852 l 1
 298.441426757 492.844818093 361.957088496 528 432 528 c 0
 458.146366075 528 480 506.144471708 480 480 c 0
 480 453.855528292 458.146366075 432 432 432 c 0
 364.510849011 432 272.813579605 350.410119679 205.206158274 250.257717383 c 1
 163.076236293 38.6283418491 l 2
 158.579069325 16.0379217315 138.095752609 0.0242880070445 115.749335531 0.0242880070445 c 0
 112.731389609 0.0242880070445 109.679462123 0.316364763655 106.628341849 0.923763707124 c 0
 84.0363803945 5.42123751522 68.0243209615 25.9055938208 68.0243209615 48.2509096558 c 0
 68.0243209615 51.26881408 68.3163897586 54.3206634326 68.9237637071 57.3716581509 c 2
 154.923763707 489.371658151 l 2
 159.421237515 511.963619606 179.905593821 527.975679038 202.250909656 527.975679038 c 0
 205.26881408 527.975679038 208.320663433 527.683610241 211.371658151 527.076236293 c 0
EndSplineSet
EndChar

StartChar: s
Encoding: 115 115 83
Width: 620
VWidth: 0
Flags: HW
AnchorPoint: "bottom" -73 0 basechar 0
LayerCount: 2
Fore
SplineSet
517.786616948 394.360161387 m 0
 509.065584974 387.458696121 498.798759286 384.269712 488.61917636 384.269712 c 0
 474.312425958 384.269712 460.178001805 390.568752323 450.749354971 401.713559769 c 0
 448.678852566 404.000563058 416.276140417 440 334 440 c 0
 250.003664605 440 199.685619054 394.350465263 196.068339451 378.566112091 c 0
 195.791379041 377.019609733 195.620790246 375.694685798 195.50947257 374.272777903 c 0
 195.403951821 372.924916608 195.101463239 370.9453119 195.101463239 368.535276344 c 0
 195.101463239 355.731557245 203.639034869 330.779167346 295.606217517 323.864341584 c 0
 316.651522615 322.278736405 335.612426425 319.858133652 352.836580234 316.587259128 c 0
 454.824601317 297.219688239 493.745895767 237.955380448 493.745895767 178.110418814 c 0
 493.745895767 168.936707796 492.831314713 159.749352448 491.089126191 150.689972131 c 0
 471.833699386 55.8940247817 372.846680702 -8 245 -8 c 0
 116.565550699 -8 49.737076855 77.8916485894 45.6983016916 83.0587291538 c 0
 39.1851682193 91.9782103039 36.0941719764 102.139044945 36.0941719764 112.110356881 c 0
 36.0941719764 126.51194004 42.5420133532 140.518177415 54.4400265055 149.818090473 c 0
 62.9866331386 156.498424207 73.4895458451 159.541914704 83.8224763527 159.541914704 c 0
 97.8085126107 159.541914704 111.483129424 153.966024256 119.573596377 144.285628536 c 0
 125.958537878 136.564416016 167.272208117 88 245 88 c 0
 344.79205064 88 389.802249874 135.4522382 396.912583452 169.319905146 c 0
 398.156769772 175.919040502 400.155392563 182.025406157 400.155392563 187.742471401 c 0
 400.155392563 200.980014792 389.440215989 212.130409643 333.834093098 222.478097107 c 0
 321.026178493 224.861509049 305.925595295 226.81476841 288.393782483 228.135658416 c 0
 158.23666933 237.921907526 99.4155993573 302.216432558 99.4155993573 371.928151816 c 0
 99.4155993573 375.197029077 99.5449351 378.477817664 99.8023162329 381.765456053 c 0
 100.234843326 387.290308087 100.825015643 391.612032042 101.921488976 397.368517039 c 0
 120.772925467 488.198165589 230.346035227 536 334 536 c 0
 461.401555064 536 518.770316723 470.467296739 526.127117417 461.170880455 c 0
 532.397343487 452.691474898 535.617084957 442.303497382 535.617084957 431.890141802 c 0
 535.617084957 417.905537733 529.810243683 403.87516403 517.786616948 394.360161387 c 0
EndSplineSet
EndChar

StartChar: t
Encoding: 116 116 84
Width: 430
VWidth: 0
Flags: HW
AnchorPoint: "bottom" -73 0 basechar 0
AnchorPoint: "above" -73 0 basechar 0
LayerCount: 2
Fore
SplineSet
79 480 m 0
 79 506.144471708 100.853633925 528 127 528 c 2
 197.731438536 528 l 1
 221.926020822 649.382989093 l 2
 226.42817608 671.9700731 246.91026042 687.97561861 269.251198482 687.97561861 c 0
 272.272771419 687.97561861 275.328346678 687.682843714 278.382989093 687.073979178 c 0
 300.968532282 682.572131043 316.975651623 662.091085316 316.975651623 639.7490467 c 0
 316.975651623 636.727432354 316.68286876 633.671778977 316.073979178 630.617010907 c 2
 295.619912815 528 l 1
 347 528 l 2
 373.144471708 528 395 506.146366075 395 480 c 0
 395 453.853633925 373.144471708 432 347 432 c 2
 276.48477768 432 l 1
 198.073979178 38.617010907 l 2
 193.572131043 16.031467718 173.091085316 0.0243483765527 150.7490467 0.0243483765527 c 0
 147.727432354 0.0243483765527 144.671778977 0.317131240208 141.617010907 0.926020821678 c 0
 119.0299269 5.42817607988 103.02438139 25.9102604196 103.02438139 48.2511984819 c 0
 103.02438139 51.2727714191 103.317156286 54.3283466779 103.926020822 57.382989093 c 2
 178.596303401 432 l 1
 127 432 l 2
 100.853633925 432 79 453.855528292 79 480 c 0
EndSplineSet
EndChar

StartChar: u
Encoding: 117 117 85
Width: 725
VWidth: 0
Flags: HW
AnchorPoint: "above" -73 0 basechar 0
LayerCount: 2
Fore
SplineSet
576.371658151 527.076236293 m 0
 598.962078268 522.579069325 614.975711993 502.095752609 614.975711993 479.749335531 c 0
 614.975711993 476.731389609 614.683635236 473.679462123 614.076236293 470.628341849 c 2
 528.076236293 38.6283418491 l 2
 523.579069325 16.0379217315 503.095752609 0.0242880070446 480.749335531 0.0242880070446 c 0
 477.731389609 0.0242880070446 474.679462123 0.316364763655 471.628341849 0.923763707124 c 0
 452.691773637 4.69354349005 438.37810121 19.6953585632 434.241927954 37.610444075 c 1
 389.794467038 12.7809815294 332.452951897 -8 265 -8 c 0
 174.499558721 -8 91.3703412929 52.7849760785 91.3703412929 150.251742211 c 0
 91.3703412929 161.915058782 92.5767166157 173.636519731 94.9202116689 185.353994997 c 2
 154.908446643 489.294385531 l 2
 159.373944266 511.919573488 179.873756635 527.976089205 202.248935473 527.976089205 c 0
 205.241827123 527.976089205 208.268272063 527.688812594 211.294385531 527.091553357 c 0
 233.918028618 522.626360643 249.976121757 502.127594529 249.976121757 479.751309735 c 0
 249.976121757 476.758375986 249.688837242 473.731852816 249.091553357 470.705614469 c 2
 189.079788331 166.646005003 l 2
 187.861853236 160.556329528 187.370393194 155.360271296 187.370393194 150.277387355 c 0
 187.370393194 115.704515797 213.284036988 88 265 88 c 0
 358.738624992 88 433.259652594 151.651789865 457.334117451 174.967853703 c 1
 519.923763707 489.371658151 l 2
 524.421237515 511.963619606 544.905593821 527.975679038 567.250909656 527.975679038 c 0
 570.26881408 527.975679038 573.320663433 527.683610241 576.371658151 527.076236293 c 0
EndSplineSet
EndChar

StartChar: v
Encoding: 118 118 86
Width: 620
VWidth: 0
Flags: HW
AnchorPoint: "above" -73 0 basechar 0
LayerCount: 2
Fore
SplineSet
132.838256363 527.117538704 m 0
 135.821638489 527.697640784 138.804494969 527.976785392 141.754471298 527.976785392 c 0
 164.18094555 527.976785392 184.707134837 511.843820665 189.117538704 489.161743637 c 2
 258.91575835 130.199471174 l 1
 480.706006386 504.470514734 l 2
 489.584577669 519.453103776 505.835337739 527.854773196 522.345602976 527.854773196 c 0
 530.620553414 527.854773196 538.96069201 525.744258933 546.470514734 521.293993614 c 0
 561.453866072 512.4149706 569.854707011 496.164210853 569.854707011 479.654526313 c 0
 569.854707011 471.379332129 567.744128076 463.03908717 563.293993614 455.529485266 c 2
 307.293993614 23.5294852655 l 2
 300.151850978 11.4771195665 283.620112479 0 266 0 c 2
 240 0 l 1
 226 0 l 2
 206.414448101 0 183.485762535 15.1641357027 178.882461296 38.8382563631 c 2
 94.8824612959 470.838256363 l 2
 94.3023351618 473.821762196 94.0231827466 476.804697045 94.0231827466 479.754716474 c 0
 94.0231827466 502.182304837 110.15773025 522.707436404 132.838256363 527.117538704 c 0
EndSplineSet
EndChar

StartChar: w
Encoding: 119 119 87
Width: 870
VWidth: 0
Flags: HW
AnchorPoint: "above" -73 0 basechar 0
LayerCount: 2
Fore
SplineSet
136.04633274 527.629338082 m 0
 137.9895984 527.87224629 139.924193909 527.990496374 141.841877611 527.990496374 c 0
 165.525255854 527.990496374 186.629206314 509.954721409 189.629338082 485.95366726 c 2
 229.313801775 168.477957718 l 1
 397.278558673 463.734391367 l 2
 406.082376272 479.21016042 424.22215578 488 439 488 c 2
 459 488 l 2
 483.015950944 488 502.750643361 468.934419755 506.313882518 448.086811553 c 2
 554.289355427 167.394492441 l 1
 729.468530001 502.250259768 l 2
 737.959871237 518.481496113 754.981217104 527.874058172 772.379630119 527.874058172 c 0
 779.812951891 527.874058172 787.315101684 526.159585107 794.250259768 522.531469999 c 0
 810.48237492 514.039669017 819.87398721 497.018213976 819.87398721 479.620420332 c 0
 819.87398721 472.186908435 818.159477747 464.684693096 814.531469999 457.749740232 c 2
 588.531469999 25.7497402321 l 2
 580.945588818 11.2492947899 564.123535483 0 546 0 c 2
 526 0 l 2
 504.850072316 0 482.732210598 16.2405242485 478.686117482 39.9131884472 c 2
 429.692224409 326.56402553 l 1
 257.721441327 24.2656086327 l 2
 250.414292613 11.4207552871 233.804680061 0 216 0 c 2
 196 0 l 2
 175.049163189 0 151.512225326 16.9138254767 148.370661918 42.0463327397 c 2
 94.3706619177 474.04633274 l 2
 94.1277423758 475.989689075 94.0094877091 477.924355933 94.0094877091 479.842094367 c 0
 94.0094877091 503.526808946 112.0469674 524.629417415 136.04633274 527.629338082 c 0
EndSplineSet
EndChar

StartChar: x
Encoding: 120 120 88
Width: 620
VWidth: 0
Flags: HW
AnchorPoint: "above" -73 0 basechar 0
LayerCount: 2
Fore
SplineSet
526.097174165 513.784356054 m 0
 535.241472273 504.555388519 539.806844833 492.280461758 539.806844833 480.007583636 c 0
 539.806844833 467.583113583 535.127994765 455.16074309 525.784356054 445.902825835 c 2
 353.443646897 275.143224102 l 1
 476.957528015 73.0296004538 l 2
 481.630766785 65.3824824674 483.85008828 56.8263690614 483.85008828 48.333846867 c 0
 483.85008828 32.0515055911 475.692147563 16.0029174405 461.029600454 7.04247198471 c 0
 453.382257207 2.36909555611 444.826260486 0.149847424924 436.33399552 0.149847424924 c 0
 420.051082144 0.149847424924 404.002469173 8.30858596569 395.042471985 22.9703995462 c 2
 283.367989176 205.710462324 l 1
 89.7843560535 13.9028258349 l 2
 80.5553885188 4.75852772702 68.2804617582 0.19315516658 56.0075836363 0.19315516658 c 0
 43.5831135832 0.19315516658 31.1607430899 4.87200523534 21.9028258349 14.2156439465 c 0
 12.7581984725 23.4449437844 8.19315361167 35.7196454843 8.19315361167 47.9920789998 c 0
 8.19315361167 60.416999136 12.8723458226 72.8395943727 22.2156439465 82.0971741651 c 2
 231.927781674 289.885347327 l 1
 131.042471985 454.970399546 l 2
 126.369095556 462.617742793 124.149847425 471.173739514 124.149847425 479.66600448 c 0
 124.149847425 495.948917856 132.308585966 511.997530827 146.970399546 520.957528015 c 0
 154.617517533 525.630766785 163.173630939 527.85008828 171.666153133 527.85008828 c 0
 187.948494409 527.85008828 203.99708256 519.692147563 212.957528015 505.029600454 c 2
 302.003439395 359.318109105 l 1
 458.215643946 514.097174165 l 2
 467.444943784 523.241801528 479.719645484 527.806846388 491.992079 527.806846388 c 0
 504.416999136 527.806846388 516.839594373 523.127654177 526.097174165 513.784356054 c 0
EndSplineSet
EndChar

StartChar: y
Encoding: 121 121 89
Width: 620
VWidth: 0
Flags: HW
AnchorPoint: "above" -73 0 basechar 0
LayerCount: 2
Fore
SplineSet
130.556024212 526.615827979 m 0
 134.270332754 527.527673995 138.007004112 527.96345777 141.699524483 527.96345777 c 0
 163.248608668 527.96345777 183.294023809 513.121783601 188.615827979 491.443975788 c 2
 270.769093248 156.801317263 l 1
 452.246923955 456.247569062 476.509339882 497.226448665 480.486206369 504.095745234 c 0
 488.942493934 518.664814313 506.347259812 526.821237781 524.061716188 526.821237781 c 0
 530.122556141 526.821237781 536.219648586 525.866443654 542.007000159 523.887015096 c 1
 559.911331812 513.494849592 569.136544181 501.696965982 569.136544181 483.744641083 c 0
 569.136544181 424.765672976 469.566359313 299.360173698 251.061944361 -60.8579672451 c 0
 219.688125668 -112.78704646 155.185257934 -194 48 -194 c 0
 26.0866076445 -194 12.7853138416 -191.782203167 9.52896045484 -191.25315976 c 0
 -14.2590189345 -186.584879713 -30.000868564 -166.336034113 -30.000868564 -143.988455052 c 0
 -30.000868564 -141.447037974 -29.7972831391 -138.878478499 -29.3787938738 -136.302604917 c 0
 -25.610752431 -113.109660174 -5.1511477226 -96.0335337988 18.2416686448 -96.0335337988 c 0
 20.2879318391 -96.0335337988 22.3566390905 -96.1641952034 24.4385815925 -96.4328533497 c 0
 27.5080526123 -96.8915099389 34.2103882406 -98 48 -98 c 0
 100.807173266 -98 142.331736017 -55.180079026 168.916053987 -11.1784492836 c 0
 179.789374815 6.74689751278 190.282755813 24.0478725378 200.40952779 40.7463181449 c 1
 95.384172021 468.556024212 l 2
 94.4722911236 472.27047484 94.0364985997 476.007217685 94.0364985997 479.699758801 c 0
 94.0364985997 501.249827385 108.879659975 521.2943782 130.556024212 526.615827979 c 0
EndSplineSet
EndChar

StartChar: z
Encoding: 122 122 90
Width: 630
VWidth: 0
Flags: HW
AnchorPoint: "above" -73 0 basechar 0
LayerCount: 2
Fore
SplineSet
479 48 m 0
 479 21.8555282921 457.146366075 0 431 0 c 2
 71 0 l 2
 44.6451520917 0 23.0033362114 22.1344177733 23.0033362114 48.0898351674 c 0
 23.0033362114 62.0937159104 32.3099987875 77.2365349251 37.2156439465 82.0971741651 c 2
 390.358310761 432 l 1
 167 432 l 2
 140.855528292 432 119 453.853633925 119 480 c 0
 119 506.146366075 140.855528292 528 167 528 c 2
 507 528 l 2
 516.33145979 528 529.497210915 523.979868535 538.341447242 516.355380411 c 0
 549.252871768 506.948799259 554.779164253 493.452383309 554.779164253 479.937145662 c 0
 554.779164253 467.567876652 550.15029874 455.182842441 540.784356054 445.902825835 c 2
 187.641689239 96 l 1
 431 96 l 2
 457.146366075 96 479 74.1444717079 479 48 c 0
EndSplineSet
EndChar

StartChar: braceleft
Encoding: 123 123 91
Width: 540
VWidth: 0
Flags: HW
LayerCount: 2
Fore
SplineSet
133.305301695 356.882214689 m 0
 132.37698787 360.781132757 131.971623425 364.700953032 132.042322327 368.565458066 c 0
 132.062761424 372.430556979 132.560436056 376.339731024 133.580422211 380.215678365 c 0
 135.853450388 388.853185436 140.465590147 396.35754482 146.561500927 402.229621098 c 0
 152.576569796 408.188632753 160.189946441 412.625111622 168.882214689 414.694698305 c 0
 289.081803896 443.313648116 294.632142661 504.671001495 294.632142661 572.657029518 c 0
 294.632142661 579.574522664 294.574681073 586.560641202 294.574681073 593.58788153 c 0
 294.574681073 676.708877192 302.614189389 765.58326371 508.882214689 814.694698305 c 0
 512.492674743 815.554331651 516.121058553 815.965533072 519.706844615 815.965533072 c 0
 541.380749782 815.965533072 561.498358841 800.942411061 566.694698305 779.117785311 c 0
 567.554364907 775.50718558 567.965575053 771.87872873 567.965575053 768.292918086 c 0
 567.965575053 746.618011321 552.940951734 726.501293701 531.117785311 721.305301695 c 0
 410.56925795 692.603271371 405.385797876 630.903075891 405.385797876 562.617500468 c 0
 405.385797876 556.19255237 405.431686079 549.709305133 405.431686079 543.189759441 c 0
 405.431686079 478.238536629 400.877182425 409.684613393 301.019342108 359.282341437 c 1
 330.265081721 330.581670634 340.231070854 296.497725411 340.231070854 262.082334451 c 0
 340.231070854 197.855377197 305.52146437 132.474058754 296.638990952 98.7737960833 c 0
 293.540913729 87.0196358046 290.373758905 76.8669521903 290.373758905 67.694934656 c 0
 290.373758905 47.3731387571 305.921371543 31.865448005 372.215678365 14.4195777886 c 0
 393.540439358 8.80779857993 407.958382076 -11.0614501641 407.958382076 -32.3167401366 c 0
 407.958382076 -36.2627348905 407.46146693 -40.2564996274 406.419577789 -44.2156783654 c 0
 400.807428629 -65.5418451719 380.937378927 -79.9583346293 359.683034371 -79.9583346293 c 0
 355.737050493 -79.9583346293 351.743352839 -79.4614281056 347.784321635 -78.4195777886 c 0
 238.202276462 -49.58219748 197.672774337 12.4610800925 197.672774337 77.8011918929 c 0
 197.672774337 92.8948205909 199.835487117 108.164373126 203.809322129 123.241174085 c 0
 222.036069686 192.393779619 251.002720164 234.245930104 251.002720164 263.939969593 c 0
 251.002720164 288.671018924 230.909719295 304.968475459 167.784321635 321.580422211 c 0
 159.143183813 323.854405849 151.636466394 328.469230085 145.763545946 334.568496974 c 0
 139.807872412 340.582645531 135.374021642 348.193601504 133.305301695 356.882214689 c 0
EndSplineSet
EndChar

StartChar: bar
Encoding: 124 124 92
Width: 360
VWidth: 0
Flags: HW
LayerCount: 2
Fore
SplineSet
269.413574487 815.067872433 m 0
 291.985946779 810.553397975 307.975488308 790.078489371 307.975488308 767.74826791 c 0
 307.975488308 764.716750503 307.680795129 761.651038993 307.067872433 758.586425513 c 2
 147.067872433 -41.4135744866 l 2
 142.553397975 -63.9859467788 122.078489371 -79.9754883078 99.7482679102 -79.9754883078 c 0
 96.7167505034 -79.9754883078 93.6510389928 -79.680795129 90.5864255134 -79.0678724332 c 0
 68.0125138044 -74.5530900914 52.024544865 -54.0771455113 52.024544865 -31.7480227462 c 0
 52.024544865 -28.7165465063 52.3192300552 -25.6509130718 52.9321275668 -22.5864255134 c 2
 212.932127567 777.413574487 l 2
 217.446909909 799.987486196 237.922854489 815.975455135 260.251977254 815.975455135 c 0
 263.283453494 815.975455135 266.349086928 815.680769945 269.413574487 815.067872433 c 0
EndSplineSet
EndChar

StartChar: braceright
Encoding: 125 125 93
Width: 540
VWidth: 0
Flags: HW
LayerCount: 2
Fore
SplineSet
406.694698305 379.117785311 m 0
 407.62301213 375.218867243 408.028376575 371.299046968 407.957677673 367.434541934 c 0
 407.937238576 363.569443021 407.439563944 359.660268976 406.419577789 355.784321635 c 0
 404.146549612 347.146814564 399.534409853 339.64245518 393.438499073 333.770378902 c 0
 387.423430204 327.811367247 379.810053559 323.374888378 371.117785311 321.305301695 c 0
 250.918196104 292.686351884 245.367857339 231.328998505 245.367857339 163.342970482 c 0
 245.367857339 156.425477336 245.425318927 149.439358798 245.425318927 142.41211847 c 0
 245.425318927 59.2911228081 237.385810611 -29.5832637096 31.1177853107 -78.6946983049 c 0
 27.5073252571 -79.554331651 23.8789414467 -79.9655330716 20.2931553847 -79.9655330716 c 0
 -1.3807497821 -79.9655330716 -21.4983588405 -64.9424110611 -26.6946983049 -43.1177853107 c 0
 -27.5543649075 -39.5071855798 -27.9655750526 -35.8787287296 -27.9655750526 -32.2929180855 c 0
 -27.9655750526 -10.6180113214 -12.9409517336 9.49870629944 8.88221468931 14.6946983049 c 0
 129.43074205 43.3967286289 134.614202124 105.096924109 134.614202124 173.382499532 c 0
 134.614202124 179.80744763 134.568313921 186.290694867 134.568313921 192.810240559 c 0
 134.568313921 257.761463371 139.122817575 326.315386607 238.980657892 376.717658563 c 1
 209.734918279 405.418329366 199.768929146 439.502274589 199.768929146 473.917665549 c 0
 199.768929146 538.144622803 234.47853563 603.525941246 243.361009048 637.226203917 c 0
 246.459086271 648.980364195 249.626241095 659.13304781 249.626241095 668.305065344 c 0
 249.626241095 688.626861243 234.078628457 704.134551995 167.784321635 721.580422211 c 0
 146.459560642 727.19220142 132.041617924 747.061450164 132.041617924 768.316740137 c 0
 132.041617924 772.26273489 132.53853307 776.256499627 133.580422211 780.215678365 c 0
 139.192571371 801.541845172 159.062621073 815.958334629 180.316965629 815.958334629 c 0
 184.262949507 815.958334629 188.256647161 815.461428106 192.215678365 814.419577789 c 0
 301.797723538 785.58219748 342.327225663 723.538919907 342.327225663 658.198808107 c 0
 342.327225663 643.105179409 340.164512883 627.835626874 336.190677871 612.758825915 c 0
 317.963930314 543.606220381 288.997279836 501.754069896 288.997279836 472.060030407 c 0
 288.997279836 447.328981076 309.090280705 431.031524541 372.215678365 414.419577789 c 0
 380.856816187 412.145594151 388.363533606 407.530769915 394.236454054 401.431503026 c 0
 400.192127588 395.417354469 404.625978358 387.806398496 406.694698305 379.117785311 c 0
EndSplineSet
EndChar

StartChar: asciitilde
Encoding: 126 126 94
Width: 810
VWidth: 0
Flags: HW
LayerCount: 2
Fore
SplineSet
73.5028091092 175.976271102 m 0
 59.6947309624 185.117730246 52.1613174949 200.619939781 52.1613174949 216.297739304 c 0
 52.1613174949 225.371811858 54.6849498435 234.504705633 59.976271102 242.497190891 c 0
 115.484374309 326.341598531 180.093965641 351.716549907 246.010723415 351.716549907 c 0
 347.093034747 351.716549907 451.249244716 292.045473655 530.372236137 292.045473655 c 0
 565.748502282 292.045473655 596.120561275 303.973880943 618.976271102 338.497190891 c 0
 628.117730246 352.305269038 643.619939781 359.838682505 659.297739304 359.838682505 c 0
 668.371811858 359.838682505 677.504705633 357.315050156 685.497190891 352.023728898 c 0
 699.305928531 342.881833145 706.838624495 327.379706508 706.838624495 311.702458124 c 0
 706.838624495 302.628093333 704.314892531 293.495056275 699.023728898 285.502809109 c 0
 643.515186037 201.657737375 578.906057207 176.282467571 512.99001858 176.282467571 c 0
 411.90762477 176.282467571 307.751863767 235.955692061 228.628513647 235.955692061 c 0
 193.252260163 235.955692061 162.880003424 224.026972029 140.023728898 189.502809109 c 0
 130.881833145 175.694071469 115.379706508 168.161375505 99.7024581241 168.161375505 c 0
 90.6280933331 168.161375505 81.4950562748 170.685107469 73.5028091092 175.976271102 c 0
EndSplineSet
EndChar

StartChar: tildecomb
Encoding: 771 771 95
Width: 0
VWidth: 0
Flags: HW
AnchorPoint: "above" -73 0 mark 0
LayerCount: 2
Fore
SplineSet
-110.615972588 781.142681732 m 0
 -127.645384358 789.731816865 -136.65563941 807.097864827 -136.65563941 824.482688926 c 0
 -136.65563941 831.480841919 -135.195604135 838.482037426 -132.210885429 844.914992691 c 0
 -128.93733887 851.4053519 -85.5026601782 936 23 936 c 0
 144.516159359 936 132.513272968 872 171 872 c 0
 217.598139747 872 238.674865304 907.045432759 239.901508958 909.227983777 c 0
 249.650237125 927.078726524 266.064040138 936.122179708 282.831131911 936.122179708 c 0
 290.20327806 936.122179708 297.643721299 934.373917038 304.615972588 930.857318268 c 0
 321.037590723 922.574736394 330.89181467 905.86855008 330.89181467 888.025393956 c 0
 330.89181467 881.074214205 329.396281275 873.950481411 326.210885429 867.085007309 c 0
 323.582924243 861.874630193 280.247967926 776 171 776 c 0
 49.4867270322 776 61.4838406412 840 23 840 c 0
 -23.2517906093 840 -44.331529151 805.565460769 -45.9015089581 802.772016223 c 0
 -55.091731718 785.943943938 -71.8476367406 776.019236064 -89.3531458455 776.019236064 c 0
 -96.4695138783 776.019236064 -103.709761357 777.659391627 -110.615972588 781.142681732 c 0
EndSplineSet
EndChar

StartChar: dotlessi
Encoding: 305 305 96
Width: 360
VWidth: 0
Flags: HW
AnchorPoint: "above" -73 0 basechar 0
LayerCount: 2
Fore
SplineSet
106.628341849 0.923763707124 m 0
 84.0379217315 5.42093067498 68.024288007 25.9042473912 68.024288007 48.2506644686 c 0
 68.024288007 51.2686103909 68.3163647637 54.3205378767 68.9237637071 57.3716581509 c 2
 154.923763707 489.371658151 l 2
 159.420930675 511.962078268 179.904247391 527.975711993 202.250664469 527.975711993 c 0
 205.268610391 527.975711993 208.320537877 527.683635236 211.371658151 527.076236293 c 0
 233.963619606 522.578762485 249.975679038 502.094406179 249.975679038 479.749090344 c 0
 249.975679038 476.73118592 249.683610241 473.679336567 249.076236293 470.628341849 c 2
 163.076236293 38.6283418491 l 2
 158.578762485 16.0363803945 138.094406179 0.0243209615216 115.749090344 0.0243209615216 c 0
 112.73118592 0.0243209615216 109.679336567 0.31638975857 106.628341849 0.923763707124 c 0
EndSplineSet
EndChar

StartChar: uni0237
Encoding: 567 567 97
Width: 360
VWidth: 0
Flags: HW
AnchorPoint: "above" -73 0 basechar 0
LayerCount: 2
Fore
SplineSet
211.34699106 527.081140153 m 0
 233.948023451 522.594170487 249.975843165 502.105914812 249.975843165 479.749964892 c 0
 249.975843165 476.740004351 249.685300579 473.696187382 249.081140153 470.65300894 c 2
 141.074529838 -73.3802874648 l 2
 128.321023975 -137.147816776 67.9354105903 -192 -22 -192 c 0
 -38.4642278132 -192 -48.9272939147 -189.39390242 -51.8779760706 -188.757827225 c 0
 -74.5426415105 -183.090069427 -88.9998059365 -163.361128787 -88.9998059365 -141.965577743 c 0
 -88.9998059365 -138.630250044 -88.6484775928 -135.254421493 -87.9221452652 -131.88504653 c 0
 -83.1224277752 -109.619690395 -62.8112907152 -94.0305395381 -40.7321193317 -94.0305395381 c 0
 -37.4657778084 -94.0305395381 -34.1607418656 -94.371716818 -30.8615084473 -95.0829288124 c 0
 -30.5427993701 -95.1446144402 -25.1472546104 -96 -22 -96 c 0
 28.0665807898 -96 43.6733619024 -70.8802538357 46.9321275668 -54.5864255134 c 2
 154.918859847 489.34699106 l 2
 159.406135738 511.949565917 179.89543313 527.975810339 202.250280305 527.975810339 c 0
 205.260199155 527.975810339 208.303937958 527.685275696 211.34699106 527.081140153 c 0
EndSplineSet
EndChar

StartChar: gravecomb
Encoding: 768 768 98
Width: 0
VWidth: 0
Flags: HW
AnchorPoint: "above" -73 0 mark 0
LayerCount: 2
Fore
SplineSet
-56.0256945115 931.124283589 m 0
 -48.2424201835 949.042029698 -30.2222785655 959.902259196 -11.6043795176 959.902259196 c 0
 -5.30548571424 959.902259196 1.06182952968 958.659158718 7.1242835887 956.025694511 c 2
 228.124283589 860.025694511 l 2
 246.042029698 852.242420184 256.902259196 834.222278566 256.902259196 815.604379518 c 0
 256.902259196 809.305485714 255.659158718 802.93817047 253.025694511 796.875716411 c 0
 245.24196578 778.956924228 227.221530626 768.097811472 208.604321801 768.097811472 c 0
 202.30531083 768.097811472 195.937983417 769.340922536 189.875716411 771.974305489 c 2
 -31.1242835887 867.974305489 l 2
 -49.0430757719 875.75803422 -59.9021885281 893.778469374 -59.9021885281 912.395678199 c 0
 -59.9021885281 918.69468917 -58.659077464 925.062016583 -56.0256945115 931.124283589 c 0
EndSplineSet
EndChar

StartChar: acutecomb
Encoding: 769 769 99
Width: 0
VWidth: 0
Flags: HW
AnchorPoint: "above" -73 0 mark 0
LayerCount: 2
Fore
SplineSet
-76.0077466889 799.317591961 m 0
 -77.9874058756 804.658547475 -78.9236623318 810.169131574 -78.9236623318 815.615889282 c 0
 -78.9236623318 835.169418891 -66.8575034728 853.900375408 -47.6824080391 861.007746689 c 2
 211.317591961 957.007746689 l 2
 216.658547475 958.987405876 222.169131574 959.923662332 227.615889282 959.923662332 c 0
 247.169418891 959.923662332 265.900375408 947.857503473 273.007746689 928.682408039 c 0
 274.987470389 923.341278474 275.923727746 917.830671213 275.923727746 912.383978635 c 0
 275.923727746 892.82968613 263.856327117 874.099188568 244.682408039 866.992253311 c 2
 -14.3175919609 770.992253311 l 2
 -19.6587215258 769.012529611 -25.1693287866 768.076272254 -30.6160213651 768.076272254 c 0
 -50.1703138702 768.076272254 -68.9008114321 780.143672883 -76.0077466889 799.317591961 c 0
EndSplineSet
EndChar

StartChar: uni0302
Encoding: 770 770 100
Width: 0
VWidth: 0
Flags: HW
AnchorPoint: "above" -73 0 mark 0
LayerCount: 2
Fore
SplineSet
-90.711238215 810.096800915 m 0
 -94.2196567897 816.938217136 -95.8770930291 824.312005046 -95.8770930291 831.616819665 c 0
 -95.8770930291 849.151569765 -86.3267802738 866.288888887 -69.9031990846 874.711238215 c 2
 86.0968009154 954.711238215 l 2
 92.7831697117 958.14014529 100.221921296 959.646243657 107.500828348 959.646243657 c 0
 117.402463423 959.646243657 127.008311368 956.859257427 134.022089751 952.334239115 c 2
 258.022089751 872.334239115 l 2
 272.108374566 863.246313428 279.842278656 847.564697656 279.842278656 831.689612212 c 0
 279.842278656 822.805754197 277.420302536 813.861308551 272.334239115 805.977910249 c 0
 263.245872651 791.890942229 247.564321983 784.157781598 231.689794244 784.157781598 c 0
 222.805655245 784.157781598 213.86107481 786.579848265 205.977910249 791.665760885 c 2
 105.254675242 856.648493148 l 1
 -26.0968009154 789.288761785 l 2
 -32.9384201635 785.780239094 -40.3121487728 784.122835648 -47.6167815819 784.122835648 c 0
 -65.1521578736 784.122835648 -82.2893490224 793.67411699 -90.711238215 810.096800915 c 0
EndSplineSet
EndChar

StartChar: uni0308
Encoding: 776 776 101
Width: 0
VWidth: 0
Flags: HW
AnchorPoint: "above" -73 0 mark 0
LayerCount: 2
Fore
SplineSet
-40.7898041974 769.008939853 m 0
 -63.1993636837 773.677598079 -78.9734364518 794.07616951 -78.9734364518 816.261207576 c 0
 -78.9734364518 819.414659784 -78.6547262316 822.604206993 -77.9910601474 825.789804197 c 2
 -67.9910601474 873.789804197 l 2
 -63.3224019211 896.199363684 -42.9238304904 911.973436452 -20.7387924241 911.973436452 c 0
 -17.5853402161 911.973436452 -14.395793007 911.654726232 -11.2101958026 910.991060147 c 0
 11.2008857545 906.322084823 26.9734013197 885.922509722 26.9734013197 863.738547844 c 0
 26.9734013197 860.58513366 26.6546993279 857.395663869 25.9910601474 854.210195803 c 2
 15.9910601474 806.210195803 l 2
 11.322084823 783.799114246 -9.07749027799 768.02659868 -31.261452156 768.02659868 c 0
 -34.4148663401 768.02659868 -37.604336131 768.345300672 -40.7898041974 769.008939853 c 0
199.210195803 769.008939853 m 0
 176.800636316 773.677598079 161.026563548 794.07616951 161.026563548 816.261207576 c 0
 161.026563548 819.414659784 161.345273768 822.604206993 162.008939853 825.789804197 c 2
 172.008939853 873.789804197 l 2
 176.677598079 896.199363684 197.07616951 911.973436452 219.261207576 911.973436452 c 0
 222.414659784 911.973436452 225.604206993 911.654726232 228.789804197 910.991060147 c 0
 251.200885754 906.322084823 266.97340132 885.922509722 266.97340132 863.738547844 c 0
 266.97340132 860.58513366 266.654699328 857.395663869 265.991060147 854.210195803 c 2
 255.991060147 806.210195803 l 2
 251.322084823 783.799114246 230.922509722 768.02659868 208.738547844 768.02659868 c 0
 205.58513366 768.02659868 202.395663869 768.345300672 199.210195803 769.008939853 c 0
EndSplineSet
EndChar

StartChar: uni030A
Encoding: 778 778 102
Width: 0
VWidth: 0
Flags: HW
HStem: 816 160<-68.9831 68.9831>
VStem: -100 200<840.814 951.186>
AnchorPoint: "above" -73 0 mark 0
LayerCount: 2
Fore
SplineSet
252.02631675 886.380980665 m 0
 236.978569705 812.814217335 161.482638036 768 89 768 c 0
 78.0831658486 768 67.416988777 769.025983749 57.1269750914 771.057559145 c 0
 3.51463640534 781.642336928 -44.3675099169 824.625678722 -44.3675099169 882.978901561 c 0
 -44.3675099169 890.295181435 -43.6148053756 897.853074941 -42.0263167496 905.619019335 c 0
 -26.9785697048 979.185782665 48.5173619645 1024 121 1024 c 0
 131.916834151 1024 142.583011223 1022.97401625 152.873024909 1020.94244085 c 0
 206.485363595 1010.35766307 254.367509917 967.374321278 254.367509917 909.021098439 c 0
 254.367509917 901.704818565 253.614805376 894.146925059 252.02631675 886.380980665 c 0
158.315329155 908.819023266 m 0
 158.315329155 914.667520491 154.61966286 922.744478595 134.278513177 926.760467349 c 0
 130.339410652 927.538171249 125.895665849 928 121 928 c 0
 83.4826380355 928 54.9785697048 900.814217335 52.0263167496 886.380980665 c 0
 51.8334036745 885.437850076 51.684670845 884.354255832 51.684670845 883.180976734 c 0
 51.684670845 877.332479509 55.3803371398 869.255521405 75.7214868226 865.239532651 c 0
 79.660589348 864.461828751 84.1043341514 864 89 864 c 0
 126.564942924 864 158.315329155 891.404515239 158.315329155 908.819023266 c 0
EndSplineSet
EndChar

StartChar: uni0327
Encoding: 807 807 103
Width: 0
VWidth: 0
Flags: HW
AnchorPoint: "bottom" -73 0 mark 0
LayerCount: 2
Fore
SplineSet
-241 -200 m 0
 -241 -173.855528292 -219.146366075 -152 -193 -152 c 0
 -118.318804333 -152 -77.7331431378 -138.48025163 -69.6815090222 -130.918588683 c 1
 -85.0813521599 -124.874623086 -120.052880346 -120 -168 -120 c 0
 -194.354847908 -120 -215.996663789 -97.8655822267 -215.996663789 -71.9101648326 c 0
 -215.996663789 -58.8554950571 -209.129979063 -45.8138340853 -203.330975138 -39.5081210788 c 2
 -100.330975138 72.4918789212 l 2
 -90.9875920735 82.6516740976 -77.9699031624 87.8083031171 -64.9298266791 87.8083031171 c 0
 -53.2703302686 87.8083031171 -41.5929357837 83.6857600894 -32.5081210788 75.3309751376 c 0
 -22.3479361741 65.9872336627 -17.1917109081 52.969763057 -17.1917109081 39.9301575278 c 0
 -17.1917109081 28.2702400718 -21.3145266691 16.5926239686 -29.6690248624 7.50812107883 c 2
 -66.2653650128 -32.2859575313 l 1
 -30.9218979119 -39.7819797715 20.0886185307 -58.9654398111 28.1608669736 -112.850362395 c 0
 28.8111664603 -117.191326099 29.110362763 -121.507142078 29.110362763 -125.765132932 c 0
 29.110362763 -132.636381231 28.331218174 -139.35704567 26.9910601474 -145.789804197 c 0
 7.53440031714 -239.181771383 -99.8994976934 -248 -193 -248 c 0
 -219.146366075 -248 -241 -226.144471708 -241 -200 c 0
EndSplineSet
EndChar

StartChar: dieresis
Encoding: 168 168 104
Width: 600
VWidth: 0
Flags: HW
AnchorPoint: "above" -73 0 mark 0
LayerCount: 2
Fore
SplineSet
224.210195803 593.008939853 m 0
 201.800636316 597.677598079 186.026563548 618.07616951 186.026563548 640.261207576 c 0
 186.026563548 643.414659784 186.345273768 646.604206993 187.008939853 649.789804197 c 2
 197.008939853 697.789804197 l 2
 201.677598079 720.199363684 222.07616951 735.973436452 244.261207576 735.973436452 c 0
 247.414659784 735.973436452 250.604206993 735.654726232 253.789804197 734.991060147 c 0
 276.200885754 730.322084823 291.97340132 709.922509722 291.97340132 687.738547844 c 0
 291.97340132 684.58513366 291.654699328 681.395663869 290.991060147 678.210195803 c 2
 280.991060147 630.210195803 l 2
 276.322084823 607.799114246 255.922509722 592.02659868 233.738547844 592.02659868 c 0
 230.58513366 592.02659868 227.395663869 592.345300672 224.210195803 593.008939853 c 0
464.210195803 593.008939853 m 0
 441.800636316 597.677598079 426.026563548 618.07616951 426.026563548 640.261207576 c 0
 426.026563548 643.414659784 426.345273768 646.604206993 427.008939853 649.789804197 c 2
 437.008939853 697.789804197 l 2
 441.677598079 720.199363684 462.07616951 735.973436452 484.261207576 735.973436452 c 0
 487.414659784 735.973436452 490.604206993 735.654726232 493.789804197 734.991060147 c 0
 516.200885754 730.322084823 531.97340132 709.922509722 531.97340132 687.738547844 c 0
 531.97340132 684.58513366 531.654699328 681.395663869 530.991060147 678.210195803 c 2
 520.991060147 630.210195803 l 2
 516.322084823 607.799114246 495.922509722 592.02659868 473.738547844 592.02659868 c 0
 470.58513366 592.02659868 467.395663869 592.345300672 464.210195803 593.008939853 c 0
EndSplineSet
EndChar

StartChar: cedilla
Encoding: 184 184 106
Width: 400
VWidth: 0
Flags: HW
AnchorPoint: "bottom" -73 0 mark 0
LayerCount: 2
Fore
SplineSet
-41 -200 m 0
 -41 -173.855528292 -19.1463660754 -152 7 -152 c 0
 81.681195667 -152 122.266856862 -138.48025163 130.318490978 -130.918588683 c 1
 114.91864784 -124.874623086 79.9471196537 -120 32 -120 c 0
 5.64515209171 -120 -15.9966637886 -97.8655822267 -15.9966637886 -71.9101648326 c 0
 -15.9966637886 -58.8554950571 -9.12997906313 -45.8138340853 -3.33097513758 -39.5081210788 c 2
 99.6690248624 72.4918789212 l 2
 109.012407926 82.6516740976 122.030096838 87.8083031171 135.070173321 87.8083031171 c 0
 146.729669731 87.8083031171 158.407064216 83.6857600894 167.491878921 75.3309751376 c 0
 177.652063826 65.9872336627 182.808289092 52.969763057 182.808289092 39.9301575278 c 0
 182.808289092 28.2702400718 178.685473331 16.5926239686 170.330975138 7.50812107883 c 2
 133.734634987 -32.2859575313 l 1
 169.078102088 -39.7819797715 220.088618531 -58.9654398111 228.160866974 -112.850362395 c 0
 228.81116646 -117.191326099 229.110362763 -121.507142078 229.110362763 -125.765132932 c 0
 229.110362763 -132.636381231 228.331218174 -139.35704567 226.991060147 -145.789804197 c 0
 207.534400317 -239.181771383 100.100502307 -248 7 -248 c 0
 -19.1463660754 -248 -41 -226.144471708 -41 -200 c 0
EndSplineSet
EndChar

StartChar: minus
Encoding: 8722 8722 161
Width: 800
VWidth: 0
Flags: HW
LayerCount: 2
Fore
SplineSet
82 368 m 0
 82 394.144471708 103.853633925 416 130 416 c 2
 670 416 l 2
 696.144471708 416 718 394.146366075 718 368 c 0
 718 341.853633925 696.144471708 320 670 320 c 2
 130 320 l 2
 103.853633925 320 82 341.855528292 82 368 c 0
EndSplineSet
EndChar

StartChar: degree
Encoding: 176 176 164
Width: 600
VWidth: 32
Flags: HW
HStem: 432 256<210.562 389.438>
VStem: 140 320<488.45 631.55>
AnchorPoint: "above" -73 0 mark 0
LayerCount: 2
Fore
SplineSet
545.093210543 550.714014822 m 0
 525.194354787 449.7983892 418.235829713 384 313 384 c 0
 297.347022954 384 282.150535997 385.458298701 267.586611538 388.311349148 c 0
 191.221048338 403.271245761 127.960676696 461.685075793 127.960676696 539.732827754 c 0
 127.960676696 549.303295525 128.911888591 559.16898793 130.906789457 569.285985178 c 0
 150.869568732 670.525794358 258.986699152 736 364 736 c 0
 379.28938111 736 394.133053605 734.608558268 408.370311313 731.880115468 c 0
 485.275278268 717.141968019 548.055586782 658.429773461 548.055586782 580.436591801 c 0
 548.055586782 570.807469514 547.098649279 560.884454124 545.093210543 550.714014822 c 0
450.906789457 569.285985178 m 0
 451.63686819 572.988527325 452.012408004 576.688060351 452.012408004 580.345831242 c 0
 452.012408004 605.814663107 433.80529698 629.258762026 390.301578946 637.595859568 c 0
 382.25952452 639.1370472 373.46061889 640 364 640 c 0
 293.013300848 640 233.130431268 591.474205642 225.093210543 550.714014822 c 0
 224.388761047 547.141449517 224.026427693 543.560574977 224.026427693 540.009499601 c 0
 224.026427693 514.799935217 242.2872031 491.092180826 286.042072696 482.520669034 c 0
 294.291681144 480.904583402 303.314455645 480 313 480 c 0
 383.764170287 480 442.805645213 528.2016108 450.906789457 569.285985178 c 0
EndSplineSet
EndChar

StartChar: uni00B2
Encoding: 178 178 165
Width: 660
VWidth: 516
Flags: HW
LayerCount: 2
Fore
SplineSet
230.586425513 846.932127567 m 0
 208.014053221 851.446602025 192.024511692 871.921510629 192.024511692 894.25173209 c 0
 192.024511692 897.283249497 192.319204871 900.348961007 192.932127567 903.413574487 c 0
 215.984811216 1018.67699273 336.349893017 1062 445 1062 c 0
 465.533065493 1062 485.147830785 1060.22132922 503.67690384 1056.69912723 c 0
 583.675782771 1041.49209498 651.917018822 986.513481373 651.917018822 907.181870713 c 0
 651.917018822 898.040365459 651.01089037 888.575493501 649.112209012 878.810846519 c 0
 635.326637774 808.35126019 581.682923019 773.77980655 491.210130038 734.0115459 c 0
 333.879883579 665.751862251 269.321130456 636.543463101 239.323065259 576 c 1
 557 576 l 2
 583.144471708 576 605 554.146366075 605 528 c 0
 605 501.853633925 583.144471708 480 557 480 c 2
 174 480 l 2
 154.807369714 480 126.004447911 499.008356091 126.004447911 528.224521188 c 0
 126.004447911 531.124184562 126.288164867 534.124397752 126.893152567 537.216557107 c 0
 158.983689617 701.234857585 269.903803024 742.641059979 452.789869962 821.9884541 c 0
 544.322318637 862.222497474 550.66842181 875.623488796 554.893152567 897.216557107 c 0
 555.505448116 900.365505644 555.842510928 903.566286178 555.842510928 906.77938669 c 0
 555.842510928 929.179231901 539.461064243 952.177835068 485.749238048 962.387946556 c 0
 473.629898111 964.691718754 459.97053163 966 445 966 c 0
 351.650106983 966 296.015188784 929.323007267 287.067872433 884.586425513 c 0
 282.553090091 862.012513804 262.077145511 846.024544865 239.748022746 846.024544865 c 0
 236.716546506 846.024544865 233.650913072 846.319230055 230.586425513 846.932127567 c 0
EndSplineSet
EndChar

StartChar: uni00B3
Encoding: 179 179 166
Width: 660
VWidth: 516
Flags: HW
LayerCount: 2
Fore
SplineSet
169.940530805 650.607541729 m 0
 176.270560721 653.51935549 182.972498113 654.893749202 189.605348793 654.893749202 c 0
 207.860767351 654.893749202 225.592853455 644.482704572 233.607541729 627.059469195 c 0
 245.838860077 600.469646698 288.912152881 570 359 570 c 0
 459.305446603 570 540.368883333 631.810387798 549.867745596 681.085735789 c 0
 550.997703423 686.947392013 551.500613876 692.371627749 551.509416712 697.613972922 c 0
 551.509416712 734.967211682 523.598921932 777 428 777 c 0
 406.892795021 777 369.931600892 769.202561014 344.186614139 761.846850513 c 0
 339.921802801 760.628332988 335.602889142 760.048516558 331.335905963 760.048516558 c 0
 323.254443914 760.048516558 315.359259342 762.128349879 308.370708375 765.88797117 c 0
 297.686806487 771.622558819 289.10525143 781.28682326 285.234470752 793.525320982 c 0
 285.166721719 793.739527485 285.100606813 793.953918656 285.03611849 794.168480421 c 0
 284.971578027 794.3826979 284.908484223 794.597668948 284.846850513 794.813385861 c 0
 283.628289006 799.078351138 283.048464525 803.397324935 283.048464525 807.664305076 c 0
 283.048464525 815.745904515 285.128400404 823.64099325 288.888016127 830.629384932 c 0
 294.622382455 841.312995342 304.286309308 849.89458598 316.525320982 853.765529248 c 0
 410.66048443 883.538511175 468.723438621 926.051440096 502.919080328 960 c 1
 251 960 l 2
 224.855528292 960 203 981.853633925 203 1008 c 0
 203 1034.14636608 224.855528292 1056 251 1056 c 2
 596 1056 l 2
 596.987322034 1056 605.383556111 1055.26992034 609.510435055 1054.05939801 c 0
 630.373883508 1047.93959884 643.919021947 1028.26686683 643.919021947 1007.58382716 c 0
 643.919021947 1002.02011926 642.938892675 996.383305276 640.857430183 990.917524845 c 0
 638.570040974 984.910994714 611.966436043 920.282911019 529.084523535 855.793935816 c 1
 600.984650702 828.85544022 647.509459558 772.016520709 647.509459558 697.639300275 c 0
 647.509459558 685.98722706 646.364301911 674.493010655 644.132254404 662.914264211 c 0
 621.631116667 546.189612202 486.694553397 474 359 474 c 0
 265.087847119 474 180.161139923 513.530353302 146.392458271 586.940530805 c 0
 143.480556105 593.270752905 142.106179231 599.972662946 142.106179231 606.605375193 c 0
 142.106179231 624.861460413 152.518291328 642.593311569 169.940530805 650.607541729 c 0
EndSplineSet
EndChar

StartChar: uni00B9
Encoding: 185 185 167
Width: 360
VWidth: 492
Flags: HW
LayerCount: 2
Fore
SplineSet
316.31923138 1055.08664276 m 0
 338.932198931 1050.6111596 354.975990371 1030.1173538 354.975990371 1007.75067411 c 0
 354.975990371 1004.74969903 354.687169383 1001.7150084 354.086642761 998.68076862 c 2
 259.086642761 518.68076862 l 2
 254.6111596 496.067801069 234.117353802 480.024009629 211.75067411 480.024009629 c 0
 208.749699029 480.024009629 205.715008396 480.312830617 202.68076862 480.913357239 c 0
 180.066257334 485.389145931 164.02404231 505.883995841 164.02404231 528.249571094 c 0
 164.02404231 531.250504268 164.312855376 534.285116701 164.913357239 537.31923138 c 2
 259.913357239 1017.31923138 l 2
 264.389145931 1039.93374267 284.883995841 1055.97595769 307.249571094 1055.97595769 c 0
 310.250504268 1055.97595769 313.285116701 1055.68714462 316.31923138 1055.08664276 c 0
EndSplineSet
EndChar

StartChar: minute
Encoding: 8242 8242 168
Width: 320
VWidth: 0
Flags: HW
LayerCount: 2
Fore
SplineSet
261.604439778 732.655164316 m 0
 280.310526982 725.280649168 291.915756946 706.811152945 291.915756946 687.609295318 c 0
 291.915756946 681.843908363 290.869534141 676.012498313 288.655164316 670.395560222 c 2
 206.655164316 462.395560222 l 2
 199.280649168 443.689473018 180.811152945 432.084243054 161.609295318 432.084243054 c 0
 155.843908363 432.084243054 150.012498313 433.130465859 144.395560222 435.344835684 c 0
 125.68834564 442.719795279 114.084310915 461.189685986 114.084310915 480.390810169 c 0
 114.084310915 486.15628122 115.130536409 491.987680642 117.344835684 497.604439778 c 2
 199.344835684 705.604439778 l 2
 206.719795279 724.31165436 225.189685986 735.915689085 244.390810169 735.915689085 c 0
 250.15628122 735.915689085 255.987680642 734.869463591 261.604439778 732.655164316 c 0
EndSplineSet
EndChar

StartChar: second
Encoding: 8243 8243 169
Width: 520
VWidth: 0
Flags: HW
LayerCount: 2
Fore
SplineSet
461.604439778 732.655164316 m 0
 480.310526982 725.280649168 491.915756946 706.811152945 491.915756946 687.609295318 c 0
 491.915756946 681.843908363 490.869534141 676.012498313 488.655164316 670.395560222 c 2
 406.655164316 462.395560222 l 2
 399.280649168 443.689473018 380.811152945 432.084243054 361.609295318 432.084243054 c 0
 355.843908363 432.084243054 350.012498313 433.130465859 344.395560222 435.344835684 c 0
 325.68834564 442.719795279 314.084310915 461.189685986 314.084310915 480.390810169 c 0
 314.084310915 486.15628122 315.130536409 491.987680642 317.344835684 497.604439778 c 2
 399.344835684 705.604439778 l 2
 406.719795279 724.31165436 425.189685986 735.915689085 444.390810169 735.915689085 c 0
 450.15628122 735.915689085 455.987680642 734.869463591 461.604439778 732.655164316 c 0
261.604439778 732.655164316 m 0
 280.310526982 725.280649168 291.915756946 706.811152945 291.915756946 687.609295318 c 0
 291.915756946 681.843908363 290.869534141 676.012498313 288.655164316 670.395560222 c 2
 206.655164316 462.395560222 l 2
 199.280649168 443.689473018 180.811152945 432.084243054 161.609295318 432.084243054 c 0
 155.843908363 432.084243054 150.012498313 433.130465859 144.395560222 435.344835684 c 0
 125.68834564 442.719795279 114.084310915 461.189685986 114.084310915 480.390810169 c 0
 114.084310915 486.15628122 115.130536409 491.987680642 117.344835684 497.604439778 c 2
 199.344835684 705.604439778 l 2
 206.719795279 724.31165436 225.189685986 735.915689085 244.390810169 735.915689085 c 0
 250.15628122 735.915689085 255.987680642 734.869463591 261.604439778 732.655164316 c 0
EndSplineSet
EndChar

StartChar: uni2034
Encoding: 8244 8244 170
Width: 720
VWidth: 0
Flags: HW
LayerCount: 2
Fore
SplineSet
661.604439778 732.655164316 m 0
 680.310526982 725.280649168 691.915756946 706.811152945 691.915756946 687.609295318 c 0
 691.915756946 681.843908363 690.869534141 676.012498313 688.655164316 670.395560222 c 2
 606.655164316 462.395560222 l 2
 599.280649168 443.689473018 580.811152945 432.084243054 561.609295318 432.084243054 c 0
 555.843908363 432.084243054 550.012498313 433.130465859 544.395560222 435.344835684 c 0
 525.68834564 442.719795279 514.084310915 461.189685986 514.084310915 480.390810169 c 0
 514.084310915 486.15628122 515.130536409 491.987680642 517.344835684 497.604439778 c 2
 599.344835684 705.604439778 l 2
 606.719795279 724.31165436 625.189685986 735.915689085 644.390810169 735.915689085 c 0
 650.15628122 735.915689085 655.987680642 734.869463591 661.604439778 732.655164316 c 0
461.604439778 732.655164316 m 0
 480.310526982 725.280649168 491.915756946 706.811152945 491.915756946 687.609295318 c 0
 491.915756946 681.843908363 490.869534141 676.012498313 488.655164316 670.395560222 c 2
 406.655164316 462.395560222 l 2
 399.280649168 443.689473018 380.811152945 432.084243054 361.609295318 432.084243054 c 0
 355.843908363 432.084243054 350.012498313 433.130465859 344.395560222 435.344835684 c 0
 325.68834564 442.719795279 314.084310915 461.189685986 314.084310915 480.390810169 c 0
 314.084310915 486.15628122 315.130536409 491.987680642 317.344835684 497.604439778 c 2
 399.344835684 705.604439778 l 2
 406.719795279 724.31165436 425.189685986 735.915689085 444.390810169 735.915689085 c 0
 450.15628122 735.915689085 455.987680642 734.869463591 461.604439778 732.655164316 c 0
261.604439778 732.655164316 m 0
 280.310526982 725.280649168 291.915756946 706.811152945 291.915756946 687.609295318 c 0
 291.915756946 681.843908363 290.869534141 676.012498313 288.655164316 670.395560222 c 2
 206.655164316 462.395560222 l 2
 199.280649168 443.689473018 180.811152945 432.084243054 161.609295318 432.084243054 c 0
 155.843908363 432.084243054 150.012498313 433.130465859 144.395560222 435.344835684 c 0
 125.68834564 442.719795279 114.084310915 461.189685986 114.084310915 480.390810169 c 0
 114.084310915 486.15628122 115.130536409 491.987680642 117.344835684 497.604439778 c 2
 199.344835684 705.604439778 l 2
 206.719795279 724.31165436 225.189685986 735.915689085 244.390810169 735.915689085 c 0
 250.15628122 735.915689085 255.987680642 734.869463591 261.604439778 732.655164316 c 0
EndSplineSet
EndChar

StartChar: uni00AD
Encoding: 173 173 171
Width: 520
VWidth: 32
Flags: HW
LayerCount: 2
Fore
SplineSet
31 264 m 0
 31 290.144471708 52.8536339246 312 79 312 c 2
 399 312 l 2
 425.144471708 312 447 290.146366075 447 264 c 0
 447 237.853633925 425.144471708 216 399 216 c 2
 79 216 l 2
 52.8536339246 216 31 237.855528292 31 264 c 0
EndSplineSet
EndChar

StartChar: endash
Encoding: 8211 8211 173
Width: 640
VWidth: 0
Flags: HW
LayerCount: 2
Fore
SplineSet
-9 264 m 0
 -9 290.144471708 12.8536339246 312 39 312 c 2
 559 312 l 2
 585.144471708 312 607 290.146366075 607 264 c 0
 607 237.853633925 585.144471708 216 559 216 c 2
 39 216 l 2
 12.8536339246 216 -9 237.855528292 -9 264 c 0
EndSplineSet
EndChar

StartChar: emdash
Encoding: 8212 8212 174
Width: 1280
VWidth: 0
Flags: HW
LayerCount: 2
Fore
SplineSet
-9 264 m 0
 -9 290.144471708 12.8536339246 312 39 312 c 2
 1199 312 l 2
 1225.14447171 312 1247 290.146366075 1247 264 c 0
 1247 237.853633925 1225.14447171 216 1199 216 c 2
 39 216 l 2
 12.8536339246 216 -9 237.855528292 -9 264 c 0
EndSplineSet
EndChar

StartChar: figuredash
Encoding: 8210 8210 190
Width: 840
VWidth: 0
Flags: HW
LayerCount: 2
Fore
SplineSet
12 368 m 0
 12 394.144471708 33.8536339246 416 60 416 c 2
 780 416 l 2
 806.144471708 416 828 394.146366075 828 368 c 0
 828 341.853633925 806.144471708 320 780 320 c 2
 60 320 l 2
 33.8536339246 320 12 341.855528292 12 368 c 0
EndSplineSet
EndChar

StartChar: uni2057
Encoding: 8279 8279 191
Width: 920
VWidth: 0
Flags: HW
LayerCount: 2
Fore
SplineSet
861.604439778 732.655164316 m 0
 880.310526982 725.280649168 891.915756946 706.811152945 891.915756946 687.609295318 c 0
 891.915756946 681.843908363 890.869534141 676.012498313 888.655164316 670.395560222 c 2
 806.655164316 462.395560222 l 2
 799.280649168 443.689473018 780.811152945 432.084243054 761.609295318 432.084243054 c 0
 755.843908363 432.084243054 750.012498313 433.130465859 744.395560222 435.344835684 c 0
 725.68834564 442.719795279 714.084310915 461.189685986 714.084310915 480.390810169 c 0
 714.084310915 486.15628122 715.130536409 491.987680642 717.344835684 497.604439778 c 2
 799.344835684 705.604439778 l 2
 806.719795279 724.31165436 825.189685986 735.915689085 844.390810169 735.915689085 c 0
 850.15628122 735.915689085 855.987680642 734.869463591 861.604439778 732.655164316 c 0
661.604439778 732.655164316 m 0
 680.310526982 725.280649168 691.915756946 706.811152945 691.915756946 687.609295318 c 0
 691.915756946 681.843908363 690.869534141 676.012498313 688.655164316 670.395560222 c 2
 606.655164316 462.395560222 l 2
 599.280649168 443.689473018 580.811152945 432.084243054 561.609295318 432.084243054 c 0
 555.843908363 432.084243054 550.012498313 433.130465859 544.395560222 435.344835684 c 0
 525.68834564 442.719795279 514.084310915 461.189685986 514.084310915 480.390810169 c 0
 514.084310915 486.15628122 515.130536409 491.987680642 517.344835684 497.604439778 c 2
 599.344835684 705.604439778 l 2
 606.719795279 724.31165436 625.189685986 735.915689085 644.390810169 735.915689085 c 0
 650.15628122 735.915689085 655.987680642 734.869463591 661.604439778 732.655164316 c 0
461.604439778 732.655164316 m 0
 480.310526982 725.280649168 491.915756946 706.811152945 491.915756946 687.609295318 c 0
 491.915756946 681.843908363 490.869534141 676.012498313 488.655164316 670.395560222 c 2
 406.655164316 462.395560222 l 2
 399.280649168 443.689473018 380.811152945 432.084243054 361.609295318 432.084243054 c 0
 355.843908363 432.084243054 350.012498313 433.130465859 344.395560222 435.344835684 c 0
 325.68834564 442.719795279 314.084310915 461.189685986 314.084310915 480.390810169 c 0
 314.084310915 486.15628122 315.130536409 491.987680642 317.344835684 497.604439778 c 2
 399.344835684 705.604439778 l 2
 406.719795279 724.31165436 425.189685986 735.915689085 444.390810169 735.915689085 c 0
 450.15628122 735.915689085 455.987680642 734.869463591 461.604439778 732.655164316 c 0
261.604439778 732.655164316 m 0
 280.310526982 725.280649168 291.915756946 706.811152945 291.915756946 687.609295318 c 0
 291.915756946 681.843908363 290.869534141 676.012498313 288.655164316 670.395560222 c 2
 206.655164316 462.395560222 l 2
 199.280649168 443.689473018 180.811152945 432.084243054 161.609295318 432.084243054 c 0
 155.843908363 432.084243054 150.012498313 433.130465859 144.395560222 435.344835684 c 0
 125.68834564 442.719795279 114.084310915 461.189685986 114.084310915 480.390810169 c 0
 114.084310915 486.15628122 115.130536409 491.987680642 117.344835684 497.604439778 c 2
 199.344835684 705.604439778 l 2
 206.719795279 724.31165436 225.189685986 735.915689085 244.390810169 735.915689085 c 0
 250.15628122 735.915689085 255.987680642 734.869463591 261.604439778 732.655164316 c 0
EndSplineSet
EndChar

StartChar: copyright
Encoding: 169 169 192
Width: 920
VWidth: 0
Flags: HW
HStem: 48 640<313.377 606.622>
VStem: 60 800<250.702 485.298>
LayerCount: 2
Fore
SplineSet
907.088225459 358.688768977 m 0
 866.160946687 151.713673476 634.191029837 0 396 0 c 0
 360.986982114 0 327.348226373 3.28052457896 295.46689703 9.58194361898 c 0
 128.919010921 42.5005214265 6.90636221763 162.747536923 6.90636221763 317.204706717 c 0
 6.90636221763 336.729335069 8.85600147636 356.800607237 12.9117745414 377.311231023 c 0
 53.8390533129 584.286326524 285.808970163 736 524 736 c 0
 559.013017886 736 592.651773627 732.719475421 624.53310297 726.418056381 c 0
 791.080989079 693.499478573 913.093637782 573.252463077 913.093637782 418.795293283 c 0
 913.093637782 399.270664931 911.143998524 379.199392763 907.088225459 358.688768977 c 0
812.911774541 377.311231023 m 0
 815.683998609 391.330764163 817.044688159 405.147584741 817.044688159 418.665250055 c 0
 817.044688159 520.805313958 739.357765024 605.865470055 605.918597092 632.24003256 c 0
 580.424521246 637.278996061 553.015019498 640 524 640 c 0
 320.191029837 640 136.160946687 505.713673476 107.088225459 358.688768977 c 0
 104.316001391 344.669235837 102.955311841 330.852415259 102.955311841 317.334749945 c 0
 102.955311841 215.194686042 180.642234976 130.134529945 314.081402908 103.75996744 c 0
 339.575478754 98.7210039388 366.984980502 96 396 96 c 0
 599.808970163 96 783.839053313 230.286326524 812.911774541 377.311231023 c 0
573.891151391 331.346908344 m 0
 597.107176763 327.477570782 613.982966875 306.709811448 613.982966875 283.78836297 c 0
 613.982966875 281.248284339 613.775726523 278.681757685 613.346908344 276.108848609 c 0
 605.656713779 229.967681217 534.192748939 156 427 156 c 0
 414.722214222 156 402.692033083 157.153647278 391.058277938 159.4346672 c 0
 306.179620179 176.076749396 253.74541171 249.836727395 253.74541171 335.289843523 c 0
 253.74541171 349.057702669 255.106517045 363.129096343 257.912330952 377.314044427 c 0
 280.091580541 489.442472909 380.878457194 580 493 580 c 0
 607.969686384 580 637.212501925 492.869263115 639.70341151 483.108964334 c 0
 640.516354121 479.424296204 640.905314474 475.767491261 640.905314474 472.1854868 c 0
 640.905314474 450.139670629 626.171830516 430.927232447 604.869557168 425.49071477 c 0
 600.994570054 424.501785767 597.088544636 424.027965439 593.22832203 424.027965439 c 0
 572.424530402 424.027965439 552.951047496 437.789725452 546.835615403 458.850486872 c 0
 546.083780795 460.800734541 541.144125324 484 493 484 c 0
 433.121542806 484 365.908419459 428.557527091 352.087669048 358.685955573 c 0
 350.267218118 349.48256476 349.410488833 340.814271855 349.410488833 332.70522344 c 0
 349.410488833 288.030610006 375.413607183 260.329970646 409.529219809 253.640953118 c 0
 414.91017878 252.585913325 420.721447749 252 427 252 c 0
 475.211760853 252 511.499078508 286.589814028 520.884924295 300.40145806 c 0
 527.657886639 318.313931345 545.914846007 331.972764442 566.341658773 331.972764442 c 0
 568.831539795 331.972764442 571.353660173 331.769823547 573.891151391 331.346908344 c 0
EndSplineSet
EndChar

StartChar: registered
Encoding: 174 174 193
Width: 920
VWidth: 0
Flags: HW
HStem: 48 640<313.377 606.622>
VStem: 60 800<250.702 485.298>
LayerCount: 2
Fore
SplineSet
390.15058733 424 m 1
 497 424 l 2
 550.775277605 424 570.713857921 439.940217606 574.900056615 461.251774593 c 0
 576.042634948 467.068537018 575.564362202 469.62453577 575.409772026 470.289052953 c 0
 574.259733475 471.452069961 558.204968806 480 527 480 c 2
 401.35058733 480 l 1
 390.15058733 424 l 1
370.95058733 328 m 1
 345.067872433 198.586425513 l 2
 340.553090091 176.012513804 320.077145511 160.024544865 297.748022746 160.024544865 c 0
 294.716546506 160.024544865 291.650913072 160.319230055 288.586425513 160.932127567 c 0
 266.014053221 165.446602025 250.024511692 185.921510629 250.024511692 208.25173209 c 0
 250.024511692 211.283249497 250.319204871 214.348961007 250.932127567 217.413574487 c 2
 286.26955088 394.100691051 l 1
 314.932127567 537.413574487 l 2
 319.665182392 561.078848612 342.774845704 576 362 576 c 2
 527 576 l 2
 542.967441217 576 558.69252554 574.837898006 574.0637555 571.894612949 c 0
 604.678584068 566.032481702 639.870525669 551.923422477 659.311055505 517.005299774 c 0
 667.812564304 501.735308169 671.556768852 484.672031462 671.556768852 467.428321665 c 0
 671.556768852 459.184113419 670.70092199 450.898661941 669.099943385 442.748225407 c 0
 657.653980774 384.477870294 617.206345736 353.715103824 572.184189551 339.167705159 c 1
 611.454977615 223.422224548 l 2
 613.137251094 218.463944821 613.934248901 213.387086398 613.934248901 208.370517955 c 0
 613.934248901 188.335959565 601.222561898 169.262993986 581.422224548 162.545022385 c 0
 576.464112001 160.862805628 571.387292092 160.065812367 566.370682842 160.065812367 c 0
 546.336931882 160.065812367 527.263415587 172.776195488 520.545022385 192.577775452 c 2
 474.598196199 328 l 1
 370.95058733 328 l 1
907.088225459 358.688768977 m 0
 866.160946687 151.713673476 634.191029837 0 396 0 c 0
 360.986982114 0 327.348226373 3.28052457896 295.46689703 9.58194361898 c 0
 128.919010921 42.5005214265 6.90636221763 162.747536923 6.90636221763 317.204706717 c 0
 6.90636221763 336.729335069 8.85600147636 356.800607237 12.9117745414 377.311231023 c 0
 53.8390533129 584.286326524 285.808970163 736 524 736 c 0
 559.013017886 736 592.651773627 732.719475421 624.53310297 726.418056381 c 0
 791.080989079 693.499478573 913.093637782 573.252463077 913.093637782 418.795293283 c 0
 913.093637782 399.270664931 911.143998524 379.199392763 907.088225459 358.688768977 c 0
812.911774541 377.311231023 m 0
 815.683998609 391.330764163 817.044688159 405.147584741 817.044688159 418.665250055 c 0
 817.044688159 520.805313958 739.357765024 605.865470055 605.918597092 632.24003256 c 0
 580.424521246 637.278996061 553.015019498 640 524 640 c 0
 320.191029837 640 136.160946687 505.713673476 107.088225459 358.688768977 c 0
 104.316001391 344.669235837 102.955311841 330.852415259 102.955311841 317.334749945 c 0
 102.955311841 215.194686042 180.642234976 130.134529945 314.081402908 103.75996744 c 0
 339.575478754 98.7210039388 366.984980502 96 396 96 c 0
 599.808970163 96 783.839053313 230.286326524 812.911774541 377.311231023 c 0
EndSplineSet
EndChar

StartChar: brokenbar
Encoding: 166 166 194
Width: 360
VWidth: 0
Flags: HW
LayerCount: 2
Fore
SplineSet
170.443343548 319.061908829 m 0
 193.002887095 314.535158315 208.975328845 294.066232963 208.975328845 271.747511101 c 0
 208.975328845 268.706353603 208.678770262 265.630851136 208.061908829 262.556656452 c 2
 147.061908829 -41.4433435479 l 2
 142.535158315 -64.0028870946 122.066232963 -79.9753288451 99.7475111008 -79.9753288451 c 0
 96.7063536034 -79.9753288451 93.6308511362 -79.6787702624 90.5566564521 -79.0619088291 c 0
 67.9955748538 -74.5348496926 52.0247044828 -54.0648909279 52.0247044828 -31.7472659584 c 0
 52.0247044828 -28.7061493903 52.3212550565 -25.6307249567 52.9380911709 -22.5566564521 c 2
 113.938091171 281.443343548 l 2
 118.465150307 304.004425146 138.935109072 319.975295517 161.252734042 319.975295517 c 0
 164.29385061 319.975295517 167.369275043 319.678744943 170.443343548 319.061908829 c 0
269.443343548 815.061908829 m 0
 292.002887095 810.535158315 307.975328845 790.066232963 307.975328845 767.747511101 c 0
 307.975328845 764.706353603 307.678770262 761.630851136 307.061908829 758.556656452 c 2
 246.061908829 454.556656452 l 2
 241.535158315 431.997112905 221.066232963 416.024671155 198.747511101 416.024671155 c 0
 195.706353603 416.024671155 192.630851136 416.321229738 189.556656452 416.938091171 c 0
 166.995574854 421.465150307 151.024704483 441.935109072 151.024704483 464.252734042 c 0
 151.024704483 467.29385061 151.321255057 470.369275043 151.938091171 473.443343548 c 2
 212.938091171 777.443343548 l 2
 217.465150307 800.004425146 237.935109072 815.975295517 260.252734042 815.975295517 c 0
 263.29385061 815.975295517 266.369275043 815.678744943 269.443343548 815.061908829 c 0
EndSplineSet
EndChar

StartChar: plusminus
Encoding: 177 177 195
Width: 800
VWidth: 0
Flags: HW
LayerCount: 2
Fore
SplineSet
656 56 m 0
 656 29.8555282921 634.146366075 8 608 8 c 2
 68 8 l 2
 41.8555282921 8 20 29.8536339246 20 56 c 0
 20 82.1463660754 41.8555282921 104 68 104 c 2
 608 104 l 2
 634.146366075 104 656 82.1444717079 656 56 c 0
737 464 m 0
 737 437.855528292 715.146366075 416 689 416 c 2
 458.386334906 416 l 1
 423.076236293 238.628341849 l 2
 418.579069325 216.037921732 398.095752609 200.024288007 375.749335531 200.024288007 c 0
 372.731389609 200.024288007 369.679462123 200.316364764 366.628341849 200.923763707 c 0
 344.036380394 205.421237515 328.024320962 225.905593821 328.024320962 248.250909656 c 0
 328.024320962 251.26881408 328.316389759 254.320663433 328.923763707 257.371658151 c 2
 360.502553983 416 l 1
 149 416 l 2
 122.855528292 416 101 437.853633925 101 464 c 0
 101 490.146366075 122.855528292 512 149 512 c 2
 379.613665094 512 l 1
 414.923763707 689.371658151 l 2
 419.421237515 711.963619606 439.905593821 727.975679038 462.250909656 727.975679038 c 0
 465.26881408 727.975679038 468.320663433 727.683610241 471.371658151 727.076236293 c 0
 493.962078268 722.579069325 509.975711993 702.095752609 509.975711993 679.749335531 c 0
 509.975711993 676.731389609 509.683635236 673.679462123 509.076236293 670.628341849 c 2
 477.497446017 512 l 1
 689 512 l 2
 715.146366075 512 737 490.144471708 737 464 c 0
EndSplineSet
EndChar

StartChar: divide
Encoding: 247 247 196
Width: 800
VWidth: 0
Flags: HW
HStem: 128 48<372.382 427.618> 560 48<372.382 427.618>
VStem: 370 60<129.906 174.094 561.906 606.094>
LayerCount: 2
Fore
SplineSet
277.783276232 152.89948461 m 0
 288.711958041 200.923153747 334.194867678 224 372 224 c 0
 396.843514777 224 437.209638281 205.41858315 437.209638281 162.970125272 c 0
 437.209638281 159.202811807 436.891689821 155.247506822 436.216723768 151.10051539 c 0
 425.288041959 103.076846253 379.805132322 80 342 80 c 0
 317.156485223 80 276.790361719 98.5814168497 276.790361719 141.029874728 c 0
 276.790361719 144.797188193 277.108310179 148.752493178 277.783276232 152.89948461 c 0
363.783276232 584.89948461 m 0
 374.711958041 632.923153747 420.194867678 656 458 656 c 0
 482.843514777 656 523.209638281 637.41858315 523.209638281 594.970125272 c 0
 523.209638281 591.202811807 522.891689821 587.247506822 522.216723768 583.10051539 c 0
 511.288041959 535.076846253 465.805132322 512 428 512 c 0
 403.156485223 512 362.790361719 530.58141685 362.790361719 573.029874728 c 0
 362.790361719 576.797188193 363.108310179 580.752493178 363.783276232 584.89948461 c 0
82 368 m 0
 82 394.144471708 103.853633925 416 130 416 c 2
 670 416 l 2
 696.144471708 416 718 394.146366075 718 368 c 0
 718 341.853633925 696.144471708 320 670 320 c 2
 130 320 l 2
 103.853633925 320 82 341.855528292 82 368 c 0
EndSplineSet
EndChar

StartChar: uni2070
Encoding: 8304 8304 197
Width: 660
VWidth: 516
Flags: HW
HStem: 522 492<250.058 409.942>
VStem: 98 465<666.762 869.238>
LayerCount: 2
Fore
SplineSet
689.081140153 758.65300894 m 0
 657.912528526 601.65555778 515.351286605 474 361 474 c 0
 343.884263292 474 327.204730583 475.621797237 311.143431573 478.79798243 c 0
 196.452756475 501.478515544 124.056137581 600.683160119 124.056137581 718.62316718 c 0
 124.056137581 737.785803125 125.967339104 757.443034727 129.918859847 777.34699106 c 0
 161.087471474 934.34444222 303.648713395 1062 458 1062 c 0
 475.115736708 1062 491.795269417 1060.37820276 507.856568427 1057.20201757 c 0
 622.547243525 1034.52148446 694.943862419 935.316839881 694.943862419 817.37683282 c 0
 694.943862419 798.214196875 693.032660896 778.556965273 689.081140153 758.65300894 c 0
594.918859847 777.34699106 m 0
 597.862142703 792.172415818 599.260795532 806.365904325 599.260795532 819.836498952 c 0
 599.260795532 896.913267077 553.469451959 950.322773839 489.232853026 963.0258145 c 0
 479.470310935 964.956395683 469.062249241 966 458 966 c 0
 356.351286605 966 246.912528526 873.65555778 224.081140153 758.65300894 c 0
 221.137857297 743.827584182 219.739204468 729.634095675 219.739204468 716.163501048 c 0
 219.739204468 639.086732923 265.530548041 585.677226161 329.767146974 572.9741855 c 0
 339.529689065 571.043604317 349.937750759 570 361 570 c 0
 462.648713395 570 572.087471474 662.34444222 594.918859847 777.34699106 c 0
EndSplineSet
EndChar

StartChar: uni2074
Encoding: 8308 8308 198
Width: 660
VWidth: 516
Flags: HW
LayerCount: 2
Fore
SplineSet
490.818926029 742 m 1
 530.481435939 942.400050076 l 1
 273.364390559 742 l 1
 490.818926029 742 l 1
683 694 m 0
 683 667.855528292 661.146366075 646 635 646 c 2
 569.681073971 646 l 1
 544.086642761 516.68076862 l 2
 539.6111596 494.067801069 519.117353802 478.024009629 496.75067411 478.024009629 c 0
 493.749699029 478.024009629 490.715008396 478.312830617 487.68076862 478.913357239 c 0
 465.066257334 483.389145931 449.02404231 503.883995841 449.02404231 526.249571094 c 0
 449.02404231 529.250504268 449.312855376 532.285116701 449.913357239 535.31923138 c 2
 471.818926029 646 l 1
 185 646 l 2
 156.488647958 646 137.120233578 671.274269166 137.120233578 695.136458576 c 0
 137.120233578 697.796670097 137.360950062 700.439331865 137.856550789 703.027468998 c 2
 146.856550789 750.027468998 l 2
 149.041382749 761.437147008 155.699692116 772.005829144 164.492321663 778.858908055 c 2
 504.492321663 1043.85890806 l 2
 512.953556236 1050.45369383 524.47012272 1054 534 1054 c 2
 580 1054 l 1
 592 1054 l 2
 620.283581012 1054 639.88727141 1029.09398728 639.88727141 1004.96641829 c 0
 639.88727141 1002.18098711 639.625997787 999.405930855 639.086642761 996.68076862 c 2
 588.681073971 742 l 1
 635 742 l 2
 661.146366075 742 683 720.144471708 683 694 c 0
EndSplineSet
EndChar

